<?xml version="1.0" standalone="no"?>
<!DOCTYPE svg PUBLIC "-//W3C//DTD SVG 20010904//EN"
 "http://www.w3.org/TR/2001/REC-SVG-20010904/DTD/svg10.dtd">
<svg version="1.0" xmlns="http://www.w3.org/2000/svg"
 width="2202.000000pt" height="1384.000000pt" viewBox="0 0 2202.000000 1384.000000"
 preserveAspectRatio="xMidYMid meet">
<metadata>
Created by potrace 1.16, written by Peter Selinger 2001-2019
</metadata>
<g transform="translate(0.000000,1384.000000) scale(0.100000,-0.100000)"
fill="#000000" stroke="none">
<path d="M6820 13169 l0 -330 -26 20 c-38 30 -98 28 -130 -4 -22 -22 -25 -33
-22 -83 l2 -57 -2891 -5595 -2892 -5595 -103 -6 -103 -5 98 -2 c53 -1 97 -4
97 -6 0 -3 -19 -39 -41 -81 -27 -50 -50 -80 -66 -86 -17 -6 -75 -1 -190 16
-144 22 -189 25 -172 12 8 -6 304 -47 339 -47 19 0 50 9 68 20 18 11 36 20 40
20 5 0 26 -36 47 -80 21 -44 41 -80 43 -80 2 0 20 13 39 30 42 37 76 38 259
10 71 -11 138 -20 149 -19 l20 0 -20 8 c-37 15 -332 54 -358 47 -14 -3 -39
-18 -56 -32 l-31 -26 -36 76 -35 77 38 69 38 70 2948 0 c2613 0 2947 -2 2947
-15 0 -8 5 -15 10 -15 6 0 10 7 10 15 0 13 32 15 225 15 l225 0 0 -50 c0 -27
5 -50 10 -50 6 0 10 23 10 50 l0 50 3680 0 c3493 0 3680 -1 3689 -18 10 -16
10 -16 11 1 0 16 17 17 225 17 l225 0 0 -44 c0 -25 5 -48 10 -51 6 -4 10 13
10 44 l0 51 2950 0 2950 0 35 -70 c19 -38 35 -72 35 -75 0 -3 -16 -13 -35 -21
-31 -13 -51 -12 -206 12 -94 14 -173 23 -176 20 -9 -9 12 -13 164 -35 185 -27
212 -27 257 4 l37 25 39 -81 c22 -45 42 -84 44 -87 3 -2 21 9 41 27 44 38 76
40 261 11 71 -11 138 -20 149 -19 l20 0 -20 8 c-11 5 -94 19 -184 32 l-164 23
-49 -27 c-28 -16 -51 -27 -53 -25 -11 12 -35 70 -35 83 0 8 -20 56 -45 105
l-45 90 227 2 228 1 -230 9 c-126 5 -233 12 -237 16 -4 4 -1307 2524 -2897
5600 -2703 5234 -2889 5596 -2879 5623 12 35 -4 82 -36 104 -33 24 -93 19
-121 -10 l-25 -24 0 335 0 334 -241 -2 -241 -3 2 -207 c0 -138 -3 -208 -10
-208 -5 0 -10 6 -10 13 0 16 -37 51 -62 60 -9 3 -124 -5 -255 -18 -178 -19
-297 -25 -470 -25 -226 0 -233 -1 -233 -20 0 -20 -7 -20 -1475 -20 l-1476 0
-27 25 c-21 20 -37 25 -79 25 -43 0 -55 -4 -71 -25 l-20 -25 -1071 0 c-1064 0
-1071 0 -1071 20 0 19 -7 20 -232 20 -174 0 -293 6 -472 25 -213 21 -242 23
-267 9 -16 -8 -33 -23 -39 -33 -15 -29 -12 -83 6 -109 29 -42 54 -44 253 -22
341 37 469 40 1694 40 l1207 0 0 -115 c0 -102 2 -117 20 -135 11 -11 25 -20
30 -20 23 0 8 -51 -24 -84 -21 -20 -37 -48 -40 -68 -8 -49 -25 -627 -33 -1096
l-6 -413 -26 5 c-14 3 -75 8 -136 11 -86 5 -121 12 -162 31 -65 30 -74 30
-114 -3 -31 -27 -33 -27 -322 -45 -284 -18 -290 -18 -311 0 -23 21 -78 42
-108 42 -10 0 -31 -12 -45 -26 l-26 -26 -286 26 c-258 23 -291 28 -338 51 -60
29 -95 26 -120 -11 -15 -23 -14 -41 3 -101 6 -22 4 -23 -50 -23 -41 0 -56 4
-56 14 0 11 -49 14 -257 19 -153 3 -335 14 -448 26 -242 27 -247 27 -284 -5
-42 -35 -44 -98 -5 -138 32 -31 54 -32 239 -11 216 24 377 35 646 42 l256 6 6
-34 c4 -19 18 -121 32 -227 l26 -193 -20 -33 c-12 -18 -21 -45 -21 -60 0 -25
25 -59 49 -67 8 -3 21 -84 36 -229 29 -265 30 -294 10 -310 -8 -7 -15 -26 -15
-42 0 -30 25 -99 39 -108 8 -5 23 -158 37 -392 7 -105 6 -109 -21 -161 -26
-49 -27 -57 -16 -85 7 -17 21 -34 31 -37 21 -7 25 -52 36 -372 5 -169 4 -182
-13 -191 -10 -6 -29 -30 -42 -55 -31 -57 -24 -91 24 -114 l35 -17 0 -283 0
-283 -30 -48 c-37 -60 -37 -72 -4 -112 l26 -31 -11 -252 c-12 -267 -18 -327
-31 -327 -10 0 -48 -64 -56 -95 -5 -19 1 -32 26 -56 l32 -32 -20 -229 c-14
-164 -24 -234 -34 -246 -25 -29 -29 -52 -14 -95 12 -37 11 -64 -10 -242 -13
-110 -26 -215 -29 -232 l-6 -33 -99 0 c-82 0 -100 3 -100 15 0 12 -20 15 -118
15 -189 0 -353 9 -572 31 -113 11 -209 20 -215 21 -70 4 -115 -33 -115 -94 0
-31 7 -46 31 -70 34 -35 8 -34 304 -3 326 34 873 49 847 23 -31 -31 2 -139 48
-158 32 -13 61 -3 95 35 19 21 37 24 278 44 l259 22 23 -25 c34 -37 80 -35
121 5 l31 30 174 -10 c422 -26 381 -21 411 -54 26 -27 31 -28 80 -22 30 4 62
15 74 26 15 14 35 19 79 19 32 0 148 7 258 16 174 14 202 14 211 2 23 -31 53
-39 105 -27 27 6 55 17 62 25 15 18 94 18 280 0 79 -8 192 -18 251 -21 92 -6
108 -10 113 -25 14 -44 122 -42 161 3 21 25 31 27 150 37 70 5 143 10 163 10
l36 0 59 -158 c391 -1038 937 -2093 1603 -3100 74 -112 137 -201 140 -198 3 3
-57 101 -134 218 -629 955 -1110 1870 -1506 2864 -447 1121 -678 2029 -932
3668 -47 305 -211 1435 -230 1591 -3 28 -8 61 -10 75 -2 14 -22 156 -44 315
-22 160 -92 622 -155 1028 -64 406 -116 749 -116 761 0 12 -5 27 -12 34 -6 6
-12 38 -13 69 -1 52 2 60 27 81 28 23 28 25 28 138 l0 114 1618 0 c1651 0
1736 -2 2101 -41 192 -21 194 -21 220 -2 14 11 33 35 42 54 16 31 17 16 18
-298 1 -182 -2 -334 -7 -337 -5 -3 -49 1 -98 9 -49 8 -98 15 -109 14 l-20 0
20 -9 c34 -15 317 -52 348 -46 16 3 43 16 60 28 19 13 32 18 34 11 2 -6 21
-46 41 -88 l38 -77 31 26 c56 47 73 49 257 21 93 -14 171 -23 174 -21 8 9 -17
14 -138 31 -63 9 -123 18 -132 21 -16 5 -18 24 -18 216 l0 210 31 -26 c18 -16
43 -26 62 -26 l32 -1 2880 -5575 c1584 -3066 2882 -5580 2883 -5585 2 -5
-1123 -9 -2942 -9 l-2946 0 0 5280 0 5280 28 -6 c95 -18 262 -39 262 -33 0 9
-1 9 -199 40 -148 23 -186 20 -231 -17 l-30 -26 -40 87 -40 87 -29 -22 c-64
-45 -105 -45 -398 5 -18 3 -33 2 -33 -3 0 -5 24 -12 53 -16 28 -4 80 -12 114
-17 l63 -11 0 -3243 c0 -1903 -4 -3246 -9 -3249 -5 -3 -12 5 -15 19 -8 33 -46
56 -93 56 -21 0 -126 -9 -233 -21 -107 -11 -294 -24 -416 -27 l-221 -6 -12 89
c-6 49 -16 140 -23 201 -11 110 -11 113 10 136 15 15 22 36 22 61 0 30 -5 40
-29 54 -34 19 -33 14 -56 282 -19 227 -19 253 5 300 27 53 25 74 -9 103 l-29
24 -13 284 c-12 283 -12 284 9 322 29 50 28 88 -3 117 l-25 23 0 289 0 288 25
40 c33 52 32 94 -1 125 l-26 24 7 261 c7 224 10 264 25 283 54 70 63 125 25
155 -30 24 -31 57 -10 334 13 170 16 190 39 227 31 48 33 87 7 115 -18 21 -18
26 5 266 23 229 26 249 54 301 34 63 38 104 14 131 -16 16 -15 33 14 233 16
119 32 218 35 221 6 6 383 -14 502 -27 304 -32 341 -34 368 -16 37 24 52 76
34 119 -26 63 -39 64 -295 39 -125 -12 -296 -25 -379 -28 l-153 -6 -41 46
c-33 38 -47 47 -74 47 -31 0 -66 -27 -77 -61 -2 -7 -94 -5 -283 7 l-280 17
-30 28 c-45 41 -84 42 -117 4 -19 -23 -29 -25 -97 -25 -42 0 -173 -5 -293 -11
-215 -12 -216 -12 -243 10 -40 31 -108 29 -141 -4 -30 -30 -34 -31 -334 -9
-219 16 -226 17 -246 42 -26 32 -75 34 -107 4 -18 -16 -40 -22 -112 -27 -49
-3 -163 -13 -253 -21 -90 -9 -166 -14 -168 -11 -2 2 -59 350 -125 773 -73 471
-126 778 -135 792 -8 12 -22 22 -31 22 -14 0 -13 -3 5 -20 12 -11 24 -31 27
-43 21 -90 281 -1807 320 -2112 46 -364 259 -1803 325 -2195 241 -1431 532
-2444 1035 -3595 306 -699 661 -1369 1092 -2059 163 -259 363 -559 370 -552 3
2 -55 96 -129 208 -652 983 -1190 2022 -1584 3058 l-63 165 56 3 c49 3 59 0
84 -24 25 -24 33 -26 80 -21 28 4 60 14 70 23 16 14 36 15 206 5 104 -6 235
-11 292 -11 102 0 103 0 131 -30 37 -40 70 -39 117 4 l38 34 230 14 c139 10
231 12 234 6 7 -21 46 -48 68 -48 33 0 103 66 103 98 l0 25 148 -7 c141 -7
466 -32 507 -40 11 -2 55 -7 98 -11 100 -9 133 3 156 58 l17 41 3 -93 2 -93
-57 7 c-31 4 -62 9 -68 11 -7 3 -110 -635 -310 -1923 -164 -1061 -302 -1945
-306 -1965 -7 -35 -6 -38 15 -38 44 0 35 -17 -12 -24 -25 -3 -1528 -6 -3339
-6 l-3294 0 0 5275 c0 4213 3 5275 13 5275 6 0 53 -7 102 -15 91 -15 153 -19
143 -10 -2 3 -81 17 -174 31 -177 27 -224 25 -254 -11 -23 -27 -36 -16 -75 65
l-39 80 -25 -17 c-72 -47 -72 -47 -229 -24 -81 12 -162 24 -179 27 -18 4 -33
2 -33 -3 0 -5 59 -17 130 -28 l130 -18 0 -5314 0 -5313 -2941 0 c-2814 0
-2941 1 -2937 18 4 14 5604 10859 5613 10869 1 2 83 -9 183 -24 l180 -27 52
27 51 27 41 -85 40 -84 37 28 c20 16 46 32 58 36 12 3 99 -6 194 -20 94 -15
173 -24 176 -21 9 8 -12 13 -139 32 l-118 17 0 593 0 594 -245 0 -245 0 0
-331z m470 -19 l0 -330 -57 -2 -58 -2 58 -3 c41 -3 57 -8 57 -18 0 -11 -15
-15 -57 -17 l-58 -2 58 -3 57 -4 0 -224 0 -225 -54 0 c-40 0 -62 -6 -90 -25
-20 -14 -38 -25 -40 -25 -2 0 -20 36 -40 80 -21 44 -40 80 -42 80 -3 0 -22
-11 -42 -25 -28 -19 -50 -25 -89 -25 l-53 0 0 320 0 320 49 0 c28 0 53 5 56
10 4 6 -15 10 -49 10 -43 0 -56 3 -56 15 0 11 14 15 58 17 l57 2 -57 3 -58 4
0 199 0 200 225 0 225 0 0 -330z m7850 -250 l0 -580 -38 0 c-23 0 -51 -9 -74
-25 l-38 -25 -40 80 c-22 44 -43 80 -46 80 -3 0 -22 -11 -42 -25 -27 -19 -50
-25 -89 -25 -88 0 -83 -12 -83 201 l0 189 58 2 57 2 -57 3 c-42 3 -58 8 -58
18 0 11 15 15 58 17 l57 2 -57 3 -58 4 0 99 0 100 55 0 c30 0 55 5 55 10 0 6
-25 10 -55 10 -42 0 -55 3 -55 15 0 11 14 15 58 17 l57 2 -57 3 -58 4 0 199 0
200 225 0 225 0 0 -580z m-7510 219 c104 -12 263 -22 433 -26 167 -4 267 -10
267 -16 0 -16 -452 -1 -675 23 -110 12 -213 22 -229 22 -65 -1 -88 -75 -35
-114 22 -17 32 -18 90 -9 165 26 403 43 729 51 482 12 2290 13 2290 1 0 -6
-497 -11 -1277 -14 -1328 -5 -1292 -4 -1696 -48 -131 -14 -160 -8 -178 38 -22
58 17 113 79 113 20 0 111 -10 202 -21z m6995 -4 c34 -33 33 -78 -1 -112 -29
-29 -23 -29 -314 1 -307 32 -534 36 -2077 36 -1035 0 -1553 3 -1553 10 0 13
2774 12 3180 0 239 -8 642 -40 692 -56 18 -5 58 11 70 30 14 21 8 63 -11 80
-24 22 -42 22 -271 -4 -221 -25 -680 -39 -680 -21 0 8 52 11 183 11 182 0 342
10 557 34 178 21 197 20 225 -9z m-7152 -37 c37 -13 34 -22 -13 -43 -32 -15
-42 -15 -55 -5 -29 24 -8 78 25 64 8 -3 27 -11 43 -16z m242 1 c77 -7 143 -15
148 -19 4 -3 -59 -11 -140 -18 -82 -7 -166 -15 -188 -18 -32 -4 -36 -3 -22 6
9 6 17 20 17 30 0 10 -8 24 -17 30 -14 9 -10 10 22 6 22 -3 103 -10 180 -17z
m2933 9 c7 -7 12 -40 12 -80 l0 -68 -70 0 -70 0 0 68 c0 40 5 73 12 80 7 7 33
12 58 12 25 0 51 -5 58 -12z m3829 0 c-19 -15 -17 -45 4 -60 10 -6 0 -8 -31
-4 -41 5 -214 22 -300 29 -58 5 -13 14 145 30 207 20 202 20 182 5z m127 -14
c7 -19 -2 -41 -21 -48 -8 -3 -33 2 -56 13 l-42 19 44 20 c46 21 66 20 75 -4z
m-3944 -154 c0 -6 -30 -10 -70 -10 -40 0 -70 4 -70 10 0 6 30 10 70 10 40 0
70 -4 70 -10z m0 -30 c0 -6 -30 -10 -70 -10 -40 0 -70 4 -70 10 0 6 30 10 70
10 40 0 70 -4 70 -10z m-3875 -45 c49 -48 18 -135 -47 -135 -17 0 -27 4 -23
10 3 6 15 10 25 10 48 0 69 76 28 104 -12 9 -29 16 -37 16 -23 0 -61 -41 -61
-67 0 -13 -4 -23 -10 -23 -22 0 -9 53 19 81 36 36 73 37 106 4z m8528 -6 c18
-23 24 -79 7 -79 -5 0 -10 11 -10 25 0 30 -32 65 -60 65 -26 0 -60 -34 -60
-62 0 -27 27 -58 51 -58 10 0 21 -4 24 -10 4 -6 -6 -10 -24 -10 -54 0 -92 80
-58 122 33 42 97 46 130 7z m-4742 12 c-10 -6 -12 -19 -7 -45 5 -27 3 -36 -7
-36 -22 0 -37 22 -37 57 0 31 2 33 33 33 22 0 28 -3 18 -9z m89 -24 c0 -35
-15 -57 -38 -57 -11 0 -13 8 -8 31 3 18 1 38 -5 45 -9 11 -5 14 20 14 28 0 31
-3 31 -33z m-3890 -18 c9 -16 8 -26 -5 -45 -17 -27 -35 -32 -35 -10 0 8 -10
22 -22 30 -18 13 -19 18 -8 31 18 22 57 19 70 -6z m8504 15 c22 -8 20 -27 -4
-42 -11 -7 -20 -19 -20 -27 0 -13 -4 -14 -20 -5 -22 12 -27 49 -8 68 13 13 28
15 52 6z m-8566 -71 c0 -5 -23 -53 -50 -108 -44 -88 -902 -1751 -1027 -1990
-26 -49 -1098 -2123 -2382 -4609 -1283 -2485 -2340 -4521 -2347 -4523 -7 -3
-15 -3 -18 -1 -3 4 5767 11182 5800 11236 8 13 23 9 24 -5z m8596 -5 c8 -13
1165 -2250 2571 -4973 1407 -2722 2603 -5038 2658 -5145 537 -1038 566 -1095
551 -1098 -9 -2 -17 -2 -18 0 -2 1 -1275 2467 -2831 5478 -1555 3011 -2856
5529 -2890 5595 -69 132 -82 165 -66 165 6 0 17 -10 25 -22z m-8488 -356 c-3
-2 -61 4 -130 14 l-125 18 69 130 c64 122 71 131 102 137 41 7 77 26 80 42 1
7 4 -66 5 -162 2 -96 1 -176 -1 -179z m3794 238 c5 0 11 -8 14 -17 7 -23 236
-1489 236 -1510 0 -14 -4 -13 -23 5 -34 33 -110 31 -141 -3 -25 -27 -68 -32
-150 -18 l-38 6 6 306 c11 534 26 1043 32 1129 4 57 11 87 22 99 10 9 18 20
18 25 5 28 7 30 11 6 2 -16 8 -28 13 -28z m-54 18 c-1 -7 -7 -22 -13 -33 -33
-63 -57 -1725 -33 -2395 14 -413 28 -878 35 -1167 6 -245 6 -253 -13 -253 -18
0 -19 15 -26 443 -4 243 -9 465 -11 492 -7 86 -25 706 -30 1040 -5 334 8 1108
25 1568 8 216 14 273 26 293 17 25 44 33 40 12z m-3497 -543 c18 -42 38 -78
43 -81 5 -3 24 8 44 25 30 27 43 31 89 31 l55 0 0 -5280 0 -5280 -225 0 -225
0 0 2040 0 2040 58 2 57 2 -57 3 c-42 3 -58 8 -58 18 0 11 15 15 58 17 l57 2
-57 3 -58 4 0 2664 0 2665 58 2 57 2 -57 3 c-42 3 -58 8 -58 18 0 11 15 15 58
17 l57 2 -57 3 -58 4 0 554 0 555 53 0 c34 0 62 7 82 19 17 11 35 20 40 20 6
1 25 -33 44 -74z m7886 -5 c21 -44 42 -80 46 -80 4 0 12 7 20 16 20 24 65 44
99 44 l30 0 0 -5280 0 -5280 -225 0 -225 0 0 2040 0 2040 55 0 c30 0 55 5 55
10 0 6 -25 10 -55 10 -30 0 -55 5 -55 10 0 6 22 10 49 10 28 0 53 5 56 10 4 6
-15 10 -49 10 l-56 0 2 2658 3 2657 55 6 55 6 -57 1 c-44 2 -58 6 -58 17 0 11
14 15 58 17 l57 2 -57 3 -58 4 0 557 0 558 68 -4 c54 -2 73 1 97 17 17 11 35
20 40 20 6 1 29 -35 50 -79z m-6383 -980 l18 -35 0 30 c1 29 1 29 15 11 31
-41 8 -96 -39 -96 -32 0 -60 33 -54 65 3 14 2 25 -3 25 -12 0 -20 -35 -12 -56
6 -17 5 -17 -10 -5 -23 18 -22 77 1 90 32 20 66 8 84 -29z m2983 24 c28 -11
38 -53 19 -82 -14 -21 -21 -24 -55 -19 -34 4 -38 3 -28 -9 9 -11 7 -14 -15
-14 -26 0 -32 11 -26 50 3 22 14 31 52 40 31 8 32 9 10 15 -18 6 -20 10 -10
16 16 10 31 11 53 3z m1477 -11 c41 -37 9 -98 -49 -91 -32 4 -45 -5 -20 -15 6
-3 0 -6 -15 -6 -18 -1 -29 5 -33 18 -10 34 9 56 65 74 9 3 5 6 -9 6 -20 1 -21
3 -11 16 16 20 49 19 72 -2z m-2910 -33 l18 -35 0 30 c1 29 1 29 15 11 33 -43
12 -86 -41 -86 -38 0 -58 21 -51 55 3 17 0 24 -7 22 -6 -2 -10 -19 -9 -38 l1
-34 -19 24 c-33 40 -5 94 45 89 24 -2 35 -11 48 -38z m3638 10 c41 -41 17 -94
-41 -92 -16 0 -27 -4 -24 -9 4 -5 18 -9 33 -9 25 0 25 -1 9 -17 -41 -42 -112
33 -72 77 10 11 26 20 37 20 10 0 18 5 18 10 0 6 -10 10 -22 10 -22 1 -23 1
-4 15 27 20 42 19 66 -5z m-4432 -13 c6 -5 12 -18 12 -28 0 -11 5 -19 11 -19
7 0 9 9 6 21 -8 31 16 18 28 -15 8 -25 6 -31 -18 -52 -35 -30 -42 -30 -73 1
-19 19 -23 31 -18 51 5 19 4 25 -5 20 -6 -4 -11 -21 -11 -38 0 -26 -2 -29 -15
-18 -28 23 -13 81 25 92 17 6 39 0 58 -15z m1460 7 c28 -20 29 -61 0 -91 -26
-28 -6 -31 22 -3 20 20 20 20 20 1 0 -26 -26 -51 -52 -51 -45 0 -76 58 -46 88
6 6 9 15 5 19 -4 3 -14 -2 -22 -13 -14 -19 -14 -19 -15 2 0 30 26 58 60 63 3
1 16 -6 28 -15z m1460 0 c29 -20 30 -69 2 -86 -11 -7 -20 -16 -20 -20 0 -14
20 -8 40 12 17 17 20 18 20 3 0 -23 -30 -53 -53 -53 -45 0 -70 48 -47 91 14
24 -5 26 -19 2 -9 -16 -10 -16 -11 3 0 30 26 58 60 63 3 1 16 -6 28 -15z
m-3312 -18 c143 -12 265 -26 271 -29 6 -4 13 -16 16 -27 6 -25 20 -25 -278 0
-313 26 -305 25 -305 55 0 30 -27 30 296 1z m1924 -32 c0 -25 -18 -15 -29 17
-6 18 -11 35 -11 38 1 12 40 -42 40 -55z m1447 26 c6 -12 9 -30 5 -38 -4 -12
-8 -8 -15 14 -5 16 -15 35 -21 43 -9 11 -8 13 4 9 8 -2 20 -15 27 -28z m-873
-2 c-3 -13 -8 -24 -9 -26 -1 -1 -60 -7 -131 -12 -71 -5 -176 -14 -233 -20 -57
-6 -105 -10 -106 -8 -2 2 -5 14 -7 28 l-3 25 175 16 c96 9 208 17 248 18 72 1
73 0 66 -21z m411 2 c105 -6 214 -12 244 -13 50 -2 55 -4 62 -29 l7 -28 -56 0
c-32 0 -142 7 -247 15 -104 8 -200 15 -212 15 -19 0 -23 6 -23 31 0 24 4 29
18 25 9 -2 103 -10 207 -16z m1061 4 c-3 -9 -6 -21 -6 -28 0 -10 -43 -14 -167
-19 -93 -4 -223 -10 -289 -13 l-122 -7 5 27 c3 15 12 26 22 27 557 33 565 34
557 13z m-5261 -20 c88 -9 282 -22 430 -29 l270 -12 -210 -2 c-159 -1 -272 5
-463 24 -182 18 -258 22 -272 15 -23 -12 -35 -50 -25 -79 13 -42 35 -44 238
-22 106 11 264 25 352 31 182 11 1194 12 1240 0 17 -4 -226 -8 -540 -8 -578
-1 -746 -8 -1070 -42 -175 -19 -181 -19 -205 -1 -36 26 -48 66 -29 99 19 34
54 51 93 46 17 -2 103 -11 191 -20z m2357 2 c5 -23 2 -25 -46 -30 -28 -3 -130
-10 -226 -16 -96 -6 -210 -13 -252 -16 l-78 -6 0 31 0 31 78 1 c42 0 156 6
252 13 270 20 267 20 272 -8z m381 18 c77 -7 77 -7 77 -36 0 -23 -4 -28 -17
-24 -10 2 -72 8 -139 11 -121 7 -121 7 -116 31 4 22 9 24 62 24 31 0 91 -3
133 -6z m3002 -14 c252 -14 253 -14 253 -46 l0 -27 -72 6 c-39 4 -162 12 -273
19 l-203 12 0 29 0 29 53 -6 c28 -3 138 -10 242 -16z m1246 -9 c44 -44 37
-100 -16 -128 -15 -8 -83 -5 -255 13 -129 13 -308 26 -398 30 -107 5 -160 10
-153 17 13 13 339 -6 594 -34 173 -19 190 -19 212 -5 34 23 35 79 1 101 -21
14 -42 14 -227 -5 -240 -25 -551 -42 -562 -31 -9 9 119 21 233 22 41 0 174 11
295 23 121 13 226 24 233 25 8 1 27 -12 43 -28z m-1560 -20 c-12 -22 -37 -30
-27 -8 3 6 9 20 12 30 4 12 10 15 16 9 6 -6 6 -17 -1 -31z m-2386 17 c1 -2 6
-13 9 -25 7 -22 5 -23 -46 -23 -29 0 -70 3 -90 6 -32 6 -38 10 -38 32 l0 25
81 -6 c45 -4 83 -8 84 -9z m920 -17 c-3 -12 -13 -21 -21 -21 -18 0 -18 9 3 32
20 22 27 17 18 -11z m2201 -15 c-3 -13 -13 -26 -21 -30 -13 -5 -13 -1 0 31 8
19 15 38 16 42 0 3 3 0 6 -7 3 -7 2 -23 -1 -36z m-2930 -14 c-11 -10 -15 4 -8
28 l7 25 3 -23 c2 -13 1 -26 -2 -30z m-3398 12 c36 -15 36 -16 17 -30 -46 -34
-95 -30 -95 9 0 42 18 47 78 21z m272 -3 l165 -17 -155 -13 c-85 -7 -177 -17
-204 -21 -38 -6 -46 -5 -35 4 18 13 21 48 5 58 -16 11 41 9 224 -11z m780 3
c0 -2 -9 -4 -20 -4 -11 0 -20 4 -20 9 0 5 9 7 20 4 11 -3 20 -7 20 -9z m240 6
c60 -6 56 -7 -48 -8 -73 -1 -111 2 -107 8 7 11 58 11 155 0z m5714 2 c-6 -4
-11 -16 -11 -27 0 -11 5 -24 11 -28 6 -5 -14 -6 -44 -3 -30 3 -120 11 -200 18
l-145 13 155 16 c175 18 250 22 234 11z m125 -9 c13 -23 -4 -53 -30 -53 -11 0
-34 7 -51 16 l-32 17 35 18 c43 23 65 24 78 2z m-3201 0 c-21 -2 -57 -2 -80 0
-24 2 -7 4 37 4 44 0 63 -2 43 -4z m1470 0 c-15 -2 -42 -2 -60 0 -18 2 -6 4
27 4 33 0 48 -2 33 -4z m-2418 -33 c0 -6 -194 -9 -527 -8 -291 1 -485 5 -433
8 164 11 960 11 960 0z m205 0 c44 -6 38 -7 -47 -9 -60 0 -98 3 -98 9 0 12 72
12 145 0z m1495 0 c0 -6 -214 -10 -600 -10 -381 1 -600 4 -600 10 0 6 219 10
600 10 386 0 600 -4 600 -10z m1345 0 c33 -4 -225 -8 -572 -8 -411 -1 -633 2
-633 8 0 12 1111 12 1205 0z m-4204 -15 l34 -14 -31 -1 c-17 0 -37 7 -44 15
-16 19 -2 19 41 0z m-721 -12 c1 -5 14 -98 29 -208 16 -110 27 -203 24 -207
-2 -5 -14 -8 -27 -8 -21 0 -23 8 -49 203 -15 111 -27 208 -27 215 0 13 50 18
50 5z m682 -10 c10 -12 25 -87 42 -215 26 -192 27 -198 9 -223 l-18 -24 -296
-1 -295 0 -26 28 c-22 24 -27 46 -52 227 -14 110 -26 206 -26 213 0 9 71 12
323 12 296 0 325 -2 339 -17z m789 10 c0 -5 8 -100 18 -213 18 -201 18 -205
-1 -232 l-19 -28 -282 0 -282 1 -36 32 -36 32 -23 175 c-13 96 -25 190 -28
208 l-4 32 346 0 c190 0 346 -3 347 -7z m73 -35 c3 -24 10 -106 16 -183 6 -77
12 -155 15 -172 3 -30 2 -33 -24 -33 l-28 0 -12 148 c-6 81 -15 177 -18 215
-6 67 -6 67 19 67 23 0 26 -5 32 -42z m336 -198 l0 -240 -110 0 c-101 0 -111
2 -133 24 -13 12 -28 25 -34 27 -9 3 -43 333 -43 413 0 14 18 16 160 16 l160
0 0 -240z m268 223 c5 -10 12 -108 16 -218 8 -252 11 -245 -122 -245 l-89 0
-6 122 c-4 66 -7 174 -7 240 l0 118 100 0 c84 0 101 -3 108 -17z m162 15 c1
-2 15 -109 33 -238 l33 -235 -26 -3 c-19 -2 -37 6 -61 29 l-34 31 -7 197 c-5
108 -6 202 -3 209 3 10 64 19 65 10z m574 -210 c-6 -211 -7 -213 -32 -240
l-26 -28 -193 0 c-106 0 -193 3 -193 8 0 4 -13 104 -30 222 -16 118 -30 223
-30 232 0 17 19 18 256 18 l255 0 -7 -212z m71 10 c-4 -112 -8 -209 -10 -215
-3 -7 -16 -13 -30 -13 l-26 0 6 143 c3 78 8 175 11 215 5 69 7 72 31 72 l24 0
-6 -202z m640 160 c-3 -24 -12 -121 -19 -216 -13 -156 -17 -176 -37 -198 l-22
-24 -248 0 -247 0 -31 29 -32 30 6 148 c3 81 8 176 11 211 l6 62 309 0 309 0
-5 -42z m752 0 c-3 -24 -16 -119 -29 -211 -22 -163 -23 -169 -49 -183 -15 -7
-29 -20 -32 -29 -6 -13 -42 -15 -266 -15 l-259 0 -32 30 -32 30 17 197 c13
159 20 199 33 210 13 9 94 12 336 13 l319 0 -6 -42z m72 20 c0 -13 -13 -108
-28 -213 l-27 -190 -27 -3 c-15 -2 -27 0 -27 5 0 13 49 354 56 390 5 26 11 33
30 33 18 0 24 -5 23 -22z m671 15 c0 -12 -51 -388 -56 -410 -2 -13 -10 -23
-18 -23 -7 0 -21 -9 -31 -20 -17 -19 -31 -20 -295 -20 l-278 0 -16 25 c-16 24
-16 36 9 208 14 100 28 197 31 215 l6 32 324 0 c178 0 324 -3 324 -7z m70 -11
c0 -12 -51 -378 -56 -399 -3 -16 -12 -23 -29 -23 -14 0 -25 4 -25 9 0 17 51
386 55 401 4 14 55 25 55 12z m-4366 -207 c14 -104 26 -194 26 -198 0 -5 -12
-7 -27 -5 -27 3 -27 3 -49 163 -12 88 -25 177 -28 197 -5 32 -3 37 16 40 13 2
26 2 29 -1 4 -4 18 -91 33 -196z m2865 189 c5 -4 -17 -311 -26 -361 -4 -27
-10 -33 -29 -33 -29 0 -29 -8 -9 210 8 91 15 173 15 183 0 14 5 17 23 11 12
-3 24 -8 26 -10z m-1429 -81 c0 -49 3 -139 7 -200 l6 -113 -26 0 c-31 0 -34
13 -41 243 l-6 157 30 0 30 0 0 -87z m-2150 -343 c30 -30 26 -66 -10 -85 -24
-12 -35 -13 -51 -4 -17 9 -20 8 -17 -3 3 -7 20 -15 38 -18 l33 -5 -25 -14
c-33 -17 -62 -8 -77 25 -15 33 0 61 42 79 30 14 31 14 7 15 -24 1 -24 1 -6 15
27 20 42 19 66 -5z m738 4 c29 -20 30 -68 0 -88 -12 -9 -19 -19 -15 -22 4 -4
18 3 32 16 23 21 25 22 25 5 0 -43 -49 -67 -91 -45 -22 12 -27 68 -7 88 7 7 8
12 2 12 -5 0 -15 -5 -22 -12 -9 -9 -12 -7 -12 9 0 21 33 53 55 53 6 0 21 -7
33 -16z m762 -4 c27 -27 25 -56 -6 -85 -32 -30 -17 -33 18 -5 l25 19 -5 -25
c-10 -51 -84 -57 -103 -7 -7 19 -6 31 6 49 16 25 8 33 -13 12 -9 -9 -12 -7
-12 9 0 22 34 53 57 53 7 0 22 -9 33 -20z m658 4 c32 -22 29 -67 -5 -93 -17
-12 -22 -20 -14 -21 8 0 26 10 39 23 l24 22 -7 -25 c-13 -46 -53 -62 -87 -36
-21 15 -24 66 -6 84 7 7 8 12 2 12 -5 0 -15 -5 -22 -12 -9 -9 -12 -7 -12 9 0
21 33 53 55 53 6 0 21 -7 33 -16z m702 -4 c27 -27 25 -56 -6 -85 -15 -14 -21
-25 -14 -25 8 0 25 10 38 23 l24 22 -7 -25 c-9 -31 -32 -50 -61 -50 -39 0 -62
54 -37 89 15 23 5 29 -15 9 -9 -9 -12 -7 -12 9 0 22 34 53 57 53 7 0 22 -9 33
-20z m690 0 c27 -27 25 -56 -6 -85 -33 -31 -17 -33 21 -3 l27 21 -7 -24 c-11
-37 -25 -49 -55 -49 -47 0 -70 46 -44 88 15 23 6 30 -14 10 -9 -9 -12 -7 -12
9 0 22 34 53 57 53 7 0 22 -9 33 -20z m718 -8 c6 -9 12 -22 12 -30 0 -23 -20
-52 -35 -52 -8 0 -15 -4 -15 -10 0 -16 18 -12 40 10 l20 20 0 -25 c0 -25 -25
-45 -56 -45 -42 0 -70 60 -42 88 6 6 8 15 3 19 -4 5 -10 2 -12 -4 -3 -7 -9
-13 -14 -13 -17 0 -9 21 16 46 27 27 59 26 83 -4z m-3479 4 c7 -8 11 -27 9
-43 -3 -27 -4 -26 -20 15 -16 42 -11 55 11 28z m761 -5 c12 -24 13 -54 1 -47
-13 9 -32 66 -21 66 5 0 14 -9 20 -19z m659 5 c7 -8 11 -27 9 -43 -3 -27 -4
-26 -20 15 -16 42 -11 55 11 28z m701 -5 c10 -19 15 -69 5 -60 -2 3 -11 22
-20 42 -16 38 -4 52 15 18z m690 0 c10 -19 15 -69 5 -60 -2 3 -11 22 -20 42
-16 38 -4 52 15 18z m720 -33 c0 -23 -16 -24 -23 0 -2 9 -8 26 -13 37 -7 20
-7 20 14 1 12 -11 22 -27 22 -38z m680 32 c27 -27 25 -46 -6 -77 -32 -32 -26
-40 9 -12 26 20 27 20 27 1 0 -10 -9 -27 -20 -37 -43 -39 -107 15 -82 70 17
36 15 41 -8 20 -18 -16 -20 -16 -20 -2 0 23 36 57 60 57 11 0 29 -9 40 -20z
m50 -9 c5 -11 10 -27 10 -35 0 -28 -16 -17 -27 19 -12 37 -1 48 17 16z m-4411
-41 l10 -30 -295 0 -294 0 0 30 0 30 284 0 284 0 11 -30z m751 16 c0 -8 3 -21
6 -30 6 -14 -24 -16 -291 -16 -267 0 -297 2 -291 16 3 9 6 22 6 30 0 12 46 14
285 14 239 0 285 -2 285 -14z m412 -11 c3 -13 3 -27 0 -30 -3 -3 -58 -5 -123
-5 l-118 0 10 30 11 30 108 0 c107 0 108 0 112 -25z m255 -5 l11 -30 -99 0
-99 0 0 30 0 30 88 0 88 0 11 -30z m243 0 c0 -28 -3 -30 -35 -30 -37 0 -38 2
-29 38 5 16 14 22 35 22 26 0 29 -4 29 -30z m454 8 c3 -13 6 -26 6 -30 0 -5
-88 -8 -195 -8 l-195 0 0 30 0 30 189 0 c187 0 189 0 195 -22z m690 0 c3 -13
6 -26 6 -30 0 -5 -119 -8 -264 -8 l-264 0 11 30 11 30 247 0 247 0 6 -22z
m706 -4 c6 -14 10 -27 10 -30 0 -2 -123 -4 -274 -4 l-274 0 11 30 11 30 253 0
253 0 10 -26z m742 -4 l5 -30 -288 0 c-270 0 -288 1 -283 18 3 9 8 23 10 30 3
9 67 12 278 12 l274 0 4 -30z m-4854 -35 c-6 -14 -17 -25 -25 -25 -11 0 -11 6
3 29 21 35 38 31 22 -4z m633 -38 c25 -30 28 -47 51 -282 18 -180 22 -256 15
-272 l-10 -23 -299 0 c-278 0 -299 1 -317 19 -10 10 -24 20 -30 22 -7 3 -21
102 -38 266 l-26 262 24 20 c23 19 38 20 314 21 l290 0 26 -33z m751 9 c15
-20 21 -70 33 -280 15 -237 15 -257 -1 -280 l-16 -26 -277 0 -277 0 -26 30
c-25 29 -27 41 -53 291 -20 200 -23 264 -14 275 9 11 66 14 313 14 l301 -1 17
-23z m390 -191 c4 -115 8 -252 10 -302 l4 -93 -121 0 -122 0 -16 33 c-22 44
-46 522 -28 555 12 22 17 22 139 20 l127 -3 7 -210z m270 193 c12 -18 17 -79
23 -275 l7 -251 -23 -31 c-22 -31 -24 -31 -110 -31 l-87 0 -6 133 c-3 72 -9
210 -12 305 l-7 172 101 0 c92 0 101 -2 114 -22z m228 14 c0 -4 18 -136 40
-293 22 -156 40 -290 40 -296 0 -9 -22 -13 -78 -13 -119 0 -114 -13 -123 298
-8 306 -7 312 73 312 26 0 48 -4 48 -8z m466 -9 c10 -14 11 -73 7 -278 l-6
-260 -28 -27 c-27 -28 -29 -28 -158 -28 -72 0 -131 1 -132 3 -8 35 -84 599
-80 602 2 3 90 5 194 5 169 0 191 -2 203 -17z m689 -2 c3 -10 -1 -133 -10
-272 -12 -196 -20 -261 -33 -286 l-17 -33 -241 0 -242 0 -31 29 -31 29 6 249
c7 231 8 250 28 275 l21 27 272 0 c258 1 272 0 278 -18z m709 0 c17 -19 17
-32 -9 -283 -17 -172 -32 -271 -41 -286 l-15 -22 -276 2 -277 3 -15 26 c-13
24 -13 57 -2 270 13 240 13 244 40 276 l26 32 276 0 c261 1 277 0 293 -18z
m741 -7 c15 -24 15 -37 -4 -222 -12 -108 -24 -224 -27 -256 -5 -47 -12 -64
-33 -82 -26 -23 -27 -23 -307 -24 -341 0 -320 -9 -310 132 17 230 43 424 61
451 l17 27 293 0 293 0 17 -26z m-4915 -16 c0 -2 11 -106 25 -233 32 -295 32
-295 0 -295 -14 0 -25 2 -25 4 0 2 -11 111 -25 242 -30 286 -29 271 -7 277 23
6 32 7 32 5z m787 -214 c12 -109 22 -220 22 -245 1 -42 -1 -47 -24 -51 -17 -4
-25 -1 -25 9 0 22 -39 404 -46 445 -4 30 -2 37 13 41 10 2 23 4 28 2 6 -1 20
-91 32 -201z m738 -45 c8 -134 15 -247 15 -251 0 -4 -12 -5 -27 -4 l-28 3 -12
194 c-17 295 -17 297 10 301 12 2 23 3 24 3 1 -1 9 -111 18 -246z m1332 237
c0 -1 -2 -111 -5 -246 l-7 -245 -29 -3 -29 -4 6 129 c4 70 7 185 7 256 l0 127
28 -6 c15 -4 28 -7 29 -8z m680 0 c2 -1 -1 -63 -7 -137 -5 -74 -12 -182 -15
-241 -7 -106 -7 -108 -31 -108 -29 0 -29 0 -12 293 l12 208 25 -6 c14 -4 27
-8 28 -9z m718 -45 c-6 -49 -45 -430 -45 -443 0 -4 -11 -8 -25 -8 -31 0 -31
-2 -5 263 26 255 23 245 56 239 24 -4 25 -7 19 -51z m-2085 -34 c0 -46 3 -158
7 -249 l6 -166 -26 5 c-23 5 -26 11 -31 57 -3 28 -7 138 -9 244 l-3 192 28 0
28 0 0 -83z m2827 46 c-3 -21 -16 -135 -28 -253 -11 -118 -22 -216 -24 -218
-2 -2 -14 -2 -27 0 l-24 3 23 240 c13 132 26 246 28 253 2 6 16 12 31 12 25 0
26 -2 21 -37z m-4151 -498 c29 -44 -9 -94 -63 -80 -16 4 -22 2 -18 -5 3 -5 17
-10 31 -10 32 0 31 -18 -3 -26 -32 -8 -55 5 -67 39 -12 32 15 67 51 67 12 0
23 5 23 10 0 6 -9 10 -21 10 -11 0 -17 5 -14 10 12 20 64 11 81 -15z m712 -8
c12 -24 11 -32 -3 -54 -14 -20 -23 -24 -51 -21 -42 5 -45 -10 -3 -19 36 -7 20
-23 -23 -23 -69 0 -59 108 11 111 24 2 24 2 4 6 -44 8 -21 34 27 30 16 -1 29
-12 38 -30z m633 12 c6 -12 9 -32 6 -45 -5 -28 1 -30 19 -6 12 15 13 14 14
-13 0 -38 -16 -55 -52 -55 -19 0 -33 8 -45 26 -16 25 -16 28 0 55 16 30 11 39
-11 17 -7 -7 -12 -20 -12 -31 0 -10 -4 -15 -10 -12 -13 8 -13 41 0 66 15 27
75 26 91 -2z m649 1 c11 -11 20 -27 20 -36 0 -24 -19 -54 -35 -54 -8 0 -15 -4
-15 -10 0 -15 15 -12 42 10 l25 19 -5 -25 c-9 -50 -82 -57 -104 -9 -9 19 -7
29 6 50 17 26 9 34 -12 13 -19 -19 -15 22 5 44 21 24 48 23 73 -2z m684 -2
c21 -30 20 -43 -6 -68 -18 -17 -31 -20 -56 -15 -23 4 -32 3 -27 -4 3 -6 20
-11 37 -11 26 0 29 -2 18 -15 -27 -33 -90 -2 -90 44 0 23 31 51 57 51 12 0 23
5 23 10 0 6 -9 10 -21 10 -11 0 -17 5 -14 10 12 19 63 11 79 -12z m-3462 -11
c15 -24 8 -66 -14 -81 -12 -9 -19 -19 -15 -22 4 -4 18 3 32 16 23 21 25 22 25
5 0 -25 -29 -55 -53 -55 -45 0 -70 48 -47 91 12 21 1 26 -18 7 -9 -9 -12 -8
-12 5 0 30 39 60 68 52 15 -4 30 -12 34 -18z m2828 4 c12 -24 13 -54 1 -47
-13 9 -32 66 -21 66 5 0 14 -9 20 -19z m1336 -6 c29 -44 -9 -94 -62 -81 -14 4
-24 2 -24 -4 0 -5 16 -10 36 -10 31 0 35 -2 24 -15 -15 -18 -61 -20 -78 -3
-27 27 -2 98 35 98 7 0 13 5 13 11 0 6 -9 8 -22 3 -20 -6 -21 -5 -9 10 21 25
68 20 87 -9z m-4106 -36 c0 -4 -4 -10 -9 -13 -8 -5 -32 45 -31 63 1 9 40 -40
40 -50z m4809 37 c23 -28 21 -57 -6 -82 -14 -13 -20 -24 -13 -24 7 0 22 7 32
17 17 15 18 15 18 -3 0 -11 -5 -25 -12 -32 -17 -17 -64 -15 -82 4 -18 17 -21
60 -6 69 6 3 10 11 10 17 0 6 -6 6 -15 -2 -23 -19 -30 -4 -11 25 19 28 66 34
85 11z m61 -42 c0 -25 -18 -15 -29 17 -6 18 -11 35 -11 38 1 12 40 -42 40 -55z
m-4282 -9 l-2 -25 -292 0 -291 0 5 25 4 25 289 0 289 0 -2 -25z m172 1 c0 -23
-27 -62 -37 -53 -3 4 29 76 35 77 1 0 2 -11 2 -24z m536 8 c-3 -9 -6 -20 -6
-25 0 -5 -107 -9 -255 -9 l-255 0 0 25 0 25 261 0 c234 0 261 -2 255 -16z
m414 -9 l0 -25 -109 0 c-108 0 -109 0 -113 25 l-5 25 113 0 114 0 0 -25z m240
0 c0 -25 -1 -25 -90 -25 -89 0 -90 0 -90 25 0 25 1 25 90 25 89 0 90 0 90 -25z
m330 0 c0 -24 -2 -25 -75 -25 -73 0 -75 1 -75 25 0 24 2 25 75 25 73 0 75 -1
75 -25z m334 9 c3 -9 6 -20 6 -25 0 -5 -59 -9 -134 -9 -137 0 -146 3 -146 41
0 5 59 9 134 9 113 0 135 -2 140 -16z m650 -6 c-3 -13 -8 -24 -9 -26 -1 -1
-108 -1 -237 0 l-235 3 8 23 c8 22 9 22 244 22 l236 0 -7 -22z m160 -39 c-25
-28 -28 -17 -7 26 16 33 18 35 21 16 2 -13 -4 -31 -14 -42z m552 45 c-3 -9 -6
-20 -6 -25 0 -5 -108 -9 -257 -9 l-258 0 0 25 0 25 264 0 c236 0 263 -2 257
-16z m159 -40 c-22 -34 -27 -26 -13 19 9 30 13 35 21 22 6 -11 3 -24 -8 -41z
m567 31 l5 -25 -273 0 -274 0 0 25 0 25 269 0 269 0 4 -25z m-3232 -3 c0 -22
-26 -59 -35 -50 -6 6 24 68 32 68 2 0 3 -8 3 -18z m530 -42 c33 -33 33 -35 -3
-21 -13 5 -27 19 -30 30 -7 28 -3 27 33 -9z m-1382 -20 c22 -18 24 -30 39
-263 l15 -243 -32 -32 -32 -32 -287 0 c-266 0 -289 1 -304 18 -14 15 -20 63
-32 243 -18 278 -18 279 -10 307 l7 22 307 0 c286 -1 307 -2 329 -20z m705 -2
l34 -23 6 -134 c4 -74 7 -187 7 -251 l0 -116 -30 -22 c-28 -21 -37 -22 -282
-22 -230 1 -255 2 -275 19 -26 22 -28 37 -44 329 -11 204 -11 213 7 227 15 12
70 14 281 15 255 0 263 -1 296 -22z m388 -40 c1 -35 4 -168 8 -296 l6 -232
-116 0 c-98 0 -118 3 -131 18 -13 14 -18 66 -26 277 -8 227 -7 262 6 278 13
14 33 17 134 17 l118 0 1 -62z m262 40 c21 -22 22 -29 25 -281 2 -189 0 -262
-9 -273 -8 -10 -36 -14 -104 -14 l-93 0 -6 198 c-3 108 -8 241 -11 295 l-4 97
89 0 c80 0 93 -3 113 -22z m351 -240 c21 -145 41 -278 43 -295 l6 -33 -129 0
c-118 0 -130 2 -142 20 -8 13 -14 102 -19 280 -7 309 -16 289 118 290 l85 0
38 -262z m316 247 c9 -11 11 -80 8 -274 -4 -317 2 -303 -127 -299 l-85 3 -37
255 c-21 140 -40 272 -43 293 l-6 37 139 0 c110 0 141 -3 151 -15z m651 -4
c19 -18 20 -26 12 -274 -8 -229 -11 -258 -27 -276 -18 -20 -29 -21 -261 -21
-207 0 -244 2 -249 15 -3 8 -13 15 -22 15 -15 0 -16 21 -12 258 4 195 8 263
19 280 14 22 16 22 267 22 233 0 254 -1 273 -19z m698 -2 c11 -18 11 -64 0
-272 -17 -328 15 -297 -307 -297 -236 0 -244 1 -273 23 l-31 22 6 205 c9 285
13 315 39 328 14 7 124 11 287 11 260 1 265 1 279 -20z m739 -9 c11 -24 10
-71 -4 -276 -14 -214 -19 -249 -35 -265 -18 -18 -38 -19 -304 -19 -269 0 -287
1 -307 19 l-21 20 17 257 c9 142 18 258 19 258 1 1 16 8 32 18 26 14 69 16
310 17 l280 1 13 -30z m-4018 -2 c0 -2 7 -102 15 -223 8 -121 15 -237 15 -257
0 -36 -1 -37 -25 -26 -16 7 -26 21 -29 42 -10 65 -27 446 -21 456 5 8 45 15
45 8z m723 -150 c4 -83 7 -200 7 -260 l0 -108 -25 0 c-24 0 -25 2 -26 73 0 39
-4 153 -8 252 -8 184 -6 195 30 195 14 0 17 -22 22 -152z m636 -133 l1 -230
-23 -1 c-24 -2 -24 -1 -30 149 -4 82 -7 196 -7 253 0 99 1 103 23 106 32 4 34
-15 36 -277z m1306 68 c-8 -289 -10 -303 -41 -303 -23 0 -24 2 -23 68 0 37 4
150 8 250 6 142 11 186 22 193 39 24 40 17 34 -208z m-655 17 c0 -102 -3 -215
-7 -252 -5 -63 -8 -68 -29 -68 l-24 0 0 158 c0 86 3 200 6 253 7 94 8 97 30
95 l24 -1 0 -185z m-2766 108 c10 -112 26 -349 26 -385 0 -29 -3 -33 -25 -33
-14 0 -25 1 -25 3 -3 19 -30 421 -30 444 0 29 6 35 41 42 4 0 10 -32 13 -71z
m4113 -25 c-4 -54 -9 -156 -12 -228 -8 -169 -9 -175 -40 -175 -29 0 -28 -16
-15 195 18 305 18 305 47 305 l26 0 -6 -97z m743 70 c0 -10 -7 -108 -15 -218
-8 -110 -15 -212 -15 -227 0 -23 -4 -28 -25 -28 -24 0 -25 3 -25 56 0 63 17
327 26 392 4 36 8 42 30 42 16 0 24 -6 24 -17z m-4822 -489 c50 -35 13 -112
-49 -99 -22 5 -29 4 -25 -4 4 -6 22 -11 39 -11 30 -1 31 -1 13 -15 -26 -19
-45 -19 -68 2 -36 33 -17 92 31 96 28 2 27 15 -1 20 -23 4 -23 4 2 15 33 14
32 14 58 -4z m754 -24 l17 -35 1 30 c1 29 1 29 15 11 8 -11 15 -30 15 -42 0
-24 -33 -54 -59 -54 -25 0 -51 32 -51 64 0 35 -16 25 -22 -14 l-4 -25 -14 27
c-11 24 -11 31 4 53 14 21 24 26 49 23 25 -2 36 -10 49 -38z m1342 14 c20 -20
21 -68 1 -84 -9 -8 -29 -10 -50 -7 -19 3 -35 2 -35 -3 0 -10 25 -20 53 -20 18
0 19 -2 7 -10 -8 -5 -26 -10 -40 -10 -71 0 -66 96 5 113 17 4 17 5 -4 6 -20 1
-21 3 -11 16 16 20 54 19 74 -1z m-656 -6 c19 -19 14 -59 -10 -85 -26 -28 -6
-31 22 -3 17 17 20 18 20 3 0 -42 -68 -71 -98 -41 -15 15 -15 61 0 76 6 6 8
15 4 19 -4 5 -14 -1 -22 -11 -14 -19 -14 -19 -14 1 0 44 67 72 98 41z m41 -2
c7 -8 11 -27 9 -43 -3 -27 -4 -26 -20 15 -16 42 -11 55 11 28z m1251 -5 c17
-32 12 -58 -16 -80 -15 -12 -21 -21 -13 -21 7 0 24 10 37 23 l24 22 -7 -25
c-11 -38 -25 -50 -55 -50 -47 0 -70 46 -44 88 8 12 10 22 5 22 -6 0 -15 -8
-20 -17 -9 -16 -10 -15 -11 8 0 34 17 49 57 49 22 0 36 -6 43 -19z m50 -39 c0
-31 -5 -27 -26 24 l-16 39 21 -19 c11 -11 21 -30 21 -44z m598 46 c21 -21 14
-65 -14 -87 -19 -15 -22 -21 -11 -21 9 0 25 10 37 22 l20 22 0 -21 c0 -44 -67
-72 -98 -41 -15 15 -16 53 -2 79 14 24 -5 26 -19 2 -10 -17 -10 -17 -11 0 0
36 19 57 53 57 18 0 38 -5 45 -12z m48 -24 c11 -43 -2 -47 -18 -6 -13 33 -13
40 -2 35 8 -3 17 -16 20 -29z m618 20 c23 -23 19 -52 -10 -79 -15 -14 -21 -25
-14 -25 7 0 22 7 32 17 24 21 30 14 15 -17 -16 -31 -61 -38 -88 -14 -23 21
-24 42 -3 72 16 23 6 30 -14 10 -9 -9 -12 -8 -12 8 0 11 5 25 12 32 17 17 64
15 82 -4z m54 -45 c-4 -22 -6 -20 -21 15 -22 50 -21 55 4 30 13 -13 19 -30 17
-45z m690 49 c21 -21 15 -74 -10 -91 -19 -13 -20 -16 -6 -16 9 -1 24 9 32 21
15 22 16 22 16 2 0 -36 -23 -56 -60 -52 -28 2 -37 9 -44 31 -7 20 -7 34 3 48
16 27 5 38 -14 13 -14 -19 -14 -19 -15 0 0 44 67 75 98 44z m48 -12 c12 -19
13 -29 5 -43 -8 -14 -10 -15 -11 -3 0 8 -7 27 -14 43 -18 34 -2 36 20 3z
m-4206 -25 c0 -5 3 -16 6 -25 6 -14 -24 -16 -285 -16 l-291 0 0 25 0 25 285 0
c166 0 285 -4 285 -9z m694 -7 c3 -9 6 -20 6 -25 0 -5 -109 -9 -260 -9 -151 0
-260 4 -260 9 0 41 2 41 260 41 217 0 249 -2 254 -16z m416 -9 l0 -25 -119 0
-118 0 5 25 c4 25 5 25 118 25 l114 0 0 -25z m226 9 c-3 -9 -6 -20 -6 -25 0
-5 -36 -9 -80 -9 -79 0 -80 0 -80 25 0 25 1 25 86 25 74 0 85 -2 80 -16z m424
-9 l0 -25 -120 0 -120 0 0 25 0 25 120 0 120 0 0 -25z m222 0 c5 -25 5 -25
-72 -25 -62 0 -79 3 -84 16 -12 31 -5 34 73 34 76 0 79 -1 83 -25z m648 16 c0
-5 3 -16 6 -25 6 -14 -19 -16 -236 -16 -217 0 -242 2 -236 16 3 9 6 20 6 25 0
5 97 9 230 9 133 0 230 -4 230 -9z m672 -16 l5 -25 -247 0 -247 0 5 25 4 25
238 0 238 0 4 -25z m748 0 l0 -25 -285 0 c-166 0 -285 4 -285 9 0 41 0 41 291
41 l279 0 0 -25z m-4644 -40 c-27 -41 -38 -28 -14 15 15 25 24 34 26 24 2 -8
-4 -26 -12 -39z m2095 2 c-6 -15 -15 -27 -21 -27 -14 0 -13 6 7 43 18 36 29
24 14 -16z m-1415 -13 c13 -3 21 -10 18 -15 -9 -15 -30 -10 -55 12 -19 16 -20
19 -6 15 11 -3 30 -9 43 -12z m-48 -17 c20 -21 21 -36 28 -294 l7 -271 -31
-31 -30 -31 -301 0 -301 0 -4 23 c-3 12 -7 150 -11 306 -5 258 -4 285 11 302
16 18 37 19 314 19 295 0 297 0 318 -23z m695 -11 l27 -35 0 -268 -1 -268 -35
-22 c-34 -22 -43 -23 -277 -23 -235 1 -243 1 -269 23 l-26 22 -2 295 c-1 162
-1 298 -1 303 1 4 126 7 279 7 l277 0 28 -34z m377 -81 c0 -101 -2 -116 -17
-121 -56 -18 -77 -30 -112 -66 -88 -88 -92 -234 -8 -325 l20 -23 -60 0 c-36 0
-65 5 -71 13 -8 9 -19 530 -13 620 1 15 14 17 131 17 l130 0 0 -115z m245 90
c25 -26 25 -27 25 -198 l-1 -172 -19 36 c-27 51 -92 104 -145 119 l-45 13 0
113 0 114 80 0 c71 0 82 -2 105 -25z m459 -287 c27 -172 51 -319 53 -326 4
-10 -36 -12 -193 -10 l-199 3 -3 299 c-3 371 -16 343 168 345 l125 1 49 -312z
m192 295 c10 -14 13 -81 14 -296 0 -270 -1 -279 -22 -307 -13 -17 -31 -30 -44
-30 -18 0 -23 8 -28 43 -4 23 -25 157 -47 297 -22 140 -42 267 -45 283 l-6 27
83 0 c66 0 84 -3 95 -17z m654 -2 c6 -12 10 -126 10 -303 -1 -262 -2 -285 -19
-305 -19 -23 -23 -23 -255 -23 -201 0 -236 2 -236 15 0 8 -11 22 -25 31 l-25
16 0 274 c0 163 4 274 9 274 5 0 13 9 16 20 6 19 15 20 260 20 241 0 255 -1
265 -19z m670 -8 c10 -22 13 -92 11 -308 -2 -238 -5 -283 -18 -297 -15 -16
-41 -18 -263 -18 -212 0 -249 2 -254 15 -3 8 -17 20 -31 25 l-26 10 3 268 c3
246 5 270 23 299 l20 33 261 0 261 0 13 -27z m740 7 c7 -13 8 -105 2 -293 -8
-265 -9 -274 -32 -305 l-24 -32 -273 0 c-179 0 -273 4 -273 10 0 6 -12 16 -26
22 l-26 12 7 276 c6 225 10 280 23 303 l16 27 298 0 c285 0 298 -1 308 -20z
m-3931 -442 l1 -147 -30 10 -30 11 0 264 c0 145 0 267 -1 272 0 4 10 9 23 12
23 6 23 6 29 -135 4 -77 7 -206 8 -287z m-765 330 c3 -51 8 -178 11 -281 l6
-188 -28 7 c-15 4 -29 7 -29 8 -1 1 -4 124 -8 274 l-7 272 25 0 c23 0 24 -3
30 -92z m2076 -198 l0 -290 -25 0 -25 0 0 284 c0 302 -2 288 43 295 4 0 7
-129 7 -289z m-620 0 l0 -280 -25 0 -25 0 0 253 c0 138 -3 262 -6 274 -6 21
-4 22 49 32 4 0 7 -125 7 -279z m1910 -1 l0 -269 -30 0 -30 0 0 223 c0 122 3
245 6 273 6 47 8 50 30 46 l24 -4 0 -269z m1404 82 c-2 -102 -7 -223 -10 -268
-6 -81 -7 -83 -31 -83 l-25 0 6 248 c8 298 9 301 41 294 l25 -4 -6 -187z
m-2054 -76 l0 -265 -25 0 -25 0 0 265 0 265 25 0 25 0 0 -265z m1326 228 c-3
-21 -6 -145 -6 -275 l0 -238 -32 0 -31 0 6 197 c4 108 7 231 7 275 l0 78 31 0
c31 0 31 -1 25 -37z m-2253 -258 l3 -100 2 103 c2 95 3 102 22 102 55 0 138
-68 167 -137 30 -73 5 -184 -53 -238 -26 -24 -32 -25 -154 -25 -146 0 -162 7
-199 83 -39 80 -23 187 37 250 27 28 91 67 112 67 6 0 10 -37 10 -100 0 -60 4
-100 10 -100 6 0 10 39 10 98 0 54 3 102 7 106 15 15 22 -15 26 -109z m213
-281 c-3 -8 -19 -14 -36 -14 l-30 0 30 42 c16 22 31 48 32 57 1 9 3 -4 5 -28
3 -24 2 -50 -1 -57z m712 20 c30 -21 28 -59 -4 -89 -15 -14 -21 -25 -14 -25 8
0 25 10 38 23 l24 22 -7 -25 c-11 -38 -25 -50 -55 -50 -47 0 -70 46 -44 88 15
23 6 30 -14 10 -9 -9 -12 -7 -12 9 0 21 33 53 55 53 6 0 21 -7 33 -16z m-2711
-6 c21 -27 21 -48 1 -73 -18 -23 -26 -26 -55 -20 -24 4 -33 3 -28 -4 3 -6 20
-11 37 -11 26 0 29 -2 18 -15 -31 -38 -94 -1 -88 52 2 22 10 30 36 38 33 10
44 25 16 25 -8 0 -12 5 -9 10 9 14 61 12 72 -2z m755 -5 c10 -9 18 -25 18 -35
0 -11 4 -17 9 -14 5 3 7 16 3 29 -5 20 -4 21 11 8 24 -19 22 -77 -2 -91 -47
-25 -98 7 -89 55 3 14 1 25 -3 25 -9 0 -13 -21 -9 -55 2 -16 0 -17 -14 -6 -9
7 -16 26 -16 42 0 52 53 77 92 42z m2008 -2 c10 -19 15 -69 5 -60 -2 3 -11 22
-20 42 -16 38 -4 52 15 18z m1990 -1 c27 -27 25 -54 -5 -78 -14 -11 -25 -23
-25 -26 0 -12 21 -5 40 14 20 20 20 20 20 1 0 -50 -68 -69 -96 -26 -16 24 -15
34 1 80 6 19 6 19 -8 3 -20 -25 -30 -22 -22 5 15 47 61 61 95 27z m-3332 -6
c29 -20 30 -69 2 -86 -11 -7 -20 -16 -20 -20 0 -15 19 -8 40 14 18 20 20 20
20 3 0 -44 -68 -73 -98 -43 -15 15 -16 53 -2 79 14 24 -5 26 -19 2 -9 -16 -10
-16 -11 3 0 30 26 58 60 63 3 1 16 -6 28 -15z m1946 0 c23 -22 20 -60 -6 -84
-18 -16 -19 -20 -5 -20 9 0 23 10 31 22 12 17 16 19 16 6 0 -51 -46 -79 -86
-53 -26 17 -33 62 -12 83 6 6 8 15 4 19 -4 5 -14 -1 -22 -11 -14 -19 -14 -19
-14 1 0 28 26 53 55 53 13 0 31 -7 39 -16z m52 -20 c11 -43 -2 -47 -18 -6 -13
33 -13 40 -2 35 8 -3 17 -16 20 -29z m622 8 c19 -25 14 -51 -14 -77 -15 -14
-21 -25 -14 -25 7 0 22 7 32 17 17 15 18 15 18 -3 0 -49 -68 -61 -97 -18 -16
25 -16 28 0 55 16 30 11 39 -11 17 -9 -9 -12 -7 -12 9 0 47 67 64 98 25z m762
9 c5 -11 10 -27 10 -35 0 -28 -16 -17 -27 19 -12 37 -1 48 17 16z m-3331 -5
c7 -8 11 -27 9 -43 -3 -27 -4 -26 -20 15 -16 42 -11 55 11 28z m609 -2 c52
-36 9 -113 -54 -98 -16 4 -26 3 -22 -1 4 -4 22 -11 40 -15 l33 -7 -27 -13
c-62 -29 -111 58 -53 96 13 8 29 13 35 9 5 -3 10 -1 10 4 0 6 -10 11 -22 11
-22 1 -23 1 -4 15 25 19 36 19 64 -1z m2012 -43 c0 -31 -13 -18 -29 28 -11 34
-11 34 9 16 11 -10 20 -30 20 -44z m-4066 -42 c-29 -32 -36 -21 -12 21 19 33
24 36 26 19 2 -11 -4 -29 -14 -40z m620 45 c3 -9 6 -20 6 -25 0 -5 -124 -9
-300 -9 l-300 0 0 25 0 25 294 0 c259 0 295 -2 300 -16z m670 0 c3 -9 6 -20 6
-25 0 -5 -104 -9 -249 -9 l-248 0 5 25 4 25 238 0 c208 0 239 -2 244 -16z
m362 0 c21 -9 63 -16 94 -16 31 0 73 7 94 16 37 15 106 22 106 10 0 -3 -5 -14
-10 -25 -10 -18 -24 -19 -239 -19 l-228 0 5 25 c4 24 8 25 72 25 39 0 84 -7
106 -16z m154 6 c-33 -11 -100 -11 -125 0 -13 6 9 8 65 8 57 0 77 -3 60 -8z
m660 1 c0 -5 3 -16 6 -25 5 -14 -14 -16 -175 -16 -103 0 -181 4 -181 9 0 5 -3
16 -6 25 -5 14 14 16 175 16 103 0 181 -4 181 -9z m121 -18 c7 -21 5 -23 -21
-23 -26 0 -30 4 -30 26 0 20 4 25 21 22 12 -2 26 -13 30 -25z m647 2 l12 -25
-250 0 c-138 0 -250 3 -250 6 0 3 5 14 10 25 10 18 24 19 239 19 l228 0 11
-25z m664 0 l5 -25 -249 0 c-224 0 -250 2 -244 16 3 9 6 20 6 25 0 5 100 9
239 9 l239 0 4 -25z m718 16 c0 -5 3 -16 6 -25 6 -14 -22 -16 -270 -16 l-276
0 2 25 2 25 268 0 c156 0 268 -4 268 -9z m-2514 -55 c-3 -14 -16 -30 -27 -37
-21 -11 -21 -10 2 30 24 44 35 47 25 7z m-1380 -27 c3 -5 -2 -9 -11 -9 -21 0
-55 18 -55 30 0 11 57 -8 66 -21z m-71 1 c16 -18 17 -38 9 -308 l-9 -289 -30
-26 -30 -26 -277 -1 -277 0 -21 29 c-20 29 -20 36 -14 335 l7 306 312 0 c297
0 313 -1 330 -20z m677 -12 l31 -33 -6 -279 c-7 -269 -8 -280 -29 -303 -21
-23 -22 -23 -283 -23 -216 0 -264 3 -282 15 -21 15 -21 16 -16 318 5 251 8
305 21 320 14 15 40 17 275 17 l259 0 30 -32z m598 23 c0 -4 12 -20 26 -34
l26 -26 -4 -268 -3 -268 -33 -32 -34 -33 -223 0 c-212 0 -225 1 -235 19 -11
22 -13 271 -3 499 l6 152 239 0 c131 0 238 -4 238 -9z m554 -8 c3 -10 23 -123
46 -251 22 -129 47 -265 55 -303 8 -37 12 -75 9 -84 -5 -13 -40 -15 -248 -15
l-242 0 -24 32 -23 31 7 273 6 273 28 29 27 30 177 1 c160 1 177 -1 182 -16z
m137 -63 c7 -88 11 -355 5 -349 -4 4 -76 404 -76 422 0 5 15 7 33 5 l32 -3 6
-75z m637 63 c5 -10 12 -148 15 -307 l5 -290 -28 -28 -28 -28 -229 0 c-204 0
-230 2 -251 18 -24 18 -24 19 -29 320 -5 236 -3 305 7 317 11 13 51 15 271 15
236 0 259 -2 267 -17z m670 -10 c15 -41 25 -612 11 -629 -9 -11 -63 -14 -268
-14 l-257 0 -26 28 -25 27 -6 279 c-6 277 -6 279 16 307 l22 28 261 0 262 1
10 -27z m720 15 c6 -8 11 -127 13 -310 l4 -297 -24 -25 -24 -26 -267 0 -267 0
-23 25 c-23 24 -23 31 -32 305 l-9 281 23 29 23 29 286 0 c218 1 289 -2 297
-11z m-4658 -303 l0 -295 -32 0 -31 0 6 152 c4 83 7 213 7 289 0 135 0 138 23
142 12 2 23 5 25 6 1 0 2 -132 2 -294z m2704 183 c8 -126 8 -498 -1 -498 -42
1 -51 69 -52 396 l-1 201 24 -4 c22 -5 24 -10 30 -95z m-1958 -171 c-8 -302
-11 -331 -32 -323 -9 3 -19 6 -24 6 -7 0 -3 540 5 565 1 6 15 11 30 12 l27 1
-6 -261z m2604 64 c0 -102 3 -230 7 -283 l6 -98 -31 0 -32 0 0 168 c0 93 -3
223 -6 289 l-7 120 32 -5 31 -4 0 -187z m1390 -40 c0 -130 3 -260 6 -288 l7
-53 -32 0 -31 0 0 289 0 289 25 0 25 0 0 -237z m-3300 87 c0 -79 -3 -207 -7
-285 -6 -141 -6 -143 -30 -143 l-23 0 0 158 c0 88 3 213 7 280 6 122 7 125 46
131 4 0 7 -63 7 -141z m2576 128 c1 -1 4 -125 7 -276 l7 -276 -24 -2 c-23 -2
-25 2 -30 61 -3 34 -8 162 -11 285 l-5 222 27 -6 c16 -4 28 -7 29 -8z m-1957
-270 c-2 -151 -6 -277 -9 -280 -3 -3 -16 -3 -28 1 -21 5 -22 10 -22 113 0 59
3 182 7 273 l6 167 25 0 24 0 -3 -274z m-2054 -311 c30 -30 31 -35 4 -70 -19
-23 -27 -26 -58 -20 -26 4 -32 3 -21 -4 8 -6 26 -11 39 -11 20 0 21 -2 11 -15
-28 -34 -90 -2 -90 46 0 29 1 31 65 55 17 7 16 8 -10 12 l-30 4 25 14 c34 18
37 18 65 -11z m1427 -2 c22 -20 24 -66 3 -83 -9 -8 -29 -10 -50 -7 -41 7 -48
-10 -7 -19 15 -3 31 -7 36 -8 4 -1 -3 -7 -16 -13 -19 -8 -31 -8 -49 1 -47 23
-29 104 25 107 19 2 19 2 -2 6 -19 4 -21 7 -11 19 15 19 48 18 71 -3z m608 -3
c23 -23 19 -58 -11 -83 -32 -26 -17 -31 15 -6 l28 22 -4 -24 c-1 -13 -15 -30
-29 -38 -24 -13 -29 -13 -54 3 -28 18 -30 41 -10 91 8 20 8 20 -13 1 -27 -23
-31 -3 -6 32 19 27 57 29 84 2z m2012 3 c41 -37 9 -98 -49 -91 -42 5 -43 -9 0
-20 31 -8 32 -9 10 -21 -40 -21 -88 21 -77 66 5 19 26 34 64 46 9 3 5 6 -9 6
-20 1 -21 3 -11 16 16 20 49 19 72 -2z m-3330 -10 c9 -10 18 -25 21 -33 3 -9
6 -6 6 9 1 20 3 21 16 11 24 -20 19 -67 -10 -86 -42 -27 -94 9 -82 57 3 10 1
22 -4 25 -9 5 -14 -16 -10 -50 1 -16 -1 -17 -14 -6 -18 15 -20 61 -3 78 18 18
63 15 80 -5z m1369 -10 c5 -15 6 -30 1 -35 -5 -5 -13 7 -19 27 -13 41 2 48 18
8z m617 15 c7 -7 12 -20 12 -30 0 -10 5 -18 11 -18 6 0 9 9 6 20 -3 11 -1 20
4 20 15 0 31 -41 25 -66 -6 -24 -50 -53 -62 -41 -4 3 -12 33 -19 66 -13 62 -6
78 23 49z m645 -9 c18 -25 11 -58 -17 -81 -18 -15 -18 -18 -4 -18 9 0 24 10
32 22 l16 22 0 -26 c0 -34 -21 -50 -62 -46 -39 4 -61 45 -40 78 18 29 15 35
-8 15 -19 -17 -20 -17 -20 0 0 50 75 75 103 34z m43 -4 c10 -15 13 -32 9 -42
-6 -15 -9 -13 -18 12 -5 17 -14 36 -20 43 -6 8 -6 12 2 12 6 0 18 -11 27 -25z
m1346 8 c25 -23 22 -50 -8 -78 -15 -14 -21 -25 -14 -25 7 0 22 7 32 17 17 15
18 15 18 -3 0 -43 -56 -60 -92 -27 -22 20 -23 42 -2 71 8 12 11 22 5 22 -5 0
-13 -4 -16 -10 -10 -17 -25 -11 -18 8 16 45 60 57 95 25z m56 -44 c-4 -22 -6
-21 -21 13 -22 49 -21 57 4 32 13 -14 19 -30 17 -45z m-4188 7 c0 -8 3 -22 6
-30 6 -15 -20 -16 -271 -14 l-278 3 -3 28 -3 27 275 0 c230 0 274 -2 274 -14z
m696 -2 c-3 -9 -6 -22 -6 -30 0 -12 -41 -14 -250 -14 l-250 0 0 30 0 30 256 0
c229 0 256 -2 250 -16z m624 -10 c6 -14 10 -27 10 -30 0 -2 -101 -4 -225 -4
l-225 0 0 30 0 30 215 0 215 0 10 -26z m664 10 c17 -44 20 -44 -244 -44 -137
0 -250 2 -250 4 0 3 4 16 10 30 l10 26 234 0 c204 0 235 -2 240 -16z m647 -16
l7 -28 -234 0 -234 0 0 30 0 30 227 -2 227 -3 7 -27z m689 28 c0 -3 -4 -16
-10 -30 l-10 -26 -248 0 -249 0 5 30 4 30 254 0 c140 0 254 -2 254 -4z m700
-10 c0 -8 3 -21 6 -30 6 -14 -21 -16 -260 -16 l-266 0 0 30 0 30 260 0 c218 0
260 -2 260 -14z m-4594 -51 c-27 -41 -38 -28 -14 15 15 25 24 34 26 24 2 -8
-4 -26 -12 -39z m1440 11 c-3 -14 -15 -30 -27 -36 -20 -11 -20 -11 1 30 23 45
37 47 26 6z m2624 16 c0 -13 -31 -52 -41 -52 -6 0 -2 14 8 30 16 28 33 39 33
22z m-3463 -58 c19 -30 19 -30 -3 -359 -8 -126 -19 -240 -24 -252 l-10 -23
-311 0 -312 0 6 108 c4 59 9 177 12 262 9 237 11 253 43 273 24 14 63 17 304
17 l278 0 17 -26z m688 -4 l29 -30 -13 -273 -12 -272 -30 -27 -30 -28 -279 0
c-160 0 -281 4 -285 9 -3 5 1 94 9 198 8 103 18 237 22 297 10 165 -8 156 307
156 l253 0 29 -30z m638 4 c17 -23 18 -41 9 -312 -5 -158 -13 -295 -17 -304
-7 -17 -28 -18 -259 -18 -299 1 -291 -2 -282 92 3 35 11 167 17 293 l10 230
27 22 c26 22 35 22 252 22 l225 0 18 -25z m662 -2 c18 -25 20 -51 28 -305 l9
-279 -23 -24 -22 -24 -262 0 c-261 0 -262 0 -284 23 l-22 24 9 290 c6 217 11
295 21 307 12 14 47 16 270 16 l256 -1 20 -27z m648 -6 c24 -31 27 -44 27
-105 0 -39 5 -162 11 -272 9 -161 9 -206 -2 -225 l-12 -24 -227 0 -226 0 -47
203 c-78 335 -84 393 -45 434 21 23 24 23 257 23 l236 0 28 -34z m668 5 c28
-28 29 -32 39 -187 6 -88 15 -213 20 -278 15 -177 36 -166 -306 -166 -307 0
-278 -9 -288 85 -3 28 -11 159 -17 292 -8 177 -8 247 1 262 10 20 17 21 266
21 l256 0 29 -29z m722 -2 c14 -26 19 -71 27 -243 5 -116 12 -240 15 -275 5
-57 3 -67 -16 -87 l-22 -24 -258 0 c-285 0 -305 3 -314 54 -7 46 -35 444 -35
507 0 46 4 56 28 76 26 22 32 22 292 23 l265 0 18 -31z m-3970 7 c28 -9 34
-15 23 -19 -20 -8 -66 8 -66 23 0 12 -3 13 43 -4z m-703 -53 c0 -65 -20 -466
-26 -509 -4 -38 -7 -41 -31 -36 l-26 5 7 81 c3 45 8 151 11 236 3 85 8 179 11
208 5 47 8 52 30 52 21 0 24 -4 24 -37z m1420 -283 c-7 -146 -13 -266 -15
-268 -1 -1 -14 2 -28 7 -24 9 -26 14 -21 58 4 43 24 454 24 495 0 10 10 18 23
20 31 4 31 -4 17 -312z m2630 298 c0 -39 30 -450 36 -506 l7 -54 -29 4 -29 3
-12 145 c-6 80 -15 206 -19 282 -6 128 -6 136 12 141 33 8 34 8 34 -15z
m-1995 -235 c-7 -304 -8 -309 -40 -315 l-25 -5 6 251 c6 310 7 316 40 316 l25
0 -6 -247z m1329 50 c3 -103 9 -230 13 -280 l6 -93 -26 0 c-23 0 -26 5 -31 48
-3 26 -8 110 -11 187 -3 77 -8 181 -11 232 -6 90 -6 91 17 95 13 2 27 3 30 1
3 -1 9 -87 13 -190z m-2657 62 c-4 -69 -12 -197 -19 -285 l-12 -160 -29 0
c-29 0 -29 0 -23 48 6 48 36 459 36 500 0 17 6 22 27 22 l26 0 -6 -125z m4037
33 c13 -219 24 -463 21 -467 -2 -2 -15 -1 -28 3 -27 6 -27 7 -43 399 l-7 157
26 0 c25 0 25 -1 31 -92z m-2027 -360 l6 -108 -25 0 c-23 0 -26 4 -32 61 -3
34 -6 128 -5 208 l1 146 24 -100 c13 -55 27 -148 31 -207z m42 -106 c1 -7 -3
-10 -9 -7 -5 3 -10 21 -9 38 1 31 1 31 9 7 4 -14 8 -31 9 -38z m-2815 -27 c22
-23 29 -54 15 -71 -22 -27 -47 -36 -70 -23 -17 9 -20 8 -17 -3 3 -7 18 -16 34
-19 l29 -6 -27 -13 c-23 -11 -31 -10 -53 4 -45 30 -25 89 38 108 l22 6 -22 1
c-27 1 -31 18 -5 24 31 8 40 7 56 -8z m1428 -2 c10 -9 18 -24 18 -35 0 -10 5
-18 11 -18 7 0 9 10 4 28 -6 25 -5 26 11 10 22 -21 21 -68 -2 -85 -42 -31
-101 2 -92 52 3 14 1 25 -3 25 -5 0 -9 -16 -9 -36 0 -31 -2 -35 -15 -24 -33
28 -6 100 38 100 11 0 29 -7 39 -17z m676 5 c18 -18 14 -63 -8 -83 -14 -13
-28 -16 -52 -11 -24 5 -30 4 -21 -5 6 -6 23 -11 37 -11 21 0 24 -3 15 -14 -14
-17 -43 -18 -70 -4 -13 7 -19 21 -19 43 0 39 15 57 47 57 13 0 23 5 23 10 0 6
-10 10 -22 10 -19 0 -20 2 -8 10 21 13 64 12 78 -2z m663 2 c28 -15 26 -74 -3
-94 -12 -9 -19 -19 -15 -22 4 -4 18 3 32 16 23 21 25 22 25 5 0 -26 -29 -55
-55 -55 -47 0 -64 44 -40 105 8 20 8 20 -13 1 -19 -17 -22 -17 -22 -3 0 21 35
57 56 57 8 0 24 -5 35 -10z m672 -3 c48 -35 -1 -125 -53 -97 -18 10 -21 9 -18
-2 3 -7 18 -16 34 -19 l29 -6 -27 -13 c-23 -11 -31 -10 -53 4 -45 30 -25 89
38 108 l22 6 -22 1 c-25 1 -31 16 -10 24 22 9 43 7 60 -6z m677 0 c9 -7 21
-23 27 -37 l12 -25 0 24 c1 20 3 21 16 11 32 -27 5 -90 -39 -90 -34 1 -56 24
-56 59 0 21 -4 30 -11 25 -6 -3 -9 -19 -7 -35 4 -27 4 -28 -14 -12 -24 21 -23
48 2 73 23 23 48 25 70 7z m698 -3 c29 -20 30 -68 0 -88 -12 -9 -19 -18 -16
-21 3 -3 17 4 31 16 27 20 27 20 27 0 0 -21 -34 -51 -59 -51 -38 0 -71 77 -41
95 6 3 10 11 10 17 0 6 -9 3 -20 -7 -19 -17 -20 -17 -20 0 0 24 28 55 49 55 9
0 27 -7 39 -16z m-1988 -43 c-1 -29 -11 -17 -25 29 -7 22 -6 23 9 11 9 -7 16
-25 16 -40z m2050 1 c0 -32 -15 -18 -24 22 -6 26 -5 28 8 17 9 -8 16 -25 16
-39z m-4133 12 c15 -24 15 -29 2 -53 -12 -21 -22 -26 -52 -25 -20 1 -37 -3
-37 -7 0 -8 18 -13 48 -12 17 1 15 -14 -4 -21 -26 -10 -47 -7 -66 11 -35 32
-10 93 39 93 12 0 23 5 23 10 0 6 -9 10 -21 10 -11 0 -17 5 -14 10 13 21 64
11 82 -16z m-129 -29 l-11 -25 -268 0 c-278 0 -279 0 -279 41 0 5 119 9 285 9
l285 0 -12 -25z m702 16 c0 -5 3 -17 6 -25 6 -15 -20 -16 -261 -14 -267 3
-268 3 -276 26 l-8 22 269 0 c157 0 270 -4 270 -9z m656 -7 c-3 -9 -6 -20 -6
-25 0 -5 -97 -9 -230 -9 l-230 0 0 25 0 25 236 0 c211 0 235 -2 230 -16z m696
-9 l5 -25 -258 0 -259 0 0 25 0 25 254 0 254 0 4 -25z m649 3 c-8 -23 -11 -23
-210 -26 -120 -1 -201 1 -201 7 0 5 -3 16 -6 25 -5 14 17 16 210 16 l215 0 -8
-22z m701 -3 l5 -25 -257 0 c-269 0 -270 0 -270 41 0 5 108 9 259 9 l259 0 4
-25z m692 9 c3 -9 6 -20 6 -25 0 -5 -108 -9 -259 -9 l-258 0 0 25 0 25 252 0
c221 0 254 -2 259 -16z m-4680 -65 c-26 -28 -30 -14 -8 27 17 31 19 33 22 14
2 -12 -4 -30 -14 -41z m2102 16 c-9 -14 -21 -25 -27 -25 -7 0 -6 8 3 23 8 12
18 29 23 37 6 10 10 11 13 2 2 -7 -3 -24 -12 -37z m1340 -13 c-24 -24 -29 -9
-9 27 16 28 18 29 21 10 2 -12 -3 -29 -12 -37z m-2696 19 c0 -20 -28 -56 -37
-47 -5 4 28 66 34 66 2 0 3 -9 3 -19z m-170 -23 c0 -6 9 -21 19 -32 19 -21 19
-24 -5 -245 l-25 -225 -37 -32 -37 -33 -238 -1 -238 0 -35 35 -35 35 20 231
c18 211 21 233 42 255 l22 24 274 0 c204 0 273 -3 273 -12z m739 -10 c17 -27
16 -61 -5 -328 -12 -148 -19 -199 -31 -212 -15 -16 -42 -18 -303 -18 -259 0
-290 2 -309 18 l-22 17 20 160 c11 88 23 197 27 242 5 69 10 83 26 88 10 4 26
17 34 31 l16 24 267 0 c265 0 266 0 280 -22z m77 -9 c8 -14 -40 -11 -54 3 -7
7 -12 15 -12 19 0 10 58 -10 66 -22z m566 7 c15 -21 16 -43 6 -257 -10 -229
-11 -233 -37 -266 l-26 -33 -241 0 c-229 0 -242 1 -259 20 -18 19 -18 29 -1
268 16 222 20 249 39 270 20 22 24 22 261 22 241 -1 241 -1 258 -24z m709 1
c13 -18 18 -71 27 -267 11 -243 11 -245 -10 -267 -21 -23 -23 -23 -299 -23
-271 0 -279 1 -314 23 -34 21 -35 23 -31 72 3 28 8 138 12 245 l7 195 31 22
c30 20 41 21 296 22 263 0 265 0 281 -22z m195 -146 c24 -90 60 -217 79 -282
19 -65 35 -121 35 -124 0 -3 -28 -5 -62 -5 -54 0 -68 5 -95 28 l-31 27 -9 240
c-10 244 -6 289 25 283 10 -2 29 -57 58 -167z m436 144 c11 -14 26 -25 33 -25
18 0 21 -20 40 -284 11 -162 12 -222 4 -232 -9 -11 -49 -14 -169 -14 l-158 0
-16 48 c-29 91 -146 511 -146 526 0 3 88 6 196 6 l196 0 20 -25z m708 11 c0
-7 8 -20 19 -27 16 -12 22 -50 45 -257 19 -176 23 -248 16 -263 -10 -18 -24
-19 -295 -19 -280 0 -285 0 -305 22 -11 12 -20 33 -20 47 0 14 -7 126 -16 249
-16 212 -16 224 1 242 17 19 32 20 287 20 221 0 268 -2 268 -14z m89 -21 c2
-3 -7 -5 -21 -5 -14 0 -33 10 -44 21 l-19 21 39 -16 c22 -9 42 -19 45 -21z
m617 10 c22 -23 25 -43 45 -271 20 -234 20 -246 3 -265 -16 -18 -32 -19 -274
-19 l-258 0 -24 33 c-22 28 -27 54 -47 227 -12 107 -24 216 -27 241 -10 80
-13 79 293 79 l266 0 23 -25z m-4760 -232 c-21 -262 -21 -263 -52 -263 -16 0
-24 6 -24 18 1 15 38 444 39 449 1 3 46 9 49 7 2 -2 -3 -96 -12 -211z m2090
150 c-3 -38 -8 -148 -12 -245 l-6 -178 -27 7 c-14 3 -26 6 -27 7 0 1 4 105 9
233 11 252 6 233 61 242 4 0 5 -29 2 -66z m1378 25 c3 -24 10 -115 16 -203 6
-88 13 -181 16 -207 6 -48 6 -48 -23 -48 l-29 0 -13 178 c-6 97 -15 207 -18
244 -6 68 -5 69 39 77 4 0 9 -18 12 -41z m-2024 -28 c0 -30 -7 -134 -15 -230
-8 -96 -15 -178 -15 -182 0 -5 -11 -8 -25 -8 -30 0 -30 -5 -10 245 8 99 15
192 15 206 0 22 4 27 25 25 23 -1 25 -4 25 -56z m1365 -118 c12 -335 14 -308
-15 -304 -14 2 -26 5 -26 5 -3 3 -19 469 -17 471 1 1 13 2 26 4 l25 2 7 -178z
m1377 -54 c14 -128 25 -234 24 -235 0 0 -12 -3 -26 -5 l-25 -3 -21 180 c-37
312 -37 288 11 294 7 1 21 -90 37 -231z m672 169 c19 -203 36 -397 36 -414 0
-16 -5 -19 -25 -15 -30 5 -30 5 -50 249 -20 243 -20 238 9 241 23 2 25 -2 30
-61z m-4128 26 c-2 -16 -15 -124 -27 -240 -23 -215 -27 -228 -61 -200 -13 11
-12 35 10 234 26 229 26 228 70 232 10 1 12 -7 8 -26z m-748 -466 c22 -17 14
-64 -14 -86 -19 -15 -22 -21 -11 -21 9 0 25 10 37 22 18 20 20 20 20 3 0 -28
-30 -55 -62 -55 -38 0 -57 38 -41 81 12 31 0 40 -16 12 -9 -16 -10 -16 -11 3
0 52 54 75 98 41z m41 -1 c7 -8 11 -27 9 -43 -3 -27 -4 -26 -20 15 -16 42 -11
55 11 28z m629 -2 c12 -8 22 -24 22 -35 0 -26 18 -24 22 4 4 21 5 21 18 -5 11
-23 11 -31 -4 -53 -34 -52 -114 -17 -99 43 4 17 2 23 -6 18 -6 -4 -11 -21 -11
-39 0 -29 -1 -30 -15 -11 -21 28 -18 61 7 78 12 9 27 16 33 16 6 0 21 -7 33
-16z m770 0 c51 -36 9 -114 -53 -98 -20 5 -26 4 -21 -5 4 -6 22 -11 39 -11 30
-1 31 -1 13 -15 -26 -19 -45 -19 -68 2 -36 33 -17 92 31 96 28 2 27 17 -1 17
-21 0 -21 0 -2 15 25 19 35 18 62 -1z m644 -1 c10 -9 18 -22 18 -30 0 -7 5
-13 11 -13 6 0 8 9 3 22 -6 20 -5 21 10 9 24 -20 20 -68 -8 -86 -44 -29 -97
14 -81 65 4 11 2 20 -4 20 -6 0 -11 -16 -11 -36 0 -31 -2 -35 -15 -24 -18 15
-20 61 -3 78 17 17 58 15 80 -5z m2165 9 c7 -4 15 -21 19 -38 8 -40 -23 -69
-66 -61 -40 9 -39 -7 3 -20 l32 -10 -27 -8 c-36 -9 -56 -1 -70 29 -15 34 12
76 47 76 14 0 25 5 25 10 0 6 -9 10 -21 10 -11 0 -17 5 -14 10 7 12 55 13 72
2z m-1413 -18 c23 -23 20 -70 -6 -88 -12 -9 -19 -18 -16 -21 3 -3 17 4 31 16
22 17 27 18 27 5 0 -19 -35 -56 -53 -56 -27 0 -57 31 -57 60 0 16 5 32 10 35
6 3 10 11 10 17 0 6 -9 3 -20 -7 -19 -17 -20 -17 -20 0 0 46 62 72 94 39z m54
-45 c-2 -20 -6 -17 -21 21 l-17 45 21 -21 c12 -13 19 -31 17 -45z m644 44 c10
-9 18 -29 18 -44 0 -34 -29 -53 -71 -47 -16 3 -29 1 -29 -3 0 -9 27 -19 53
-19 18 0 19 -2 7 -10 -57 -37 -120 22 -79 74 11 14 30 27 42 27 21 2 21 2 -1
6 -19 4 -21 7 -11 19 15 19 48 18 71 -3z m1386 -5 c7 -7 12 -20 12 -30 0 -10
5 -18 11 -18 6 0 9 9 6 20 -7 26 9 26 23 -1 29 -52 -26 -107 -75 -75 -19 12
-25 25 -25 52 0 21 -4 33 -10 29 -5 -3 -10 -21 -10 -38 -1 -30 -1 -31 -15 -13
-19 26 -19 51 1 70 18 19 65 21 82 4z m-4354 -34 c3 -9 6 -20 6 -25 0 -5 -107
-9 -256 -9 -229 0 -256 2 -250 16 3 9 6 20 6 25 0 5 102 9 244 9 213 0 245 -2
250 -16z m754 -9 l-11 -25 -279 0 -278 0 0 25 0 25 290 0 290 0 -12 -25z m652
16 c0 -5 3 -16 6 -25 6 -14 -19 -16 -234 -16 l-240 0 -4 25 -5 25 238 0 c139
0 239 -4 239 -9z m750 0 c0 -5 3 -16 6 -25 6 -14 -23 -16 -280 -16 l-286 0 0
25 0 25 280 0 c163 0 280 -4 280 -9z m330 0 c0 -5 3 -16 6 -25 5 -14 -5 -16
-74 -16 -79 0 -79 0 -74 25 4 24 8 25 73 25 38 0 69 -4 69 -9z m358 -16 l-11
-26 -136 3 c-132 3 -136 4 -139 26 -3 22 -3 22 147 22 l151 0 -12 -25z m714 0
l-4 -25 -264 0 c-154 0 -264 4 -264 9 0 5 -3 16 -6 25 -6 14 22 16 269 16
l274 0 -5 -25z m686 0 l0 -25 -248 0 -248 0 -4 25 -5 25 252 0 253 0 0 -25z
m-532 -53 c-24 -24 -29 -9 -9 27 16 28 18 29 21 10 2 -12 -3 -29 -12 -37z
m-2791 19 c-3 -12 -15 -26 -26 -32 -19 -10 -20 -9 -8 13 25 50 48 62 34 19z
m2095 15 c0 -20 -23 -56 -35 -56 -14 0 -14 3 2 30 15 26 33 40 33 26z m-2989
-47 c12 -24 10 -54 -27 -288 -14 -88 -29 -158 -37 -163 -6 -4 -141 -8 -299 -8
-224 0 -288 3 -288 13 0 6 11 101 24 209 23 188 25 199 53 227 l28 30 267 1
c262 0 268 0 279 -21z m88 -14 c9 -10 -41 -5 -60 5 -34 19 -20 31 18 15 20 -9
39 -18 42 -20z m647 8 c17 -27 17 -35 0 -228 -10 -110 -21 -206 -23 -212 -7
-19 -684 -19 -678 0 2 6 18 103 34 215 27 188 32 205 56 228 l26 24 283 0 284
0 18 -27z m673 8 c7 -13 7 -90 -1 -240 l-11 -221 -299 0 c-164 0 -298 3 -298
6 0 29 42 420 46 426 3 4 11 8 18 8 7 0 21 9 31 20 17 19 31 20 261 20 228 0
244 -1 253 -19z m61 5 c29 -12 30 -14 11 -19 -13 -3 -30 2 -44 14 -26 22 -12
24 33 5z m696 -19 c18 -26 23 -53 28 -152 4 -66 9 -159 12 -207 l7 -88 -361 0
c-199 0 -363 3 -366 8 -2 4 1 103 8 221 11 205 12 214 35 232 22 18 43 19 320
19 l296 0 21 -33z m390 -207 l80 -240 -168 0 c-166 0 -168 0 -172 23 -3 12 -9
108 -14 212 -13 249 -15 245 106 245 l88 0 80 -240z m280 203 l39 -38 20 -203
20 -202 -105 0 -106 0 -77 233 c-43 127 -77 235 -77 240 0 4 56 7 124 7 l124
0 38 -37z m725 4 l36 -32 28 -195 c15 -107 30 -201 32 -207 4 -10 -65 -13
-326 -13 -182 0 -331 3 -331 6 0 3 -9 99 -21 213 l-20 208 23 26 23 27 260 -1
260 0 36 -32z m687 -4 c19 -30 27 -70 46 -227 15 -126 20 -195 13 -203 -7 -10
-77 -13 -287 -13 l-277 0 -33 220 c-31 212 -32 221 -15 240 17 19 32 20 274
20 l256 -1 23 -36z m52 3 c26 -11 29 -14 15 -20 -10 -3 -28 0 -41 9 -42 27
-27 34 26 11z m-4920 -34 c0 -22 -40 -364 -45 -389 -4 -16 -13 -23 -30 -23
-14 0 -25 4 -25 9 0 4 11 102 25 217 14 115 25 212 25 216 0 4 11 2 25 -4 14
-6 25 -18 25 -26z m4284 6 c3 -13 17 -102 31 -198 14 -96 28 -185 30 -197 5
-20 1 -23 -23 -23 l-29 0 -31 211 c-18 116 -30 215 -27 220 12 18 45 9 49 -13z
m-3584 -5 c0 -2 -13 -94 -30 -205 -16 -110 -30 -202 -30 -203 0 -7 -41 8 -46
16 -4 8 37 317 51 385 4 17 10 20 30 16 14 -2 25 -6 25 -9z m740 -16 c0 -41
-29 -344 -35 -374 -4 -16 -13 -23 -30 -23 -14 0 -25 3 -25 8 0 4 9 95 20 202
11 107 20 201 20 208 0 6 11 12 25 12 22 0 25 -4 25 -33z m666 -29 c-3 -35 -8
-127 -12 -205 l-6 -141 -30 -4 -30 -5 5 46 c4 25 9 119 13 209 l7 162 30 0 29
0 -6 -62z m1476 -118 c23 -242 23 -240 -6 -240 -28 0 -26 -7 -51 249 -16 161
-14 175 25 168 12 -2 18 -39 32 -177z m-698 38 c4 -73 9 -168 13 -210 l6 -78
-26 0 c-16 0 -28 7 -31 18 -2 9 -7 91 -11 182 -3 91 -8 177 -11 193 -5 24 -3
27 24 27 l29 0 7 -132z m2096 -44 c11 -93 22 -184 24 -202 3 -26 1 -32 -11
-28 -8 3 -20 6 -27 6 -9 0 -19 53 -35 183 -12 100 -21 187 -21 194 0 9 37 23
48 17 1 0 11 -77 22 -170z m-5940 -204 c131 -13 280 -20 413 -20 145 0 207 -4
207 -11 0 -19 -472 -5 -705 21 -110 11 -210 18 -223 15 -46 -11 -55 -92 -12
-115 14 -8 68 -5 197 9 98 11 247 25 331 31 168 11 1279 14 1269 3 -4 -4 -193
-6 -420 -4 -566 3 -915 -13 -1287 -58 -73 -9 -101 -2 -124 31 -24 34 -19 66
14 99 27 28 33 30 82 24 29 -3 145 -14 258 -25z m6887 22 c22 -3 53 -45 53
-73 0 -15 -11 -40 -24 -56 -28 -32 -34 -32 -244 -9 -193 22 -399 36 -524 36
-60 0 -110 4 -113 10 -13 22 321 6 659 -30 162 -18 182 -19 203 -5 30 20 32
74 3 100 -19 17 -28 17 -237 -5 -247 -26 -673 -39 -673 -21 0 7 58 11 184 11
173 0 241 4 531 33 109 11 148 13 182 9z m-6883 -57 c88 -8 167 -16 175 -16 9
-1 -42 -7 -114 -14 -71 -7 -161 -16 -200 -19 -38 -4 -65 -4 -59 1 16 11 12 52
-6 63 -11 7 -7 9 15 5 17 -3 102 -12 189 -20z m6766 15 c-18 -11 -22 -52 -6
-62 15 -11 3 -10 -154 7 -74 8 -157 15 -185 16 -69 3 -61 4 350 48 6 0 3 -4
-5 -9z m-7009 -15 c16 -9 27 -20 24 -25 -8 -13 -74 -33 -90 -26 -15 5 -21 47
-8 59 11 12 42 8 74 -8z m7128 -3 c12 -22 -4 -52 -27 -52 -9 1 -32 9 -51 19
l-35 18 30 16 c39 21 71 21 83 -1z m-929 -12 c11 -11 20 -27 20 -35 0 -8 5
-15 11 -15 6 0 8 9 4 20 -7 24 10 27 19 4 18 -48 -1 -84 -44 -84 -37 0 -64 32
-56 65 4 14 2 25 -4 25 -5 0 -10 -16 -10 -36 0 -32 -2 -35 -16 -24 -23 20 -14
72 16 87 33 17 37 16 60 -7z m-4378 -7 c10 -9 18 -22 18 -29 0 -7 5 -16 11
-20 8 -5 10 2 6 22 l-5 29 19 -24 c24 -30 24 -46 -1 -71 -26 -26 -50 -25 -79
1 -16 15 -21 28 -17 45 4 14 2 24 -4 24 -5 0 -10 -14 -10 -31 0 -27 -2 -30
-15 -19 -20 16 -19 49 2 72 20 22 51 23 75 1z m1492 -5 c21 -30 20 -43 -6 -68
-16 -15 -31 -20 -50 -16 -16 3 -28 1 -28 -4 0 -6 14 -10 30 -10 32 0 40 -14
14 -24 -26 -10 -47 -7 -66 11 -37 33 -12 93 38 93 13 0 24 5 24 10 0 6 -9 10
-21 10 -11 0 -17 5 -14 10 12 19 63 11 79 -12z m1511 -3 c31 -30 31 -40 1 -70
-20 -20 -31 -24 -58 -18 -42 8 -30 -7 14 -17 l33 -7 -27 -13 c-37 -18 -78 8
-78 49 0 32 15 48 57 61 l28 8 -30 1 c-29 2 -29 2 -11 16 28 21 43 19 71 -10z
m-1627 0 c-7 -7 -1299 -8 -1306 -1 -3 3 291 6 653 6 362 0 656 -2 653 -5z
m989 -2 c-159 -2 -415 -2 -570 0 -155 1 -25 2 288 2 314 0 440 -1 282 -2z
m533 -1 c0 -8 -152 -5 -175 3 -5 2 32 4 83 4 50 1 92 -3 92 -7z m1063 1 c-172
-2 -454 -2 -625 0 -172 1 -32 2 312 2 344 0 484 -1 313 -2z m-3528 -34 c110
-6 206 -12 212 -15 10 -2 10 -9 1 -29 -11 -24 -15 -25 -67 -20 -105 10 -362
25 -432 25 l-69 0 0 31 0 31 78 -6 c42 -3 167 -11 277 -17z m3842 -35 c-2 -2
-441 -32 -443 -30 -1 1 -4 13 -7 27 l-7 26 208 12 c114 7 214 13 222 14 12 2
36 -41 27 -49z m-4973 36 c35 -13 37 -71 4 -94 -12 -9 -19 -19 -15 -22 4 -4
18 3 32 16 23 21 25 22 25 5 0 -26 -29 -55 -55 -55 -47 0 -64 44 -40 105 8 20
8 20 -13 1 -19 -17 -22 -17 -22 -3 0 18 34 57 49 57 5 0 21 -4 35 -10z m271
-1 c-198 -19 -193 -19 -199 -4 -5 13 15 15 137 14 135 -2 138 -2 62 -10z m320
-10 c4 -12 3 -24 -2 -28 -4 -5 -107 -16 -228 -25 -121 -9 -232 -19 -247 -22
-25 -5 -28 -3 -28 24 l0 29 223 20 c295 27 274 27 282 2z m768 14 c-13 -2 -35
-2 -50 0 -16 2 -5 4 22 4 28 0 40 -2 28 -4z m130 -15 c4 -13 0 -33 -9 -46 -13
-19 -22 -23 -50 -20 -42 5 -41 -15 1 -22 l29 -5 -25 -11 c-33 -15 -67 -1 -75
32 -9 35 5 56 47 70 l34 12 -30 4 c-20 4 -13 5 21 7 46 1 52 -2 57 -21z m157
12 c-69 -3 -129 -2 -134 2 -6 4 51 7 125 6 l134 -2 -125 -6z m410 -3 c0 -37
-23 -44 -195 -56 -204 -14 -325 -14 -325 -2 0 5 -3 16 -6 25 -5 14 5 16 72 17
44 0 144 6 224 13 202 18 230 19 230 3z m446 -1 c82 -8 199 -18 261 -22 l111
-6 -10 -24 c-10 -22 -17 -24 -78 -24 -37 0 -134 6 -216 14 -82 8 -188 18 -236
22 -49 3 -88 10 -88 14 0 5 -3 15 -6 24 -8 21 59 21 262 2z m394 4 c0 -11
-169 -12 -270 0 -50 5 -27 7 103 8 106 1 167 -2 167 -8z m106 -16 c16 -24 16
-27 -3 -52 -17 -22 -28 -27 -57 -25 -22 2 -34 -1 -31 -7 3 -6 20 -10 37 -10
26 0 29 -2 18 -15 -29 -34 -90 -4 -90 45 0 32 17 50 47 50 13 0 23 5 23 10 0
6 -10 10 -22 10 -19 0 -20 2 -8 10 29 19 69 11 86 -16z m99 16 c-44 -4 -84 -3
-89 1 -6 5 29 8 80 7 l89 -1 -80 -7z m472 -20 c-11 -29 -14 -30 -69 -30 -46 0
-59 4 -68 19 -19 37 -12 41 69 41 l79 0 -11 -30z m766 19 c-8 -8 -61 -9 -190
-2 l-178 10 190 1 c139 2 186 -1 178 -9z m121 -16 c15 -28 15 -28 16 -4 0 20
2 21 15 11 21 -17 19 -56 -5 -80 -24 -24 -38 -25 -68 -4 -16 11 -22 25 -22 52
-1 31 -2 34 -11 19 -6 -10 -9 -27 -6 -38 7 -27 -11 -24 -24 5 -18 39 3 66 51
66 33 0 42 -5 54 -27z m84 20 c-10 -2 -26 -2 -35 0 -10 3 -2 5 17 5 19 0 27
-2 18 -5z m-4468 -54 c0 -4 -4 -10 -9 -13 -8 -5 -32 45 -31 63 1 9 40 -40 40
-50z m2150 27 c0 -23 -27 -62 -37 -53 -3 4 29 76 35 77 1 0 2 -11 2 -24z
m1139 2 c8 -21 5 -24 -35 -30 -23 -3 -96 -9 -162 -13 -119 -7 -119 -7 -125 16
-3 13 -5 24 -4 25 3 4 214 21 270 23 41 1 49 -2 56 -21z m763 5 l206 -6 4 -29
c5 -34 26 -33 -292 -18 -288 14 -285 13 -288 47 l-2 26 82 -7 c46 -3 176 -9
290 -13z m-386 -27 c-3 -14 -16 -30 -27 -36 -20 -11 -20 -10 3 29 25 43 34 46
24 7z m-2240 -54 c-24 -24 -30 -7 -9 28 17 29 18 30 21 10 2 -13 -3 -30 -12
-38z m1518 -13 c-29 -32 -36 -21 -12 21 19 33 24 36 26 19 2 -11 -4 -29 -14
-40z m-2324 19 c0 -14 -38 -9 -54 8 -23 22 -20 23 19 11 19 -6 35 -14 35 -19z
m4361 17 l34 -14 -31 -1 c-17 0 -37 7 -44 15 -16 19 -2 19 41 0z m-641 -39
c20 -8 27 -15 19 -18 -18 -7 -59 8 -59 22 0 13 1 13 40 -4z m1638 -32 c19 -4
22 -9 18 -32 -6 -27 -582 -3739 -593 -3819 -5 -37 -9 -43 -29 -43 -28 0 -30 7
-8 31 21 24 11 49 -20 49 -27 0 -39 -19 -25 -41 14 -23 10 -31 -13 -27 -16 2
-22 9 -21 23 7 50 594 3832 598 3852 5 23 11 24 93 7z m27 -3911 c-3 -10 -73
-13 -300 -13 -166 0 -295 4 -295 9 0 16 579 3745 587 3781 4 19 9 -820 11
-1865 1 -1045 0 -1906 -3 -1912z m-646 70 c0 -11 -3 -13 -6 -5 -2 6 -10 9 -15
6 -7 -4 -8 -2 -4 4 11 18 26 14 25 -5z m-13129 -98 c0 -21 -58 -116 -77 -124
-22 -10 -22 -8 12 59 20 40 42 70 50 70 8 0 15 -2 15 -5z m20240 -47 c32 -58
37 -78 17 -78 -10 0 -41 49 -75 123 -2 4 3 7 12 7 9 0 29 -24 46 -52z"/>
<path d="M7018 13073 c17 -2 47 -2 65 0 17 2 3 4 -33 4 -36 0 -50 -2 -32 -4z"/>
<path d="M7178 13073 c17 -2 47 -2 65 0 17 2 3 4 -33 4 -36 0 -50 -2 -32 -4z"/>
<path d="M6990 13030 c0 -6 27 -10 60 -10 33 0 60 4 60 10 0 6 -27 10 -60 10
-33 0 -60 -4 -60 -10z"/>
<path d="M7150 13030 c0 -6 27 -10 60 -10 33 0 60 4 60 10 0 6 -27 10 -60 10
-33 0 -60 -4 -60 -10z"/>
<path d="M6888 12813 c17 -2 47 -2 65 0 17 2 3 4 -33 4 -36 0 -50 -2 -32 -4z"/>
<path d="M7048 12813 c17 -2 47 -2 65 0 17 2 3 4 -33 4 -36 0 -50 -2 -32 -4z"/>
<path d="M6888 12773 c17 -2 47 -2 65 0 17 2 3 4 -33 4 -36 0 -50 -2 -32 -4z"/>
<path d="M7048 12773 c17 -2 47 -2 65 0 17 2 3 4 -33 4 -36 0 -50 -2 -32 -4z"/>
<path d="M14868 13073 c17 -2 47 -2 65 0 17 2 3 4 -33 4 -36 0 -50 -2 -32 -4z"/>
<path d="M15027 13073 c18 -2 50 -2 70 0 21 2 7 4 -32 4 -38 0 -55 -2 -38 -4z"/>
<path d="M14840 13030 c0 -6 27 -10 60 -10 33 0 60 4 60 10 0 6 -27 10 -60 10
-33 0 -60 -4 -60 -10z"/>
<path d="M15000 13030 c0 -6 27 -10 60 -10 33 0 60 4 60 10 0 6 -27 10 -60 10
-33 0 -60 -4 -60 -10z"/>
<path d="M14868 12813 c17 -2 47 -2 65 0 17 2 3 4 -33 4 -36 0 -50 -2 -32 -4z"/>
<path d="M15027 12813 c18 -2 50 -2 70 0 21 2 7 4 -32 4 -38 0 -55 -2 -38 -4z"/>
<path d="M14868 12773 c17 -2 47 -2 65 0 17 2 3 4 -33 4 -36 0 -50 -2 -32 -4z"/>
<path d="M15027 12773 c18 -2 50 -2 70 0 21 2 7 4 -32 4 -38 0 -55 -2 -38 -4z"/>
<path d="M10537 13084 c-14 -15 7 -24 54 -24 37 0 49 4 49 15 0 11 -12 15 -48
15 -27 0 -52 -3 -55 -6z"/>
<path d="M10566 13014 c-8 -21 1 -34 24 -34 19 0 30 17 23 38 -7 17 -40 15
-47 -4z"/>
<path d="M7018 11023 c17 -2 47 -2 65 0 17 2 3 4 -33 4 -36 0 -50 -2 -32 -4z"/>
<path d="M7178 11023 c17 -2 47 -2 65 0 17 2 3 4 -33 4 -36 0 -50 -2 -32 -4z"/>
<path d="M7018 10983 c17 -2 47 -2 65 0 17 2 3 4 -33 4 -36 0 -50 -2 -32 -4z"/>
<path d="M7178 10983 c17 -2 47 -2 65 0 17 2 3 4 -33 4 -36 0 -50 -2 -32 -4z"/>
<path d="M7018 5643 c17 -2 47 -2 65 0 17 2 3 4 -33 4 -36 0 -50 -2 -32 -4z"/>
<path d="M7178 5643 c17 -2 47 -2 65 0 17 2 3 4 -33 4 -36 0 -50 -2 -32 -4z"/>
<path d="M7018 5603 c17 -2 47 -2 65 0 17 2 3 4 -33 4 -36 0 -50 -2 -32 -4z"/>
<path d="M7178 5603 c17 -2 47 -2 65 0 17 2 3 4 -33 4 -36 0 -50 -2 -32 -4z"/>
<path d="M14868 11023 c17 -2 47 -2 65 0 17 2 3 4 -33 4 -36 0 -50 -2 -32 -4z"/>
<path d="M15027 11023 c18 -2 50 -2 70 0 21 2 7 4 -32 4 -38 0 -55 -2 -38 -4z"/>
<path d="M14868 10983 c17 -2 47 -2 65 0 17 2 3 4 -33 4 -36 0 -50 -2 -32 -4z"/>
<path d="M15027 10983 c18 -2 50 -2 70 0 21 2 7 4 -32 4 -38 0 -55 -2 -38 -4z"/>
<path d="M14840 5650 c0 -6 27 -10 60 -10 33 0 60 4 60 10 0 6 -27 10 -60 10
-33 0 -60 -4 -60 -10z"/>
<path d="M15005 5650 c3 -5 31 -10 61 -10 30 0 54 5 54 10 0 6 -27 10 -61 10
-37 0 -58 -4 -54 -10z"/>
<path d="M14840 5610 c0 -6 27 -10 60 -10 33 0 60 4 60 10 0 6 -27 10 -60 10
-33 0 -60 -4 -60 -10z"/>
<path d="M15000 5610 c0 -6 27 -10 60 -10 33 0 60 4 60 10 0 6 -27 10 -60 10
-33 0 -60 -4 -60 -10z"/>
<path d="M14580 5415 c-10 -12 -10 -18 0 -30 26 -32 68 -8 54 30 -4 8 -14 15
-24 15 -10 0 -23 -7 -30 -15z m35 -25 c-5 -8 -11 -8 -17 -2 -6 6 -7 16 -3 22
5 8 11 8 17 2 6 -6 7 -16 3 -22z"/>
<path d="M14500 4895 c-10 -12 -10 -18 0 -30 26 -32 68 -8 54 30 -4 8 -14 15
-24 15 -10 0 -23 -7 -30 -15z m35 -25 c-5 -8 -11 -8 -17 -2 -6 6 -7 16 -3 22
5 8 11 8 17 2 6 -6 7 -16 3 -22z"/>
<path d="M14423 4353 c-18 -7 -16 -38 2 -53 18 -15 45 2 45 30 0 14 -23 34
-33 29 -1 0 -8 -3 -14 -6z m32 -22 c7 -12 -12 -24 -25 -16 -11 7 -4 25 10 25
5 0 11 -4 15 -9z"/>
<path d="M14343 3833 c-19 -7 -16 -50 4 -57 24 -10 51 20 37 41 -12 19 -23 24
-41 16z m32 -22 c7 -12 -12 -24 -25 -16 -11 7 -4 25 10 25 5 0 11 -4 15 -9z"/>
<path d="M14244 3265 c-4 -9 0 -23 9 -32 21 -21 49 -9 45 19 -4 28 -45 38 -54
13z m44 -13 c2 -7 -3 -12 -12 -12 -9 0 -16 7 -16 16 0 17 22 14 28 -4z"/>
<path d="M14164 2746 c-10 -26 4 -48 28 -44 17 2 23 10 23 28 0 18 -6 26 -23
28 -13 2 -25 -3 -28 -12z m44 -14 c2 -7 -3 -12 -12 -12 -9 0 -16 7 -16 16 0
17 22 14 28 -4z"/>
<path d="M14081 2196 c-17 -20 -2 -46 25 -46 29 0 41 24 24 45 -16 19 -34 19
-49 1z m39 -22 c0 -9 -5 -14 -12 -12 -18 6 -21 28 -4 28 9 0 16 -7 16 -16z"/>
<path d="M6820 1380 c0 -33 4 -60 10 -60 6 0 10 27 10 60 0 33 -4 60 -10 60
-6 0 -10 -27 -10 -60z"/>
<path d="M14683 1380 c0 -36 2 -50 4 -32 2 17 2 47 0 65 -2 17 -4 3 -4 -33z"/>
<path d="M7290 1310 c0 -33 4 -60 10 -60 6 0 10 27 10 60 0 33 -4 60 -10 60
-6 0 -10 -27 -10 -60z"/>
<path d="M15140 1310 c0 -33 4 -60 10 -60 6 0 10 27 10 60 0 33 -4 60 -10 60
-6 0 -10 -27 -10 -60z"/>
<path d="M6828 1274 c-5 -4 -8 -29 -8 -56 l0 -49 -32 5 c-18 3 -62 10 -98 16
-36 6 -80 13 -97 16 -18 3 -33 1 -33 -4 0 -10 297 -56 349 -54 18 1 49 11 68
22 19 11 36 20 38 20 3 0 23 -36 45 -80 22 -44 44 -80 49 -80 5 0 14 7 22 16
20 25 65 44 101 44 18 0 101 -11 183 -24 83 -13 152 -22 154 -20 10 9 -11 14
-110 29 -161 23 -149 17 -149 80 0 30 -4 55 -10 55 -5 0 -10 -25 -10 -56 l0
-56 -30 7 c-42 9 -85 -2 -122 -33 -19 -16 -33 -22 -35 -15 -2 6 -21 45 -41 87
l-37 76 -37 -25 c-43 -29 -86 -40 -122 -31 -22 5 -25 12 -28 62 -2 31 -6 52
-10 48z"/>
<path d="M14682 1233 c-2 -62 3 -60 -137 -39 -82 13 -106 13 -94 2 7 -6 291
-48 331 -48 20 -1 55 9 78 21 22 11 42 21 44 21 1 0 20 -36 40 -80 21 -44 40
-80 43 -80 3 0 18 11 35 25 16 14 42 28 56 32 15 4 105 -5 200 -18 94 -14 172
-22 172 -18 0 8 -14 10 -177 35 l-113 16 0 54 c0 30 -4 54 -10 54 -5 0 -10
-22 -10 -49 l0 -49 -45 -6 c-26 -4 -58 -18 -75 -33 l-30 -25 -40 86 -41 85
-46 -29 c-48 -31 -70 -34 -135 -24 l-37 6 -4 57 -3 56 -2 -52z"/>
<path d="M6980 965 c-43 -31 -72 -31 -248 -5 -74 11 -143 20 -155 20 -43 0 -6
-11 84 -25 52 -8 108 -17 125 -20 21 -4 34 -13 39 -28 8 -22 8 -22 12 -1 4 19
9 21 46 17 32 -4 53 2 90 21 l48 26 41 -85 40 -84 37 28 c20 16 46 32 58 36
12 3 99 -6 194 -20 94 -15 173 -24 176 -21 9 9 -13 14 -162 35 -184 27 -213
27 -259 -4 -20 -14 -38 -25 -40 -25 -2 0 -20 36 -40 80 -20 44 -40 80 -44 80
-4 -1 -23 -12 -42 -25z"/>
<path d="M14860 965 c-43 -31 -76 -31 -246 -5 -138 21 -171 24 -161 13 4 -3
55 -13 114 -22 100 -15 108 -18 114 -41 7 -24 7 -24 8 -2 1 22 3 23 60 16 53
-6 65 -3 107 20 26 14 48 25 49 24 2 -2 20 -40 40 -86 l38 -82 33 25 c61 47
76 48 258 20 146 -22 192 -25 175 -12 -8 7 -305 47 -344 47 -27 0 -53 -9 -77
-25 l-38 -25 -40 80 c-22 44 -44 80 -48 80 -4 -1 -23 -12 -42 -25z"/>
<path d="M6820 790 c0 -33 4 -60 10 -60 6 0 10 27 10 60 0 33 -4 60 -10 60 -6
0 -10 -27 -10 -60z"/>
<path d="M7290 790 c0 -33 4 -60 10 -60 6 0 10 27 10 60 0 33 -4 60 -10 60 -6
0 -10 -27 -10 -60z"/>
<path d="M14683 790 c0 -36 2 -50 4 -32 2 17 2 47 0 65 -2 17 -4 3 -4 -33z"/>
<path d="M15140 790 c0 -33 4 -60 10 -60 6 0 10 27 10 60 0 33 -4 60 -10 60
-6 0 -10 -27 -10 -60z"/>
<path d="M6820 630 c0 -33 4 -60 10 -60 6 0 10 27 10 60 0 33 -4 60 -10 60 -6
0 -10 -27 -10 -60z"/>
<path d="M7290 630 c0 -33 4 -60 10 -60 6 0 10 27 10 60 0 33 -4 60 -10 60 -6
0 -10 -27 -10 -60z"/>
<path d="M14683 630 c0 -36 2 -50 4 -32 2 17 2 47 0 65 -2 17 -4 3 -4 -33z"/>
<path d="M15140 630 c0 -33 4 -60 10 -60 6 0 10 27 10 60 0 33 -4 60 -10 60
-6 0 -10 -27 -10 -60z"/>
<path d="M6822 468 l3 -63 54 -3 c30 -2 59 2 64 7 8 8 -6 11 -46 11 l-57 0 0
55 c0 32 -4 55 -10 55 -7 0 -10 -24 -8 -62z"/>
<path d="M7290 470 c0 -33 4 -60 10 -60 6 0 10 27 10 60 0 33 -4 60 -10 60 -6
0 -10 -27 -10 -60z"/>
<path d="M14680 472 c-3 -35 -3 -66 -1 -68 9 -9 110 -3 116 6 4 6 -15 10 -49
10 l-55 0 -3 58 -3 57 -5 -63z"/>
<path d="M15140 470 c0 -33 4 -60 10 -60 6 0 10 27 10 60 0 33 -4 60 -10 60
-6 0 -10 -27 -10 -60z"/>
<path d="M6990 410 c0 -6 27 -10 60 -10 33 0 60 4 60 10 0 6 -27 10 -60 10
-33 0 -60 -4 -60 -10z"/>
<path d="M7150 410 c0 -6 27 -10 60 -10 33 0 60 4 60 10 0 6 -27 10 -60 10
-33 0 -60 -4 -60 -10z"/>
<path d="M14840 410 c0 -6 27 -10 60 -10 33 0 60 4 60 10 0 6 -27 10 -60 10
-33 0 -60 -4 -60 -10z"/>
<path d="M15005 410 c3 -5 30 -10 60 -10 30 0 57 5 60 10 4 6 -18 10 -60 10
-42 0 -64 -4 -60 -10z"/>
</g>
</svg>
