<?xml version="1.0" standalone="no"?>
<!DOCTYPE svg PUBLIC "-//W3C//DTD SVG 20010904//EN"
 "http://www.w3.org/TR/2001/REC-SVG-20010904/DTD/svg10.dtd">
<svg version="1.0" xmlns="http://www.w3.org/2000/svg"
 width="1630.000000pt" height="1136.000000pt" viewBox="0 0 1630.000000 1136.000000"
 preserveAspectRatio="xMidYMid meet">
<metadata>
Created by potrace 1.16, written by Peter Selinger 2001-2019
</metadata>
<g transform="translate(0.000000,1136.000000) scale(0.100000,-0.100000)"
fill="#000000" stroke="none">
<path d="M5560 6285 l0 -4725 -2366 0 c-1889 0 -2365 3 -2361 13 2 6 728 1330
1612 2942 885 1612 1625 2962 1646 3000 21 39 325 594 677 1235 636 1160 639
1165 672 1168 90 9 128 107 64 163 -69 60 -165 1 -150 -92 6 -36 -97 -227
-1970 -3641 -1087 -1982 -2038 -3715 -2114 -3853 -75 -137 -221 -404 -325
-592 l-188 -343 -253 0 c-163 0 -254 -4 -254 -10 0 -6 88 -10 245 -10 135 0
245 -3 245 -6 0 -4 -23 -49 -52 -101 -51 -93 -52 -94 -69 -72 l-16 22 -48 -28
-47 -28 -157 22 c-86 12 -164 25 -173 27 -10 3 -18 1 -18 -3 0 -9 281 -53 335
-53 17 0 45 9 63 20 18 11 36 20 40 20 5 0 25 -36 47 -79 l38 -79 36 28 c20
15 47 30 60 33 14 3 96 -5 184 -18 167 -26 195 -29 162 -16 -11 5 -92 19 -181
31 l-161 24 -48 -28 c-38 -23 -49 -26 -56 -15 -15 24 -11 34 62 168 l71 131
2373 0 2374 0 4 -32 4 -33 1 33 2 32 223 -2 222 -3 -3 -27 c-2 -14 2 -29 7
-33 7 -4 11 7 11 29 l0 36 2444 0 2444 0 81 -155 c82 -158 96 -201 64 -191
-37 10 -193 29 -198 24 -5 -5 193 -38 227 -38 10 0 36 -36 72 -102 31 -56 56
-105 56 -110 0 -13 -54 -9 -212 15 -82 13 -148 20 -148 16 0 -4 37 -12 83 -18
123 -17 135 -21 140 -39 4 -15 5 -14 6 2 1 12 6 16 17 12 9 -3 41 -6 73 -6
l57 0 44 -77 c24 -43 88 -152 142 -243 54 -91 96 -170 93 -177 -2 -7 2 -13 9
-13 7 0 42 -47 77 -105 35 -57 68 -105 72 -105 5 0 5 6 1 13 -5 6 -34 54 -66
105 -33 53 -58 105 -58 120 0 18 -3 23 -9 14 -5 -9 -46 50 -128 190 -175 295
-170 287 -154 297 11 7 40 -35 129 -187 64 -109 125 -215 136 -237 12 -22 24
-42 27 -45 3 -3 30 -43 59 -90 29 -47 64 -102 77 -123 14 -22 27 -37 29 -34 4
3 -73 133 -176 297 -5 8 -44 73 -86 143 -75 126 -76 129 -57 149 10 11 30 26
45 34 34 18 98 19 98 2 0 -10 2 -10 8 -1 6 10 36 8 132 -7 133 -21 157 -23
148 -14 -3 3 -79 16 -168 30 -174 26 -201 25 -253 -16 l-24 -19 -38 80 c-28
61 -41 78 -54 74 -12 -3 -26 14 -56 68 -48 87 -51 97 -30 97 10 0 35 10 56 22
21 12 40 20 42 17 2 -2 20 -40 40 -83 l37 -79 23 20 c55 50 82 52 277 23 73
-12 138 -19 144 -17 14 5 -20 12 -161 33 -103 15 -113 18 -114 38 -1 15 -3 16
-6 5 -2 -11 -19 -18 -44 -22 -22 -3 -57 -17 -78 -30 l-38 -25 -38 79 c-22 43
-41 79 -45 79 -3 0 -23 -12 -45 -25 -64 -40 -74 -35 -124 57 -31 57 -44 94
-44 118 1 28 0 30 -5 12 -6 -21 -12 -14 -50 56 -23 44 -42 82 -42 86 0 3 20 6
45 6 l44 0 4 -62 3 -63 2 63 2 62 224 0 225 0 4 -32 4 -33 1 33 2 32 1587 -2
1586 -3 43 -115 c45 -120 50 -145 34 -170 -7 -12 -15 -11 -51 9 -35 20 -51 23
-108 18 -92 -7 -300 -40 -279 -45 10 -2 82 6 160 18 154 24 193 22 238 -10 16
-12 33 -19 38 -16 4 2 23 37 42 78 19 40 36 75 37 77 2 3 14 -5 26 -18 44 -40
77 -42 256 -15 91 14 167 27 170 29 8 9 -33 5 -159 -15 -176 -28 -208 -27
-258 10 -40 28 -41 29 -47 9 -10 -30 -20 -15 -54 79 l-30 82 600 0 c393 0 599
3 599 10 0 7 -208 10 -603 10 l-602 0 -209 577 c-115 318 -224 619 -242 668
-17 50 -606 1676 -1309 3615 -1217 3361 -1276 3527 -1266 3562 13 41 4 74 -25
99 -63 54 -154 8 -154 -76 0 -37 50 -85 88 -85 24 0 32 -6 40 -27 14 -40 326
-901 497 -1373 819 -2260 2509 -6929 2512 -6943 5 -16 -75 -17 -1576 -17
l-1581 0 0 4725 0 4725 -235 0 -235 0 0 -4725 0 -4725 -53 0 -54 0 -105 218
c-650 1335 -1007 2479 -1277 4087 -71 421 -291 1900 -291 1953 0 8 18 12 48
12 74 0 433 28 702 55 302 30 562 45 787 45 164 0 173 1 198 23 39 33 44 85
11 124 -34 41 -61 46 -143 27 -215 -50 -472 -97 -640 -116 -169 -20 -193 -25
-193 -40 0 -10 -10 -20 -22 -22 -68 -15 -743 -64 -752 -55 -3 2 -26 157 -51
344 -49 353 -276 1653 -296 1692 -7 12 -18 24 -25 27 -10 4 -8 -4 5 -22 26
-37 234 -1200 301 -1683 46 -331 49 -394 21 -363 -4 5 -29 164 -55 354 -26
190 -99 635 -162 990 -63 355 -116 651 -117 659 -1 8 -7 16 -14 18 -9 3 -9 -3
-2 -24 22 -65 242 -1345 285 -1656 25 -186 44 -340 42 -342 -2 -2 -106 -7
-231 -11 l-229 -7 6 279 c4 153 11 533 16 844 10 539 24 891 37 914 3 6 0 6
-7 -1 -7 -6 -14 -24 -16 -40 -11 -102 -44 -1530 -44 -1911 0 -74 -2 -82 -19
-82 -18 0 -19 7 -15 138 2 75 9 445 15 822 5 377 14 753 19 835 5 83 10 169
10 192 0 33 7 50 30 75 28 32 29 32 30 10 0 -30 22 -24 31 9 l6 24 4 -25 c7
-44 24 -17 23 36 -1 44 2 53 25 69 23 15 27 23 25 64 -1 26 1 52 4 58 4 6 85
13 199 16 292 10 616 35 1078 82 83 9 287 18 455 21 177 3 317 10 333 16 28
11 57 53 57 83 0 31 -29 72 -60 85 -27 11 -58 7 -273 -39 -211 -45 -362 -69
-604 -96 -51 -6 -63 -10 -63 -25 0 -22 -12 -24 -325 -50 -296 -24 -577 -40
-707 -40 l-99 0 2 65 c3 84 -13 105 -81 105 -67 0 -80 -18 -80 -108 l0 -72
-247 0 c-383 0 -810 19 -1233 55 -249 22 -263 24 -257 45 4 15 -13 19 -147 35
-196 22 -337 46 -560 95 -100 22 -192 40 -204 40 -38 0 -82 -52 -82 -95 0 -27
8 -44 29 -66 l29 -29 209 0 c243 0 434 -11 773 -45 489 -48 1000 -75 1443 -75
l247 0 0 -53 c0 -53 19 -87 48 -87 22 0 -1 -64 -35 -96 -24 -23 -33 -40 -33
-65 -1 -19 -5 -93 -10 -165 -5 -72 -14 -411 -19 -755 -6 -343 -14 -729 -17
-858 l-6 -234 -417 7 c-229 3 -439 9 -466 12 -48 6 -51 8 -68 49 -33 79 -97
79 -134 0 -11 -23 -24 -35 -37 -35 -40 0 -491 40 -519 46 -18 4 -27 11 -25 22
2 13 -10 18 -62 24 -345 41 -373 46 -684 114 -135 30 -163 34 -188 23 -63 -26
-78 -100 -30 -148 l27 -28 295 -6 c162 -4 365 -14 450 -22 381 -35 591 -54
665 -60 l80 -7 0 -154 c0 -119 -3 -153 -12 -149 -10 3 -13 -17 -13 -80 l0 -85
-79 0 c-44 0 -83 -4 -86 -10 -4 -6 25 -10 79 -10 l86 0 0 -370 0 -369 -87 -4
-88 -3 88 -2 87 -2 0 -80 0 -80 125 0 125 0 -15 -36 c-8 -20 -15 -45 -15 -55
0 -23 42 -52 63 -43 9 3 24 -3 36 -15 26 -26 45 -27 71 -1 l20 20 0 -220 0
-219 -87 -4 -88 -3 88 -2 87 -2 0 -214 0 -214 -32 5 c-18 3 -35 7 -38 10 -3 3
7 4 22 1 15 -3 25 -1 22 3 -8 13 -48 11 -62 -3 -7 -7 -12 -20 -12 -30 0 -10
-7 -29 -15 -42 -9 -13 -17 -48 -18 -77 -2 -30 -9 -63 -15 -74 -10 -17 -11 -14
-12 23 l0 42 -92 -2 -93 -2 88 -3 87 -4 0 -534 0 -534 -92 -4 -93 -3 97 -2 96
-2 -16 -51 c-20 -61 -10 -83 38 -87 19 -2 44 -12 58 -22 25 -20 49 -17 70 8
10 13 12 -26 12 -201 l0 -217 -80 0 c-47 0 -80 -4 -80 -10 0 -6 33 -10 80 -10
l80 0 0 -215 c0 -215 0 -215 -20 -195 -11 11 -25 20 -31 20 -22 0 -49 -21 -49
-39 0 -10 -7 -32 -16 -49 -8 -17 -17 -53 -19 -79 -2 -26 -7 -57 -12 -68 -7
-16 -9 -13 -13 20 l-5 40 -90 -6 -90 -5 88 -2 87 -2 0 -530 0 -530 -85 0 c-50
0 -85 -4 -85 -10 0 -6 37 -10 90 -10 l90 0 0 270 0 269 88 4 87 3 -87 2 -88 2
0 220 0 220 20 -20 c25 -25 45 -25 69 -1 10 10 30 18 45 18 53 0 68 35 42 98
-14 33 -14 35 7 40 12 3 56 6 97 8 74 3 74 3 -17 5 l-93 2 0 530 0 530 85 0
c50 0 85 4 85 10 0 6 -37 10 -90 10 l-90 0 0 -42 c-1 -36 -2 -40 -11 -25 -6
11 -13 44 -15 75 -2 30 -11 66 -19 78 -8 13 -15 32 -15 43 0 19 -26 41 -49 41
-6 0 -20 -9 -31 -20 -20 -20 -20 -20 -20 200 l0 219 88 4 87 3 -87 2 -88 2 0
222 c0 204 1 221 16 200 17 -25 56 -29 74 -7 7 8 25 15 40 15 15 0 35 9 45 20
18 19 18 23 3 70 l-16 50 96 2 97 2 -90 5 -90 6 -3 532 -2 532 87 4 88 3 -92
2 -93 2 0 -37 c0 -58 -20 -26 -25 40 -3 50 -16 92 -44 147 -12 23 -62 25 -78
4 -11 -15 -13 19 -13 199 l0 217 86 0 c54 0 83 4 79 10 -3 6 -42 10 -86 10
l-79 0 0 269 c0 252 -1 269 -18 265 -16 -5 -17 5 -14 143 2 81 5 149 6 150 0
0 80 -3 176 -7 96 -5 303 -9 459 -9 l284 -1 -6 -262 c-4 -145 -7 -354 -7 -465
l0 -201 -32 -11 c-124 -44 -183 -196 -123 -318 42 -84 109 -125 206 -125 110
0 204 77 224 185 23 119 -65 249 -176 264 l-39 6 0 207 c0 114 3 322 7 462 l6
255 229 8 c126 4 231 5 233 3 2 -1 40 -257 84 -568 206 -1428 317 -2058 486
-2745 231 -939 592 -1920 1026 -2787 l79 -158 -2440 0 -2440 0 0 4725 0 4725
-235 0 -235 0 0 -4725z m450 4421 c0 -226 -3 -296 -12 -300 -10 -5 -10 -7 0
-12 6 -3 12 -12 12 -20 0 -8 -6 -14 -12 -15 -10 0 -10 -2 0 -6 9 -3 12 -44 12
-154 0 -135 -2 -149 -17 -150 -17 -1 -17 -2 0 -6 9 -2 17 -11 17 -19 0 -8 -8
-15 -17 -15 -17 -1 -17 -2 0 -6 16 -4 17 -60 17 -984 0 -776 -3 -979 -12 -980
-10 0 -10 -2 0 -6 6 -2 12 -11 12 -19 0 -10 -14 -15 -47 -16 l-48 -2 48 -3 47
-4 0 -3215 0 -3214 -220 0 -220 0 0 3215 0 3215 23 1 22 2 -22 4 c-13 2 -23
11 -23 19 0 8 10 15 23 15 l22 2 -22 4 -23 4 0 980 c0 925 1 979 18 980 16 1
16 2 0 6 -10 2 -18 11 -18 19 0 8 8 15 18 15 16 1 16 2 0 6 -16 4 -18 20 -18
154 0 147 0 149 23 150 l22 2 -22 4 c-28 5 -30 33 -3 33 11 0 20 5 20 10 0 6
-9 10 -20 10 -20 0 -20 7 -20 295 l0 295 220 0 220 0 0 -294z m5530 -1 c0
-256 -2 -295 -15 -295 -8 0 -15 -4 -15 -10 0 -5 7 -10 15 -10 20 0 19 -17 -2
-29 -17 -10 -17 -10 0 -11 15 0 17 -14 17 -150 0 -136 -2 -150 -17 -150 -17
-1 -17 -1 0 -11 9 -5 17 -14 17 -19 0 -6 -8 -10 -17 -10 -17 -1 -17 -1 0 -11
16 -9 17 -67 17 -979 0 -912 -1 -970 -17 -979 -17 -10 -17 -10 0 -11 9 0 17
-7 17 -15 0 -8 -8 -16 -17 -16 -17 -1 -17 -2 0 -6 16 -4 17 -166 17 -3219 l0
-3214 -225 0 -225 0 0 3215 0 3215 23 1 22 2 -22 4 c-13 2 -23 11 -23 19 0 8
10 15 23 15 l22 2 -22 4 -23 4 0 980 0 979 23 1 22 2 -22 4 c-13 2 -23 11 -23
19 0 8 10 15 23 15 l22 2 -22 4 c-23 4 -23 7 -23 154 0 148 0 149 23 150 l22
0 -22 9 c-28 12 -30 30 -3 30 11 0 20 5 20 10 0 6 -9 10 -20 10 -20 0 -20 7
-20 295 l0 295 225 0 225 0 0 -295z m-5193 -291 c218 -47 381 -74 571 -95 61
-6 112 -16 112 -21 0 -5 -22 -7 -52 -4 -29 4 -112 13 -185 21 -131 14 -270 40
-498 91 -66 14 -129 28 -140 31 -28 6 -75 -33 -75 -62 0 -13 11 -32 25 -43 22
-18 48 -20 347 -25 303 -6 560 -25 576 -42 4 -4 -31 -5 -78 -2 -289 22 -409
27 -613 30 l-229 2 -24 28 c-13 15 -24 39 -24 53 0 25 48 84 68 84 6 0 104
-20 219 -46z m4686 14 c23 -27 22 -80 -2 -109 -19 -24 -21 -24 -253 -26 -208
-3 -399 -12 -615 -30 -46 -4 -73 -2 -73 4 0 17 262 35 585 40 347 5 355 7 355
68 0 25 -6 39 -24 50 -23 15 -35 14 -183 -19 -244 -54 -302 -65 -450 -85 -205
-29 -283 -35 -283 -22 0 6 6 11 13 11 6 0 86 9 177 20 183 22 300 42 530 94
164 37 195 37 223 4z m-4845 -38 c18 -11 40 -20 50 -20 14 1 12 5 -8 22 l-25
21 25 -6 c14 -3 88 -20 165 -36 248 -53 243 -51 100 -46 -71 3 -164 5 -205 5
-50 0 -70 3 -60 10 28 17 1 22 -50 9 -48 -12 -53 -12 -66 5 -9 13 -10 24 -3
37 13 24 36 24 77 -1z m4698 5 c-34 -26 -7 -30 37 -6 55 30 82 26 82 -14 0
-27 -3 -30 -30 -29 -16 1 -48 5 -70 9 -37 6 -39 5 -21 -9 18 -15 14 -16 -60
-16 -43 0 -137 -2 -209 -5 l-130 -6 160 35 c88 19 178 39 200 44 56 14 63 13
41 -3z m-1974 -42 c14 -12 18 -31 18 -80 l0 -63 -70 0 -70 0 0 64 c0 56 3 67
22 80 29 21 77 20 100 -1z m-1642 -108 c424 -37 811 -55 1213 -55 223 0 296
-3 291 -12 -8 -13 -583 -5 -924 13 -400 20 -810 56 -810 71 0 5 15 6 33 3 17
-3 106 -12 197 -20z m2810 16 c0 -18 -826 -81 -1074 -81 -141 0 -52 11 160 21
309 13 588 34 902 68 6 0 12 -3 12 -8z m-1182 -78 c-21 -2 -55 -2 -75 0 -21 2
-4 4 37 4 41 0 58 -2 38 -4z m32 -33 c0 -6 -30 -10 -70 -10 -40 0 -70 4 -70
10 0 6 30 10 70 10 40 0 70 -4 70 -10z m0 -60 c0 -29 -5 -42 -20 -50 -22 -12
-22 -11 -24 45 -1 20 -7 31 -20 33 -25 5 -35 -14 -29 -55 6 -37 -1 -41 -29
-16 -10 9 -18 30 -18 50 l0 33 70 0 70 0 0 -40z m-55 10 c3 -5 -1 -10 -9 -10
-9 0 -16 5 -16 10 0 6 4 10 9 10 6 0 13 -4 16 -10z m-3378 -32 c48 -45 13
-138 -52 -138 -33 0 -28 22 6 27 46 7 64 60 32 95 -34 38 -85 16 -98 -43 -5
-21 -10 -28 -17 -21 -15 15 1 70 25 87 31 22 77 19 104 -7z m6220 0 c23 -22
33 -88 13 -88 -5 0 -10 12 -10 27 0 53 -59 83 -95 47 -10 -10 -15 -29 -13 -48
2 -24 10 -34 36 -45 36 -17 42 -31 11 -31 -11 0 -34 14 -51 30 -25 26 -29 36
-24 63 12 64 86 89 133 45z m-6242 -28 c15 -17 16 -24 7 -45 -13 -28 -42 -34
-42 -9 0 9 -9 18 -20 21 -25 7 -26 29 -2 42 25 15 37 13 57 -9z m6217 3 c22
-20 23 -33 2 -33 -9 0 -18 -9 -21 -20 -10 -37 -53 -16 -53 27 0 20 22 42 44
43 5 0 18 -7 28 -17z m-6269 -49 c8 -9 17 8 -458 -859 -233 -423 -436 -795
-453 -825 -2378 -4338 -3695 -6737 -3702 -6743 -4 -5 -14 -7 -22 -5 -13 3 100
215 552 1033 48 88 966 1762 2040 3720 1074 1958 1968 3588 1987 3623 34 60
43 69 56 56z m6473 -521 c101 -279 276 -762 389 -1073 1545 -4265 2473 -6835
2470 -6838 -2 -3 -10 -2 -17 1 -16 6 -3061 8414 -3052 8428 4 7 10 7 16 1 6
-6 93 -239 194 -519z m-5541 -1413 c210 -46 378 -74 545 -91 63 -6 120 -16
125 -21 25 -26 -341 23 -625 83 -129 27 -247 49 -262 49 -49 0 -75 -63 -40
-98 17 -17 46 -19 333 -25 173 -4 373 -14 444 -22 72 -8 137 -15 145 -15 8 0
10 -3 5 -9 -6 -5 -66 -3 -145 5 -74 8 -272 16 -440 20 -168 3 -317 10 -331 15
-51 19 -63 85 -24 124 32 33 52 32 270 -15z m4665 30 c25 -13 41 -65 30 -94
-19 -52 -38 -56 -260 -56 -200 0 -453 -12 -615 -30 -78 -8 -95 -7 -82 7 15 14
309 35 601 41 l309 7 20 26 c17 24 18 30 6 55 -20 42 -47 41 -264 -6 -225 -48
-454 -86 -582 -96 -143 -10 -113 11 35 25 159 16 374 52 562 96 154 35 210 41
240 25z m-4833 -51 c37 -23 35 -31 -13 -47 -38 -12 -64 1 -64 32 0 43 24 47
77 15z m363 -54 c62 -13 57 -13 -140 -13 -164 -1 -202 2 -188 12 24 18 26 43
3 60 -14 11 19 6 120 -15 77 -17 169 -37 205 -44z m4343 63 c-14 -7 -23 -20
-23 -33 0 -13 9 -26 23 -32 16 -8 -33 -11 -183 -11 l-205 -1 195 43 c215 48
225 50 193 34z m105 0 c17 -17 15 -45 -5 -56 -11 -7 -31 -5 -61 6 l-45 15 39
23 c44 27 55 29 72 12z m-3264 -113 c9 -13 23 -50 31 -82 22 -84 18 -313 -5
-313 -4 0 -4 19 1 43 20 106 2 285 -35 341 -23 36 -54 31 -75 -11 -9 -18 -19
-33 -24 -33 -10 0 22 63 37 72 22 15 54 7 70 -17z m-24 -10 c11 -13 8 -15 -14
-15 -25 0 -33 10 -19 23 10 11 19 8 33 -8z m-345 -40 c99 -8 209 -17 244 -20
112 -10 81 -18 -39 -11 -186 12 -522 44 -529 52 -3 4 28 4 69 1 41 -4 156 -13
255 -22z m2713 20 c-10 -10 -670 -66 -755 -64 -25 0 -26 1 -8 9 11 4 110 14
220 20 110 7 256 18 325 25 138 14 226 18 218 10z m-2358 -17 c0 -7 -11 -13
-25 -13 -14 0 -25 6 -25 13 0 6 11 12 25 12 14 0 25 -6 25 -12z m20 -36 c0 -5
-7 -9 -15 -9 -8 0 -15 4 -15 9 0 4 7 8 15 8 8 0 15 -4 15 -8z m475 -10 c215
-5 414 -7 443 -4 37 3 52 0 52 -9 0 -10 -77 -11 -377 -6 -407 7 -553 15 -553
29 0 4 10 6 23 3 12 -3 198 -9 412 -13z m1010 -1 c-32 -13 -455 -23 -455 -12
0 7 64 12 168 14 92 1 199 3 237 4 43 1 62 -1 50 -6z m-1609 -113 c0 -62 2
-133 6 -158 6 -33 5 -40 -3 -28 -14 25 -23 172 -15 241 4 31 9 57 10 57 2 0 3
-51 2 -112z m50 22 c19 0 19 -137 0 -163 -8 -10 -12 -27 -9 -37 8 -30 -6 -24
-18 8 -13 32 -15 255 -3 274 6 8 10 -4 12 -34 2 -34 7 -48 18 -48z m1094 80
c0 -5 -9 -10 -21 -10 -11 0 -17 5 -14 10 3 6 13 10 21 10 8 0 14 -4 14 -10z
m-1041 -40 c-1 -19 -3 -27 -6 -17 -2 9 -11 17 -18 17 -7 0 -16 -8 -18 -17 -3
-10 -5 -2 -6 17 -1 31 2 35 24 35 22 0 25 -4 24 -35z m36 -148 l-7 -82 -19 24
c-25 32 -28 166 -4 166 11 0 15 12 16 43 l1 42 10 -55 c5 -30 6 -92 3 -138z
m1605 -337 c237 -1672 390 -2480 627 -3300 214 -744 558 -1617 918 -2335 52
-103 54 -111 34 -108 -19 2 -43 45 -135 238 -639 1333 -987 2447 -1249 3995
-125 742 -309 2016 -292 2027 6 4 15 4 18 0 3 -4 39 -236 79 -517z m-607 133
c-6 -443 -12 -549 -32 -556 -12 -4 -13 42 -8 313 4 175 7 385 7 467 0 139 1
148 19 148 18 0 19 -12 14 -372z m-1023 78 c0 -21 -17 -36 -40 -36 -31 0 -48
-34 -28 -57 26 -32 69 -2 98 67 8 18 20 30 31 30 18 0 19 -18 19 -530 l0 -530
-115 0 -115 0 0 25 c0 19 6 25 23 26 l22 2 -22 4 c-13 2 -23 11 -23 19 0 8 10
15 23 15 l22 2 -22 4 -23 4 0 480 0 479 75 0 c41 0 75 -2 75 -4z m23 -13 c-16
-43 -36 -63 -62 -62 -24 2 -25 2 -3 6 13 3 33 20 44 39 22 37 31 44 21 17z
m989 -765 l2 -133 3 110 c4 154 6 159 50 152 52 -9 108 -50 139 -103 57 -98
28 -224 -67 -290 -38 -26 -50 -29 -120 -29 -70 0 -82 3 -121 30 -53 37 -98
120 -98 179 1 73 52 161 112 192 52 27 53 25 51 -123 -1 -104 1 -124 7 -83 4
30 8 94 9 143 1 70 4 87 16 87 12 0 15 -22 17 -132z m-909 -259 c-8 -29 -13
-23 -13 14 0 22 3 28 9 18 5 -7 6 -22 4 -32z m87 -44 c0 -48 -4 -59 -27 -80
-32 -28 -61 -32 -69 -10 -7 18 23 110 43 130 8 8 23 15 34 15 16 0 19 -7 19
-55z m25 -1015 c8 -13 -5 -13 -25 0 -13 8 -13 10 2 10 9 0 20 -4 23 -10z m34
-52 c0 -27 -2 -29 -8 -13 -5 11 -6 26 -4 33 8 21 13 13 12 -20z m-42 -11 c8
-8 43 -112 43 -127 0 -29 -43 -26 -75 5 -21 22 -25 35 -25 82 l0 55 27 -7 c16
-4 29 -7 30 -8z m-52 -167 c4 -6 12 -7 18 -3 7 4 6 0 -2 -10 -7 -9 -21 -17
-30 -16 -12 0 -11 2 4 9 17 7 17 9 3 9 -10 1 -18 6 -18 11 0 13 17 13 25 0z
m-52 -961 c-8 -29 -13 -23 -13 14 0 22 3 28 9 18 5 -7 6 -22 4 -32z m87 -50
c0 -44 -4 -59 -14 -59 -8 0 -16 -7 -20 -15 -7 -19 -66 -21 -66 -2 0 7 9 41 21
74 16 47 26 63 42 65 34 6 37 1 37 -63z m25 -109 c-3 -5 -14 -10 -23 -10 -15
0 -15 2 -2 10 20 13 33 13 25 0z m34 -952 c0 -27 -2 -29 -8 -13 -5 11 -6 26
-4 33 8 21 13 13 12 -20z m-47 -10 c19 -16 52 -113 44 -133 -8 -22 -37 -18
-68 10 -24 21 -28 32 -28 80 0 46 3 55 18 55 10 0 25 -6 34 -12z m-52 -175 c0
-3 -9 2 -20 12 -11 10 -20 22 -20 27 0 4 9 -1 20 -12 11 -11 20 -23 20 -27z
m-7092 -1415 c-8 -13 -38 -67 -67 -120 -57 -105 -66 -116 -75 -92 -4 9 19 60
55 125 46 83 66 109 81 109 19 0 19 -2 6 -22z m10236 -82 c31 -57 56 -111 56
-120 0 -9 4 -16 9 -16 4 0 23 -27 40 -60 21 -40 28 -60 19 -60 -31 1 -58 41
-58 87 0 19 -3 24 -9 15 -6 -9 -30 29 -78 122 -57 112 -67 136 -52 136 12 0
35 -31 73 -104z m3781 3 c27 -75 35 -107 28 -122 -8 -16 -17 0 -51 95 -47 130
-47 128 -28 128 8 0 28 -39 51 -101z m-3591 -353 c49 -90 55 -109 30 -104 -8
2 -38 45 -65 96 -45 82 -48 92 -31 92 15 0 32 -22 66 -84z m128 -176 c20 -44
35 -80 33 -80 -5 0 -85 146 -85 154 0 3 4 6 8 6 4 0 24 -36 44 -80z"/>
<path d="M5620 10400 c0 -5 11 -10 25 -10 14 0 25 5 25 10 0 6 -11 10 -25 10
-14 0 -25 -4 -25 -10z"/>
<path d="M5680 10400 c0 -5 11 -10 25 -10 14 0 25 5 25 10 0 6 -11 10 -25 10
-14 0 -25 -4 -25 -10z"/>
<path d="M5740 10400 c0 -5 11 -10 25 -10 14 0 25 5 25 10 0 6 -11 10 -25 10
-14 0 -25 -4 -25 -10z"/>
<path d="M5805 10400 c-4 -6 5 -10 19 -10 14 0 26 5 26 10 0 6 -9 10 -19 10
-11 0 -23 -4 -26 -10z"/>
<path d="M5870 10400 c0 -5 9 -10 20 -10 11 0 20 5 20 10 0 6 -9 10 -20 10
-11 0 -20 -4 -20 -10z"/>
<path d="M5930 10400 c0 -5 9 -10 20 -10 11 0 20 5 20 10 0 6 -9 10 -20 10
-11 0 -20 -4 -20 -10z"/>
<path d="M5633 10353 c9 -2 23 -2 30 0 6 3 -1 5 -18 5 -16 0 -22 -2 -12 -5z"/>
<path d="M5693 10353 c9 -2 23 -2 30 0 6 3 -1 5 -18 5 -16 0 -22 -2 -12 -5z"/>
<path d="M5753 10353 c9 -2 23 -2 30 0 6 3 -1 5 -18 5 -16 0 -22 -2 -12 -5z"/>
<path d="M5813 10353 c9 -2 23 -2 30 0 6 3 -1 5 -18 5 -16 0 -22 -2 -12 -5z"/>
<path d="M5873 10353 c9 -2 23 -2 30 0 6 3 -1 5 -18 5 -16 0 -22 -2 -12 -5z"/>
<path d="M5623 10043 c9 -2 23 -2 30 0 6 3 -1 5 -18 5 -16 0 -22 -2 -12 -5z"/>
<path d="M5683 10043 c9 -2 23 -2 30 0 6 3 -1 5 -18 5 -16 0 -22 -2 -12 -5z"/>
<path d="M5743 10043 c9 -2 23 -2 30 0 6 3 -1 5 -18 5 -16 0 -22 -2 -12 -5z"/>
<path d="M5803 10043 c9 -2 23 -2 30 0 6 3 -1 5 -18 5 -16 0 -22 -2 -12 -5z"/>
<path d="M5863 10043 c9 -2 23 -2 30 0 6 3 -1 5 -18 5 -16 0 -22 -2 -12 -5z"/>
<path d="M5923 10043 c9 -2 25 -2 35 0 9 3 1 5 -18 5 -19 0 -27 -2 -17 -5z"/>
<path d="M5623 10003 c9 -2 23 -2 30 0 6 3 -1 5 -18 5 -16 0 -22 -2 -12 -5z"/>
<path d="M5683 10003 c9 -2 23 -2 30 0 6 3 -1 5 -18 5 -16 0 -22 -2 -12 -5z"/>
<path d="M5743 10003 c9 -2 23 -2 30 0 6 3 -1 5 -18 5 -16 0 -22 -2 -12 -5z"/>
<path d="M5803 10003 c9 -2 23 -2 30 0 6 3 -1 5 -18 5 -16 0 -22 -2 -12 -5z"/>
<path d="M5863 10003 c9 -2 23 -2 30 0 6 3 -1 5 -18 5 -16 0 -22 -2 -12 -5z"/>
<path d="M5633 8033 c9 -2 23 -2 30 0 6 3 -1 5 -18 5 -16 0 -22 -2 -12 -5z"/>
<path d="M5693 8033 c9 -2 23 -2 30 0 6 3 -1 5 -18 5 -16 0 -22 -2 -12 -5z"/>
<path d="M5753 8033 c9 -2 23 -2 30 0 6 3 -1 5 -18 5 -16 0 -22 -2 -12 -5z"/>
<path d="M5813 8033 c9 -2 23 -2 30 0 6 3 -1 5 -18 5 -16 0 -22 -2 -12 -5z"/>
<path d="M5873 8033 c9 -2 23 -2 30 0 6 3 -1 5 -18 5 -16 0 -22 -2 -12 -5z"/>
<path d="M5933 8033 c9 -2 23 -2 30 0 6 3 -1 5 -18 5 -16 0 -22 -2 -12 -5z"/>
<path d="M5633 7993 c9 -2 23 -2 30 0 6 3 -1 5 -18 5 -16 0 -22 -2 -12 -5z"/>
<path d="M5693 7993 c9 -2 23 -2 30 0 6 3 -1 5 -18 5 -16 0 -22 -2 -12 -5z"/>
<path d="M5753 7993 c9 -2 23 -2 30 0 6 3 -1 5 -18 5 -16 0 -22 -2 -12 -5z"/>
<path d="M5813 7993 c9 -2 23 -2 30 0 6 3 -1 5 -18 5 -16 0 -22 -2 -12 -5z"/>
<path d="M5873 7993 c9 -2 23 -2 30 0 6 3 -1 5 -18 5 -16 0 -22 -2 -12 -5z"/>
<path d="M11140 10400 c0 -5 11 -10 25 -10 14 0 25 5 25 10 0 6 -11 10 -25 10
-14 0 -25 -4 -25 -10z"/>
<path d="M11205 10400 c-4 -6 5 -10 19 -10 14 0 26 5 26 10 0 6 -9 10 -19 10
-11 0 -23 -4 -26 -10z"/>
<path d="M11270 10400 c0 -5 9 -10 20 -10 11 0 20 5 20 10 0 6 -9 10 -20 10
-11 0 -20 -4 -20 -10z"/>
<path d="M11330 10400 c0 -5 9 -10 20 -10 11 0 20 5 20 10 0 6 -9 10 -20 10
-11 0 -20 -4 -20 -10z"/>
<path d="M11390 10400 c0 -5 9 -10 20 -10 11 0 20 5 20 10 0 6 -9 10 -20 10
-11 0 -20 -4 -20 -10z"/>
<path d="M11450 10400 c0 -5 9 -10 20 -10 11 0 20 5 20 10 0 6 -9 10 -20 10
-11 0 -20 -4 -20 -10z"/>
<path d="M11153 10353 c9 -2 23 -2 30 0 6 3 -1 5 -18 5 -16 0 -22 -2 -12 -5z"/>
<path d="M11213 10353 c9 -2 23 -2 30 0 6 3 -1 5 -18 5 -16 0 -22 -2 -12 -5z"/>
<path d="M11273 10353 c9 -2 23 -2 30 0 6 3 -1 5 -18 5 -16 0 -22 -2 -12 -5z"/>
<path d="M11333 10353 c9 -2 23 -2 30 0 6 3 -1 5 -18 5 -16 0 -22 -2 -12 -5z"/>
<path d="M11463 10353 c9 -2 23 -2 30 0 6 3 -1 5 -18 5 -16 0 -22 -2 -12 -5z"/>
<path d="M11153 10043 c9 -2 23 -2 30 0 6 3 -1 5 -18 5 -16 0 -22 -2 -12 -5z"/>
<path d="M11213 10043 c9 -2 23 -2 30 0 6 3 -1 5 -18 5 -16 0 -22 -2 -12 -5z"/>
<path d="M11273 10043 c9 -2 23 -2 30 0 6 3 -1 5 -18 5 -16 0 -22 -2 -12 -5z"/>
<path d="M11333 10043 c9 -2 23 -2 30 0 6 3 -1 5 -18 5 -16 0 -22 -2 -12 -5z"/>
<path d="M11393 10043 c9 -2 25 -2 35 0 9 3 1 5 -18 5 -19 0 -27 -2 -17 -5z"/>
<path d="M11463 10043 c9 -2 23 -2 30 0 6 3 -1 5 -18 5 -16 0 -22 -2 -12 -5z"/>
<path d="M11153 10003 c9 -2 23 -2 30 0 6 3 -1 5 -18 5 -16 0 -22 -2 -12 -5z"/>
<path d="M11213 10003 c9 -2 23 -2 30 0 6 3 -1 5 -18 5 -16 0 -22 -2 -12 -5z"/>
<path d="M11273 10003 c9 -2 23 -2 30 0 6 3 -1 5 -18 5 -16 0 -22 -2 -12 -5z"/>
<path d="M11333 10003 c9 -2 23 -2 30 0 6 3 -1 5 -18 5 -16 0 -22 -2 -12 -5z"/>
<path d="M11463 10003 c9 -2 23 -2 30 0 6 3 -1 5 -18 5 -16 0 -22 -2 -12 -5z"/>
<path d="M11153 8033 c9 -2 23 -2 30 0 6 3 -1 5 -18 5 -16 0 -22 -2 -12 -5z"/>
<path d="M11213 8033 c9 -2 23 -2 30 0 6 3 -1 5 -18 5 -16 0 -22 -2 -12 -5z"/>
<path d="M11273 8033 c9 -2 23 -2 30 0 6 3 -1 5 -18 5 -16 0 -22 -2 -12 -5z"/>
<path d="M11333 8033 c9 -2 23 -2 30 0 6 3 -1 5 -18 5 -16 0 -22 -2 -12 -5z"/>
<path d="M11463 8033 c9 -2 23 -2 30 0 6 3 -1 5 -18 5 -16 0 -22 -2 -12 -5z"/>
<path d="M11153 7993 c9 -2 23 -2 30 0 6 3 -1 5 -18 5 -16 0 -22 -2 -12 -5z"/>
<path d="M11213 7993 c9 -2 23 -2 30 0 6 3 -1 5 -18 5 -16 0 -22 -2 -12 -5z"/>
<path d="M11273 7993 c9 -2 23 -2 30 0 6 3 -1 5 -18 5 -16 0 -22 -2 -12 -5z"/>
<path d="M11333 7993 c9 -2 23 -2 30 0 6 3 -1 5 -18 5 -16 0 -22 -2 -12 -5z"/>
<path d="M11393 7993 c9 -2 25 -2 35 0 9 3 1 5 -18 5 -19 0 -27 -2 -17 -5z"/>
<path d="M11463 7993 c9 -2 23 -2 30 0 6 3 -1 5 -18 5 -16 0 -22 -2 -12 -5z"/>
<path d="M8810 10335 c0 -11 12 -15 50 -15 38 0 50 4 50 15 0 11 -12 15 -50
15 -38 0 -50 -4 -50 -15z"/>
<path d="M8840 10271 c0 -26 17 -36 35 -21 18 15 8 40 -16 40 -12 0 -19 -7
-19 -19z"/>
<path d="M7643 6553 c9 -2 23 -2 30 0 6 3 -1 5 -18 5 -16 0 -22 -2 -12 -5z"/>
<path d="M7703 6553 c9 -2 23 -2 30 0 6 3 -1 5 -18 5 -16 0 -22 -2 -12 -5z"/>
<path d="M7763 6553 c9 -2 23 -2 30 0 6 3 -1 5 -18 5 -16 0 -22 -2 -12 -5z"/>
<path d="M7643 6513 c9 -2 23 -2 30 0 6 3 -1 5 -18 5 -16 0 -22 -2 -12 -5z"/>
<path d="M7703 6513 c9 -2 23 -2 30 0 6 3 -1 5 -18 5 -16 0 -22 -2 -12 -5z"/>
<path d="M7763 6513 c9 -2 23 -2 30 0 6 3 -1 5 -18 5 -16 0 -22 -2 -12 -5z"/>
<path d="M8198 6403 c15 -3 22 -11 22 -28 0 -17 -7 -25 -22 -28 l-23 -4 23 -2
c12 0 22 -7 22 -15 0 -8 -10 -17 -22 -19 l-23 -4 23 -2 22 -1 0 -429 0 -430
-22 -4 -23 -4 23 -2 c12 0 22 -7 22 -15 0 -8 -10 -17 -22 -19 l-23 -4 23 -2
c17 -1 22 -7 22 -30 0 -23 -5 -31 -22 -34 -20 -4 -19 -4 4 -6 27 -1 27 -1 30
77 l3 77 85 6 85 5 -87 2 -88 2 0 370 0 370 88 2 87 2 -85 5 -85 6 0 83 0 82
-30 -1 c-24 -1 -25 -3 -7 -6z"/>
<path d="M8013 6343 c9 -2 23 -2 30 0 6 3 -1 5 -18 5 -16 0 -22 -2 -12 -5z"/>
<path d="M8073 6343 c9 -2 23 -2 30 0 6 3 -1 5 -18 5 -16 0 -22 -2 -12 -5z"/>
<path d="M8133 6343 c9 -2 23 -2 30 0 6 3 -1 5 -18 5 -16 0 -22 -2 -12 -5z"/>
<path d="M8013 6303 c9 -2 23 -2 30 0 6 3 -1 5 -18 5 -16 0 -22 -2 -12 -5z"/>
<path d="M8073 6303 c9 -2 23 -2 30 0 6 3 -1 5 -18 5 -16 0 -22 -2 -12 -5z"/>
<path d="M8133 6303 c9 -2 23 -2 30 0 6 3 -1 5 -18 5 -16 0 -22 -2 -12 -5z"/>
<path d="M8013 5433 c9 -2 23 -2 30 0 6 3 -1 5 -18 5 -16 0 -22 -2 -12 -5z"/>
<path d="M8073 5433 c9 -2 23 -2 30 0 6 3 -1 5 -18 5 -16 0 -22 -2 -12 -5z"/>
<path d="M8133 5433 c9 -2 23 -2 30 0 6 3 -1 5 -18 5 -16 0 -22 -2 -12 -5z"/>
<path d="M8013 5393 c9 -2 23 -2 30 0 6 3 -1 5 -18 5 -16 0 -22 -2 -12 -5z"/>
<path d="M8073 5393 c9 -2 23 -2 30 0 6 3 -1 5 -18 5 -16 0 -22 -2 -12 -5z"/>
<path d="M8133 5393 c9 -2 23 -2 30 0 6 3 -1 5 -18 5 -16 0 -22 -2 -12 -5z"/>
<path d="M7570 5205 l0 -84 -87 -4 -88 -3 88 -2 87 -2 0 -370 0 -370 -87 -2
-88 -2 85 -5 85 -6 3 -77 c3 -78 3 -78 30 -77 23 2 24 2 5 6 -16 3 -23 11 -23
28 0 15 8 25 23 30 l22 8 -22 4 c-28 5 -30 23 -3 23 11 0 20 5 20 10 0 6 -9
10 -20 10 -20 0 -20 7 -20 424 l0 424 23 7 22 8 -22 4 c-28 5 -30 23 -3 23 11
0 20 5 20 10 0 6 -9 10 -20 10 -30 0 -28 47 3 53 19 4 18 4 -5 6 l-28 1 0 -85z"/>
<path d="M7630 5220 c0 -5 11 -10 25 -10 14 0 25 5 25 10 0 6 -11 10 -25 10
-14 0 -25 -4 -25 -10z"/>
<path d="M7690 5220 c0 -5 11 -10 25 -10 14 0 25 5 25 10 0 6 -11 10 -25 10
-14 0 -25 -4 -25 -10z"/>
<path d="M7750 5220 c0 -5 11 -10 25 -10 14 0 25 5 25 10 0 6 -11 10 -25 10
-14 0 -25 -4 -25 -10z"/>
<path d="M7630 5180 c0 -5 11 -10 25 -10 14 0 25 5 25 10 0 6 -11 10 -25 10
-14 0 -25 -4 -25 -10z"/>
<path d="M7690 5180 c0 -5 11 -10 25 -10 14 0 25 5 25 10 0 6 -11 10 -25 10
-14 0 -25 -4 -25 -10z"/>
<path d="M7755 5180 c3 -5 15 -10 26 -10 10 0 19 5 19 10 0 6 -12 10 -26 10
-14 0 -23 -4 -19 -10z"/>
<path d="M7630 4310 c0 -5 11 -10 25 -10 14 0 25 5 25 10 0 6 -11 10 -25 10
-14 0 -25 -4 -25 -10z"/>
<path d="M7690 4310 c0 -5 11 -10 25 -10 14 0 25 5 25 10 0 6 -11 10 -25 10
-14 0 -25 -4 -25 -10z"/>
<path d="M7750 4310 c0 -5 11 -10 25 -10 14 0 25 5 25 10 0 6 -11 10 -25 10
-14 0 -25 -4 -25 -10z"/>
<path d="M7630 4270 c0 -5 9 -10 19 -10 11 0 23 5 26 10 4 6 -5 10 -19 10 -14
0 -26 -4 -26 -10z"/>
<path d="M7695 4270 c3 -5 15 -10 26 -10 10 0 19 5 19 10 0 6 -12 10 -26 10
-14 0 -23 -4 -19 -10z"/>
<path d="M7755 4270 c3 -5 15 -10 26 -10 10 0 19 5 19 10 0 6 -12 10 -26 10
-14 0 -23 -4 -19 -10z"/>
<path d="M8185 4160 c-3 -5 3 -10 14 -10 31 0 29 -47 -1 -53 l-23 -4 23 -2
c12 0 22 -7 22 -15 0 -8 -10 -17 -22 -19 l-23 -4 23 -2 22 -1 0 -429 0 -430
-22 -4 -23 -4 23 -2 c12 0 22 -7 22 -15 0 -8 -10 -17 -22 -19 l-23 -4 23 -2
c16 -1 22 -7 22 -25 0 -18 -6 -26 -22 -28 -21 -3 -21 -4 5 -9 l27 -6 0 78 0
78 88 4 87 3 -87 2 -88 2 0 370 0 370 85 0 c50 0 85 4 85 10 0 6 -35 10 -85
10 l-85 0 0 85 c0 77 -2 85 -19 85 -11 0 -23 -4 -26 -10z"/>
<path d="M8013 4093 c9 -2 23 -2 30 0 6 3 -1 5 -18 5 -16 0 -22 -2 -12 -5z"/>
<path d="M8073 4093 c9 -2 23 -2 30 0 6 3 -1 5 -18 5 -16 0 -22 -2 -12 -5z"/>
<path d="M8133 4093 c9 -2 23 -2 30 0 6 3 -1 5 -18 5 -16 0 -22 -2 -12 -5z"/>
<path d="M8013 4053 c9 -2 23 -2 30 0 6 3 -1 5 -18 5 -16 0 -22 -2 -12 -5z"/>
<path d="M8073 4053 c9 -2 23 -2 30 0 6 3 -1 5 -18 5 -16 0 -22 -2 -12 -5z"/>
<path d="M8133 4053 c9 -2 23 -2 30 0 6 3 -1 5 -18 5 -16 0 -22 -2 -12 -5z"/>
<path d="M8013 3183 c9 -2 23 -2 30 0 6 3 -1 5 -18 5 -16 0 -22 -2 -12 -5z"/>
<path d="M8073 3183 c9 -2 23 -2 30 0 6 3 -1 5 -18 5 -16 0 -22 -2 -12 -5z"/>
<path d="M8133 3183 c9 -2 23 -2 30 0 6 3 -1 5 -18 5 -16 0 -22 -2 -12 -5z"/>
<path d="M8013 3143 c9 -2 23 -2 30 0 6 3 -1 5 -18 5 -16 0 -22 -2 -12 -5z"/>
<path d="M8073 3143 c9 -2 23 -2 30 0 6 3 -1 5 -18 5 -16 0 -22 -2 -12 -5z"/>
<path d="M8133 3143 c9 -2 23 -2 30 0 6 3 -1 5 -18 5 -16 0 -22 -2 -12 -5z"/>
<path d="M7568 2961 l-3 -86 -85 -6 -85 -5 88 -2 87 -2 0 -370 0 -369 -87 -4
-88 -3 88 -2 87 -2 0 -80 c0 -79 0 -80 26 -80 14 0 23 4 19 10 -3 6 -13 10
-21 10 -8 0 -14 10 -14 24 0 18 7 26 23 29 l22 4 -22 2 c-13 0 -23 7 -23 15 0
8 10 17 23 19 l22 4 -22 2 -23 1 0 429 0 430 23 4 22 4 -22 2 c-13 0 -23 7
-23 15 0 8 10 17 23 19 l22 4 -22 2 c-17 1 -23 7 -23 25 0 18 6 26 23 28 20 3
20 4 -5 9 l-27 6 -3 -86z"/>
<path d="M7643 2973 c9 -2 23 -2 30 0 6 3 -1 5 -18 5 -16 0 -22 -2 -12 -5z"/>
<path d="M7703 2973 c9 -2 23 -2 30 0 6 3 -1 5 -18 5 -16 0 -22 -2 -12 -5z"/>
<path d="M7763 2973 c9 -2 23 -2 30 0 6 3 -1 5 -18 5 -16 0 -22 -2 -12 -5z"/>
<path d="M7643 2933 c9 -2 23 -2 30 0 6 3 -1 5 -18 5 -16 0 -22 -2 -12 -5z"/>
<path d="M7703 2933 c9 -2 23 -2 30 0 6 3 -1 5 -18 5 -16 0 -22 -2 -12 -5z"/>
<path d="M7763 2933 c9 -2 23 -2 30 0 6 3 -1 5 -18 5 -16 0 -22 -2 -12 -5z"/>
<path d="M7643 2063 c9 -2 23 -2 30 0 6 3 -1 5 -18 5 -16 0 -22 -2 -12 -5z"/>
<path d="M7703 2063 c9 -2 23 -2 30 0 6 3 -1 5 -18 5 -16 0 -22 -2 -12 -5z"/>
<path d="M7763 2063 c9 -2 23 -2 30 0 6 3 -1 5 -18 5 -16 0 -22 -2 -12 -5z"/>
<path d="M7643 2023 c9 -2 23 -2 30 0 6 3 -1 5 -18 5 -16 0 -22 -2 -12 -5z"/>
<path d="M7703 2023 c9 -2 23 -2 30 0 6 3 -1 5 -18 5 -16 0 -22 -2 -12 -5z"/>
<path d="M7763 2023 c9 -2 23 -2 30 0 6 3 -1 5 -18 5 -16 0 -22 -2 -12 -5z"/>
<path d="M5562 1445 c0 -16 2 -22 5 -12 2 9 2 23 0 30 -3 6 -5 -1 -5 -18z"/>
<path d="M11542 1445 c0 -16 2 -22 5 -12 2 9 2 23 0 30 -3 6 -5 -1 -5 -18z"/>
<path d="M6010 1441 c0 -11 5 -23 10 -26 6 -4 10 5 10 19 0 14 -4 26 -10 26
-5 0 -10 -9 -10 -19z"/>
<path d="M5562 1385 c0 -16 2 -22 5 -12 2 9 2 23 0 30 -3 6 -5 -1 -5 -18z"/>
<path d="M11542 1385 c0 -16 2 -22 5 -12 2 9 2 23 0 30 -3 6 -5 -1 -5 -18z"/>
<path d="M6013 1384 c-3 -8 -1 -20 6 -27 8 -8 11 -4 11 16 0 30 -7 35 -17 11z"/>
<path d="M5562 1325 c0 -16 2 -22 5 -12 2 9 2 23 0 30 -3 6 -5 -1 -5 -18z"/>
<path d="M6013 1324 c-3 -8 -1 -20 6 -27 8 -8 11 -4 11 16 0 30 -7 35 -17 11z"/>
<path d="M11542 1315 c0 -16 2 -22 5 -12 2 9 2 23 0 30 -3 6 -5 -1 -5 -18z"/>
<path d="M5562 1265 c0 -16 2 -22 5 -12 2 9 2 23 0 30 -3 6 -5 -1 -5 -18z"/>
<path d="M6013 1264 c-3 -8 -1 -20 6 -27 8 -8 11 -4 11 16 0 30 -7 35 -17 11z"/>
<path d="M11542 1255 c0 -16 2 -22 5 -12 2 9 2 23 0 30 -3 6 -5 -1 -5 -18z"/>
<path d="M5561 1213 c-1 -27 -1 -27 -116 -8 -49 8 -103 14 -120 14 -47 -2 234
-48 295 -48 39 -1 64 5 85 19 17 11 33 20 37 20 4 0 26 -37 49 -81 l40 -81 22
20 c54 49 81 51 271 22 134 -21 163 -24 154 -15 -3 3 -58 13 -124 23 -110 17
-119 19 -125 42 l-7 25 -7 -23 c-6 -19 -12 -22 -40 -16 -33 6 -96 -15 -126
-42 -15 -14 -20 -8 -54 66 -21 44 -40 80 -42 80 -3 0 -24 -12 -48 -26 -59 -34
-126 -31 -136 6 -7 24 -7 24 -8 3z"/>
<path d="M6017 1213 c-11 -10 -8 -43 3 -43 6 0 10 11 10 25 0 26 -2 29 -13 18z"/>
<path d="M11542 1195 c0 -16 2 -22 5 -12 2 9 2 23 0 30 -3 6 -5 -1 -5 -18z"/>
<path d="M5699 982 l-47 -27 -164 24 c-91 13 -171 22 -178 19 -8 -2 42 -12
111 -22 88 -12 128 -22 137 -33 7 -10 12 -12 12 -5 0 8 19 12 53 12 39 0 61 6
88 24 l35 24 43 -85 42 -85 35 31 c30 26 43 31 89 31 29 0 56 -4 59 -9 3 -5
15 -7 25 -4 10 3 64 -2 119 -11 107 -17 128 -19 120 -11 -11 12 -330 55 -356
49 -15 -4 -41 -17 -58 -30 l-31 -23 -38 80 c-22 43 -41 79 -45 78 -3 0 -26
-12 -51 -27z"/>
<path d="M5562 895 c0 -16 2 -22 5 -12 2 9 2 23 0 30 -3 6 -5 -1 -5 -18z"/>
<path d="M11082 895 c0 -16 2 -22 5 -12 2 9 2 23 0 30 -3 6 -5 -1 -5 -18z"/>
<path d="M5562 835 c0 -16 2 -22 5 -12 2 9 2 23 0 30 -3 6 -5 -1 -5 -18z"/>
<path d="M6013 844 c-3 -8 -1 -20 6 -27 8 -8 11 -4 11 16 0 30 -7 35 -17 11z"/>
<path d="M11082 835 c0 -16 2 -22 5 -12 2 9 2 23 0 30 -3 6 -5 -1 -5 -18z"/>
<path d="M11542 835 c0 -16 2 -22 5 -12 2 9 2 23 0 30 -3 6 -5 -1 -5 -18z"/>
<path d="M5562 775 c0 -16 2 -22 5 -12 2 9 2 23 0 30 -3 6 -5 -1 -5 -18z"/>
<path d="M6013 784 c-3 -8 -1 -20 6 -27 8 -8 11 -4 11 16 0 30 -7 35 -17 11z"/>
<path d="M11082 775 c0 -16 2 -22 5 -12 2 9 2 23 0 30 -3 6 -5 -1 -5 -18z"/>
<path d="M11542 775 c0 -16 2 -22 5 -12 2 9 2 23 0 30 -3 6 -5 -1 -5 -18z"/>
<path d="M5562 715 c0 -16 2 -22 5 -12 2 9 2 23 0 30 -3 6 -5 -1 -5 -18z"/>
<path d="M6017 733 c-11 -10 -8 -43 3 -43 6 0 10 11 10 25 0 26 -2 29 -13 18z"/>
<path d="M11082 715 c0 -16 2 -22 5 -12 2 9 2 23 0 30 -3 6 -5 -1 -5 -18z"/>
<path d="M11542 715 c0 -16 2 -22 5 -12 2 9 2 23 0 30 -3 6 -5 -1 -5 -18z"/>
<path d="M5562 655 c0 -16 2 -22 5 -12 2 9 2 23 0 30 -3 6 -5 -1 -5 -18z"/>
<path d="M6017 673 c-11 -10 -8 -43 3 -43 6 0 10 11 10 25 0 26 -2 29 -13 18z"/>
<path d="M11082 655 c0 -16 2 -22 5 -12 2 9 2 23 0 30 -3 6 -5 -1 -5 -18z"/>
<path d="M11542 655 c0 -16 2 -22 5 -12 2 9 2 23 0 30 -3 6 -5 -1 -5 -18z"/>
<path d="M5562 595 c0 -16 2 -22 5 -12 2 9 2 23 0 30 -3 6 -5 -1 -5 -18z"/>
<path d="M11083 560 c0 -36 2 -50 4 -32 2 17 2 47 0 65 -2 17 -4 3 -4 -33z"/>
<path d="M11542 595 c0 -16 2 -22 5 -12 2 9 2 23 0 30 -3 6 -5 -1 -5 -18z"/>
<path d="M6010 590 c0 -11 5 -20 10 -20 6 0 10 9 10 20 0 11 -4 20 -10 20 -5
0 -10 -9 -10 -20z"/>
<path d="M5562 530 c0 -19 2 -27 5 -17 2 9 2 25 0 35 -3 9 -5 1 -5 -18z"/>
<path d="M6010 530 c0 -11 5 -20 10 -20 6 0 10 9 10 20 0 11 -4 20 -10 20 -5
0 -10 -9 -10 -20z"/>
<path d="M5561 468 c-1 -24 3 -28 27 -27 22 1 23 2 5 6 -13 2 -24 13 -26 26
-4 18 -5 17 -6 -5z"/>
<path d="M6010 471 c0 -11 -6 -22 -12 -24 -7 -3 -3 -6 10 -6 17 -1 22 5 22 24
0 14 -4 25 -10 25 -5 0 -10 -9 -10 -19z"/>
<path d="M11081 468 c-1 -24 3 -28 27 -27 22 0 24 2 8 8 -11 4 -23 16 -27 27
-6 16 -8 14 -8 -8z"/>
<path d="M5633 443 c9 -2 23 -2 30 0 6 3 -1 5 -18 5 -16 0 -22 -2 -12 -5z"/>
<path d="M5693 443 c9 -2 23 -2 30 0 6 3 -1 5 -18 5 -16 0 -22 -2 -12 -5z"/>
<path d="M5753 443 c9 -2 23 -2 30 0 6 3 -1 5 -18 5 -16 0 -22 -2 -12 -5z"/>
<path d="M5813 443 c9 -2 23 -2 30 0 6 3 -1 5 -18 5 -16 0 -22 -2 -12 -5z"/>
<path d="M5873 443 c9 -2 23 -2 30 0 6 3 -1 5 -18 5 -16 0 -22 -2 -12 -5z"/>
<path d="M11153 443 c9 -2 23 -2 30 0 6 3 -1 5 -18 5 -16 0 -22 -2 -12 -5z"/>
<path d="M11213 443 c9 -2 23 -2 30 0 6 3 -1 5 -18 5 -16 0 -22 -2 -12 -5z"/>
<path d="M11273 443 c9 -2 23 -2 30 0 6 3 -1 5 -18 5 -16 0 -22 -2 -12 -5z"/>
<path d="M11463 443 c9 -2 23 -2 30 0 6 3 -1 5 -18 5 -16 0 -22 -2 -12 -5z"/>
</g>
</svg>
