<?xml version="1.0" standalone="no"?>
<!DOCTYPE svg PUBLIC "-//W3C//DTD SVG 20010904//EN"
 "http://www.w3.org/TR/2001/REC-SVG-20010904/DTD/svg10.dtd">
<svg version="1.0" xmlns="http://www.w3.org/2000/svg"
 width="1678.000000pt" height="962.000000pt" viewBox="0 0 1678.000000 962.000000"
 preserveAspectRatio="xMidYMid meet">
<metadata>
Created by potrace 1.16, written by Peter Selinger 2001-2019
</metadata>
<g transform="translate(0.000000,962.000000) scale(0.100000,-0.100000)"
fill="#000000" stroke="none">
<path d="M3930 8649 l0 -310 -26 20 c-36 28 -70 26 -101 -5 -21 -21 -24 -31
-19 -64 5 -35 -118 -301 -1589 -3431 l-1594 -3394 -163 -5 -163 -6 158 -2 c87
-1 157 -6 155 -10 -2 -5 -21 -48 -42 -96 -36 -78 -41 -86 -53 -70 -12 17 -15
17 -53 -5 -36 -20 -47 -21 -100 -13 -33 5 -60 6 -60 2 0 -4 29 -11 65 -15 56
-6 71 -4 100 13 l34 21 30 -65 30 -64 38 26 c34 23 44 25 98 19 33 -3 71 -9
85 -11 19 -4 21 -3 10 5 -7 5 -47 13 -88 17 -66 6 -77 4 -104 -16 -16 -12 -31
-20 -33 -18 -1 1 -10 18 -20 37 l-17 33 51 104 50 104 1660 0 c1572 0 1660 -1
1664 -17 4 -17 5 -17 6 0 1 15 14 17 125 17 l125 0 4 -47 3 -48 2 48 2 47
4159 0 c3953 0 4160 -1 4164 -17 4 -17 5 -17 6 0 1 15 14 17 126 17 l125 0 1
-42 2 -43 6 40 6 40 1638 3 1638 2 59 -125 c51 -109 64 -155 42 -155 -3 0 -14
8 -25 17 -15 14 -36 18 -96 17 -43 -1 -86 -7 -97 -13 -17 -11 -17 -12 6 -7 14
3 52 8 85 11 57 7 63 5 93 -20 18 -15 34 -26 36 -24 2 2 18 32 35 66 l31 62
35 -20 c29 -18 44 -20 100 -14 36 4 65 11 65 16 0 5 -12 6 -27 2 -58 -14 -117
-9 -149 14 l-31 22 -10 -21 c-8 -18 -15 -8 -51 70 -23 50 -42 93 -42 96 0 3
80 7 178 8 l177 2 -184 6 -184 5 -1466 3121 c-806 1716 -1479 3147 -1494 3180
-223 474 -226 479 -224 528 2 39 -2 51 -22 67 -30 25 -62 24 -95 -2 l-26 -20
0 310 0 311 -135 0 -135 0 0 -1475 0 -1475 -230 0 -230 0 0 -70 c0 -49 4 -70
13 -71 6 0 109 -53 227 -117 l215 -117 3 -57 3 -57 -68 -4 -68 -3 68 -2 67 -2
0 -535 0 -535 -65 0 c-37 0 -65 -4 -65 -10 0 -6 28 -10 65 -10 l65 0 0 -1480
0 -1480 -4160 0 -4160 0 2 2088 3 2087 230 122 230 123 -3 65 -4 65 -229 0
-229 0 0 1475 0 1475 -135 0 -135 0 0 -311z m259 -9 l-1 -310 -39 0 c-21 0
-39 -4 -39 -10 0 -5 18 -10 40 -10 54 0 51 -20 -2 -22 l-43 -1 42 -4 43 -4 0
-1082 c0 -595 0 -1108 0 -1139 l0 -57 43 -4 c23 -2 -33 -4 -125 -5 l-168 -2 0
65 0 65 43 2 42 1 -42 4 c-24 2 -43 8 -43 14 0 5 19 10 43 11 l42 1 -42 4 -43
4 0 980 0 979 43 2 42 1 -42 4 c-54 5 -56 23 -3 23 22 0 40 5 40 10 0 6 -18
10 -39 10 l-39 0 0 135 0 135 41 2 42 1 -42 4 c-24 2 -43 8 -43 14 0 5 19 10
43 11 l42 1 -42 4 -43 4 0 235 0 234 125 0 125 0 -1 -310z m8590 -1170 l1
-1480 -168 2 c-92 1 -148 3 -124 5 l42 4 0 60 0 59 43 2 42 1 -42 4 c-24 2
-43 8 -43 14 0 5 19 10 43 11 l42 1 -42 4 -43 4 0 980 0 979 43 2 42 1 -42 4
c-54 5 -56 23 -3 23 22 0 40 5 40 10 0 6 -18 10 -40 10 l-40 0 0 55 0 55 43 2
42 1 -42 4 c-54 5 -56 23 -3 23 22 0 40 5 40 10 0 6 -18 10 -40 10 l-40 0 0
55 0 55 43 2 42 1 -42 4 c-24 2 -43 8 -43 14 0 5 19 10 43 11 l42 1 -42 4 -43
4 0 235 0 234 125 0 124 0 0 -1480z m-8885 879 c34 -26 34 -62 0 -88 -28 -22
-54 -27 -54 -11 0 6 8 10 18 10 24 0 42 19 42 45 0 12 -5 26 -12 33 -27 27
-78 7 -78 -30 0 -10 -4 -18 -10 -18 -18 0 -10 31 15 55 29 30 45 31 79 4z
m9004 4 c21 -18 26 -33 23 -63 -1 -8 -7 1 -14 20 -13 38 -46 51 -73 29 -21
-18 -13 -61 14 -75 34 -17 38 -24 14 -24 -30 0 -62 34 -62 65 0 30 32 65 59
65 10 0 28 -8 39 -17z m-9017 -29 c9 -11 10 -20 3 -32 -14 -22 -34 -27 -34 -9
0 8 -7 18 -16 21 -13 5 -14 9 -4 21 16 19 34 19 51 -1z m9006 5 c12 -12 -32
-63 -48 -54 -10 7 -12 48 -2 58 10 11 38 8 50 -4z m-9047 -44 c0 -10 -90 -202
-1510 -3223 -804 -1712 -1460 -3115 -1458 -3118 3 -2 584 1230 1293 2738 709
1509 1314 2797 1345 2863 32 66 117 247 190 403 115 245 136 282 155 282 12 0
34 9 49 21 l26 20 0 -3405 0 -3406 -1660 0 -1661 0 15 28 c7 15 715 1519 1571
3342 857 1823 1573 3348 1592 3388 19 39 38 72 44 72 5 0 9 -2 9 -5z m10660
-3406 c881 -1875 1599 -3413 1596 -3416 -4 -4 -10 -2 -15 3 -12 12 -3201 6802
-3201 6814 0 6 4 10 9 10 4 0 729 -1535 1611 -3411z m-1636 3351 c19 0 217
-415 1609 -3378 873 -1858 1587 -3381 1587 -3385 0 -4 -736 -7 -1635 -7
l-1635 0 2 1212 3 1213 70 6 70 5 -72 2 -73 2 0 535 0 535 73 2 72 2 -72 3
-73 4 0 1645 0 1645 26 -20 c15 -12 36 -21 48 -21z m-8526 -2237 c-10 -2 -28
-2 -40 0 -13 2 -5 4 17 4 22 1 32 -1 23 -4z m80 0 c-10 -2 -28 -2 -40 0 -13 2
-5 4 17 4 22 1 32 -1 23 -4z m80 0 c-10 -2 -28 -2 -40 0 -13 2 -5 4 17 4 22 1
32 -1 23 -4z m70 0 c-10 -2 -26 -2 -35 0 -10 3 -2 5 17 5 19 0 27 -2 18 -5z
m70 0 c-10 -2 -26 -2 -35 0 -10 3 -2 5 17 5 19 0 27 -2 18 -5z m7480 0 c-10
-2 -26 -2 -35 0 -10 3 -2 5 17 5 19 0 27 -2 18 -5z m70 0 c-10 -2 -26 -2 -35
0 -10 3 -2 5 17 5 19 0 27 -2 18 -5z m90 0 c-10 -2 -28 -2 -40 0 -13 2 -5 4
17 4 22 1 32 -1 23 -4z m70 0 c-10 -2 -26 -2 -35 0 -10 3 -2 5 17 5 19 0 27
-2 18 -5z m80 0 c-10 -2 -28 -2 -40 0 -13 2 -5 4 17 4 22 1 32 -1 23 -4z
m-7778 -63 l0 -40 -355 0 -355 0 0 40 0 40 355 0 355 0 0 -40z m8130 0 l0 -40
-355 0 -355 0 0 40 0 40 355 0 355 0 0 -40z m-8590 -119 l0 -69 -62 -35 c-35
-19 -88 -47 -118 -63 -30 -15 -56 -29 -58 -30 -3 -2 35 -83 43 -92 1 -1 42 20
91 48 49 27 92 50 97 50 4 0 7 -936 7 -2080 l0 -2080 -125 0 -125 0 0 2210 0
2210 125 0 125 0 0 -69z m235 56 c-25 -17 -214 -117 -220 -117 -8 0 -6 116 2
123 3 4 58 7 122 7 99 0 113 -2 96 -13z m190 4 c-9 -8 -130 -74 -359 -195 -48
-26 -126 -67 -172 -92 l-83 -45 -15 30 c-9 16 -16 32 -16 35 0 5 472 259 500
269 26 9 155 8 145 -2z m7754 -58 c69 -36 144 -76 166 -88 22 -12 81 -43 130
-70 50 -26 91 -49 93 -51 5 -3 -28 -64 -35 -64 -3 0 -40 19 -82 42 -110 60
-155 84 -358 192 -101 54 -183 99 -183 102 0 2 32 4 72 4 69 0 76 -2 197 -67z
m151 2 c0 -36 -2 -65 -4 -65 -6 0 -211 112 -220 121 -6 5 38 9 107 9 l117 0 0
-65z m260 -71 l0 -136 -122 65 -123 66 -3 70 -3 71 126 0 125 0 0 -136z m-142
-174 c52 -28 96 -50 97 -48 1 2 12 21 23 43 l21 40 1 -2072 0 -2073 -125 0
-125 0 0 2080 c0 1144 3 2080 7 2080 3 0 49 -23 101 -50z m3523 -4227 c26 -55
44 -106 40 -112 -5 -7 -29 34 -59 98 -56 120 -58 125 -40 119 7 -3 33 -50 59
-105z"/>
<path d="M4073 8473 c15 -2 39 -2 55 0 15 2 2 4 -28 4 -30 0 -43 -2 -27 -4z"/>
<path d="M4073 8443 c15 -2 39 -2 55 0 15 2 2 4 -28 4 -30 0 -43 -2 -27 -4z"/>
<path d="M3980 8320 c0 -5 20 -10 45 -10 25 0 45 5 45 10 0 6 -20 10 -45 10
-25 0 -45 -4 -45 -10z"/>
<path d="M4003 8283 c15 -2 37 -2 50 0 12 2 0 4 -28 4 -27 0 -38 -2 -22 -4z"/>
<path d="M4055 8160 c-4 -6 12 -10 39 -10 25 0 46 5 46 10 0 6 -18 10 -39 10
-22 0 -43 -4 -46 -10z"/>
<path d="M4073 8123 c15 -2 39 -2 55 0 15 2 2 4 -28 4 -30 0 -43 -2 -27 -4z"/>
<path d="M4073 6153 c15 -2 39 -2 55 0 15 2 2 4 -28 4 -30 0 -43 -2 -27 -4z"/>
<path d="M4073 6123 c15 -2 39 -2 55 0 15 2 2 4 -28 4 -30 0 -43 -2 -27 -4z"/>
<path d="M12663 8473 c15 -2 39 -2 55 0 15 2 2 4 -28 4 -30 0 -43 -2 -27 -4z"/>
<path d="M12663 8443 c15 -2 39 -2 55 0 15 2 2 4 -28 4 -30 0 -43 -2 -27 -4z"/>
<path d="M12645 8320 c3 -5 24 -10 45 -10 21 0 42 5 45 10 4 6 -13 10 -45 10
-32 0 -49 -4 -45 -10z"/>
<path d="M12663 8283 c15 -2 39 -2 55 0 15 2 2 4 -28 4 -30 0 -43 -2 -27 -4z"/>
<path d="M12645 8160 c-4 -6 13 -10 45 -10 32 0 49 4 45 10 -3 6 -24 10 -45
10 -21 0 -42 -4 -45 -10z"/>
<path d="M12663 8123 c15 -2 39 -2 55 0 15 2 2 4 -28 4 -30 0 -43 -2 -27 -4z"/>
<path d="M12663 6153 c15 -2 39 -2 55 0 15 2 2 4 -28 4 -30 0 -43 -2 -27 -4z"/>
<path d="M12663 6123 c15 -2 39 -2 55 0 15 2 2 4 -28 4 -30 0 -43 -2 -27 -4z"/>
<path d="M3977 5943 c-12 -11 -8 -23 8 -23 8 0 15 7 15 15 0 16 -12 20 -23 8z"/>
<path d="M4040 5936 c0 -9 7 -16 16 -16 9 0 14 5 12 12 -6 18 -28 21 -28 4z"/>
<path d="M4567 5943 c-12 -11 -8 -23 8 -23 8 0 15 7 15 15 0 16 -12 20 -23 8z"/>
<path d="M4607 5943 c-12 -11 -8 -23 8 -23 8 0 15 7 15 15 0 16 -12 20 -23 8z"/>
<path d="M12096 5943 c-11 -11 -6 -23 9 -23 8 0 15 4 15 9 0 13 -16 22 -24 14z"/>
<path d="M12130 5936 c0 -9 7 -16 16 -16 17 0 14 22 -4 28 -7 2 -12 -3 -12
-12z"/>
<path d="M12670 5936 c0 -9 7 -16 16 -16 17 0 14 22 -4 28 -7 2 -12 -3 -12
-12z"/>
<path d="M12737 5943 c-12 -11 -8 -23 8 -23 8 0 15 7 15 15 0 16 -12 20 -23 8z"/>
<path d="M4080 5636 c0 -9 7 -16 16 -16 9 0 14 5 12 12 -6 18 -28 21 -28 4z"/>
<path d="M4020 5605 c0 -8 7 -15 15 -15 8 0 15 7 15 15 0 8 -7 15 -15 15 -8 0
-15 -7 -15 -15z"/>
<path d="M12647 5623 c-12 -11 -8 -23 8 -23 8 0 15 7 15 15 0 16 -12 20 -23 8z"/>
<path d="M12706 5593 c-11 -11 -6 -23 9 -23 8 0 15 4 15 9 0 13 -16 22 -24 14z"/>
<path d="M4245 8515 c-31 -30 -32 -69 -2 -99 23 -23 27 -23 318 -29 162 -3
337 -11 389 -16 95 -10 470 -21 1445 -43 286 -6 1104 -12 1817 -12 l1298 -1 0
-37 c0 -27 6 -42 24 -56 18 -13 23 -25 19 -41 -5 -21 -9 -21 -224 -21 -212 0
-219 1 -219 20 0 17 -7 20 -45 20 -38 0 -45 -3 -45 -20 0 -20 -7 -20 -600 -20
-593 0 -600 0 -600 20 0 17 -7 20 -45 20 -38 0 -45 -3 -45 -20 0 -20 -7 -20
-610 -20 -603 0 -610 0 -610 20 0 17 -7 20 -45 20 -38 0 -45 -3 -45 -20 0 -20
-7 -20 -545 -20 -538 0 -545 0 -545 20 0 17 -7 20 -45 20 -38 0 -45 -3 -45
-20 0 -19 -7 -20 -114 -20 -63 0 -116 4 -118 9 -1 4 -93 11 -203 15 -110 3
-261 13 -335 21 -182 20 -206 19 -231 -6 -28 -28 -23 -85 11 -111 27 -20 5
-21 310 13 47 5 219 12 383 15 l297 7 0 -61 c0 -48 3 -62 15 -62 11 0 15 -12
15 -45 0 -25 -4 -45 -10 -45 -5 0 -16 -10 -25 -23 -13 -20 -13 -34 0 -122 12
-80 15 -232 15 -806 0 -461 3 -710 10 -714 7 -4 10 222 10 670 0 448 3 674 10
670 6 -4 11 -243 12 -678 l2 -672 6 730 c5 630 8 742 23 814 15 76 15 87 2
108 -9 13 -19 23 -23 23 -4 0 -6 20 -4 45 3 30 9 45 18 45 10 0 14 15 14 60
l0 60 545 0 545 0 0 -60 c0 -47 3 -60 15 -60 11 0 15 -12 15 -45 0 -25 -4 -45
-10 -45 -5 0 -16 -10 -25 -23 -13 -20 -13 -34 0 -122 12 -78 15 -220 15 -707
0 -399 3 -608 10 -608 7 0 10 197 10 571 0 377 3 568 10 564 6 -4 11 -208 12
-573 l2 -567 7 630 c5 506 9 645 21 705 16 76 11 116 -14 125 -19 7 -11 95 8
95 10 0 14 15 14 60 l0 60 610 0 610 0 0 -60 c0 -47 3 -60 15 -60 11 0 15 -12
15 -45 0 -25 -4 -45 -10 -45 -5 0 -16 -10 -25 -23 -13 -20 -13 -33 2 -117 14
-80 17 -216 22 -855 l7 -760 2 718 c1 476 5 716 12 712 6 -4 11 -257 12 -718
l2 -712 6 770 c5 668 8 781 23 854 15 76 15 87 2 108 -9 13 -19 23 -23 23 -4
0 -6 20 -4 45 3 30 9 45 18 45 10 0 14 15 14 60 l0 60 600 0 600 0 0 -60 c0
-46 3 -60 14 -60 10 0 16 -14 18 -42 2 -35 -1 -45 -17 -53 -26 -14 -29 -54
-11 -180 10 -76 14 -264 15 -784 1 -377 4 -687 6 -690 3 -2 5 304 6 680 0 391
4 675 9 664 5 -11 10 -319 12 -685 l2 -665 6 720 c5 638 8 731 24 813 18 93
18 93 -3 116 -26 27 -30 106 -6 106 12 0 15 13 15 60 l0 60 196 0 196 0 -6
-112 c-3 -62 -8 -188 -12 -279 l-6 -167 -39 -5 c-78 -10 -149 -94 -149 -177 0
-51 32 -113 76 -146 33 -26 46 -29 109 -29 63 0 76 3 109 29 70 53 93 143 57
222 -18 40 -76 94 -99 94 -14 0 -14 42 -2 330 4 113 11 213 15 223 13 31 43
20 55 -20 20 -72 179 -1009 215 -1263 20 -140 48 -345 64 -455 16 -110 27
-203 24 -207 -2 -5 -1106 -8 -2454 -8 -2170 0 -2449 2 -2449 15 0 13 -23 15
-147 15 -82 0 -240 9 -353 20 -252 24 -246 24 -270 0 -42 -42 -13 -130 43
-130 12 0 80 7 151 15 295 33 535 36 3021 33 l2469 -3 23 -160 c256 -1809 447
-2607 868 -3630 129 -312 350 -793 361 -783 3 3 -12 41 -34 84 -135 269 -324
709 -450 1044 -333 891 -511 1692 -738 3318 -15 110 -15 146 2 130 3 -3 27
-156 54 -339 133 -912 205 -1319 316 -1803 149 -646 350 -1248 631 -1891 80
-183 264 -567 270 -562 1 2 -45 104 -103 228 -433 912 -700 1730 -889 2713
-73 384 -255 1542 -255 1627 l0 29 908 0 c923 -1 1135 -6 1415 -36 l157 -17
25 23 c33 31 33 79 1 110 l-25 22 -228 -21 c-125 -12 -292 -21 -370 -21 -120
0 -143 -2 -143 -15 0 -13 -109 -15 -874 -15 l-874 0 -6 27 c-3 16 -31 210 -61
433 -31 223 -98 648 -150 945 -52 297 -95 546 -95 553 0 10 67 12 308 10 l307
-3 3 -57 c2 -43 7 -58 18 -58 11 0 14 -11 12 -45 -2 -28 -8 -45 -16 -45 -29 0
-34 -44 -18 -158 13 -91 16 -239 18 -780 l3 -667 2 648 c2 426 7 646 13 642 6
-4 11 -236 12 -648 l2 -642 6 670 c4 369 9 679 12 690 3 12 12 65 19 119 12
94 12 99 -7 115 -23 20 -23 101 2 101 11 0 14 14 14 60 l0 60 535 0 535 0 0
-60 c0 -47 3 -60 15 -60 23 0 16 -88 -7 -96 -27 -8 -29 -33 -13 -144 12 -84
15 -253 17 -830 l3 -725 2 698 c2 459 7 696 13 692 6 -4 10 -250 10 -696 0
-458 3 -688 10 -684 7 4 10 253 10 713 0 576 3 725 15 806 19 128 19 153 -3
167 -22 14 -19 99 4 99 10 0 14 15 14 62 l0 61 273 -6 c236 -6 367 -14 507
-31 148 -19 148 -19 175 8 31 31 33 78 5 106 -24 24 -58 25 -235 5 -71 -8
-220 -18 -330 -21 -110 -4 -202 -9 -205 -12 -10 -10 429 8 555 22 168 20 181
20 206 -5 26 -26 22 -67 -11 -90 -23 -16 -33 -16 -137 -4 -188 23 -404 35
-616 35 l-202 0 3 -55 c3 -33 0 -55 -6 -55 -6 0 -10 12 -9 28 2 21 -2 27 -18
27 -15 0 -20 -7 -20 -27 1 -16 -3 -28 -7 -28 -4 0 -8 25 -8 55 l0 55 -547 0
-548 0 3 -55 c3 -37 0 -55 -8 -55 -6 0 -9 8 -6 18 3 9 1 24 -4 32 -8 12 -13
13 -30 2 -19 -11 -20 -10 -20 23 l0 35 -325 0 c-210 0 -325 4 -325 10 0 6 115
10 325 10 318 0 325 0 325 20 0 16 7 20 36 20 28 0 35 -4 32 -17 -1 -10 1 -19
5 -20 4 -2 250 -3 547 -3 533 0 540 0 540 20 0 16 7 20 36 20 30 0 35 -3 32
-20 -3 -19 4 -20 212 -25 268 -6 379 -12 548 -31 74 -8 145 -14 158 -14 28 0
57 39 48 64 -13 33 -37 35 -225 16 -133 -14 -259 -20 -456 -20 -266 0 -273 0
-273 20 0 17 -7 20 -45 20 -38 0 -45 -3 -45 -20 0 -20 -7 -20 -535 -20 -528 0
-535 0 -535 20 0 17 -7 20 -45 20 -38 0 -45 -3 -45 -20 0 -20 -7 -20 -334 -20
l-335 0 -3 23 c-2 14 5 29 19 40 17 13 23 29 23 56 l0 38 393 7 c887 15 1667
38 1882 56 61 5 204 9 318 9 115 1 216 5 227 11 47 25 38 123 -13 135 -13 4
-116 -12 -228 -34 -112 -22 -275 -48 -361 -57 -106 -12 -158 -21 -158 -29 0
-9 -58 -14 -212 -19 -484 -15 -940 -26 -1380 -32 l-468 -7 0 55 c0 65 -19 88
-72 88 -50 0 -68 -24 -68 -93 l0 -57 -1047 0 c-1019 0 -1846 9 -2653 30 -706
18 -801 22 -796 35 3 8 -42 17 -152 29 -87 9 -247 34 -357 56 -110 22 -208 40
-218 40 -10 0 -29 -11 -42 -25z m65 5 c0 -5 -8 -10 -18 -10 -38 0 -58 -55 -28
-79 9 -7 96 -13 257 -15 134 -2 294 -9 354 -15 108 -10 409 -20 1280 -42 242
-7 1097 -14 1900 -18 1290 -5 1411 -7 1040 -15 -888 -19 -3604 20 -4179 60
-115 8 -305 14 -423 14 -214 0 -214 0 -238 25 -14 13 -25 31 -25 40 0 9 11 27
25 40 24 25 55 33 55 15z m8158 -6 c15 -10 22 -25 22 -49 0 -49 -28 -65 -112
-65 -44 0 -68 4 -68 11 0 8 20 10 64 7 47 -4 71 -2 85 9 36 25 22 83 -21 83
-10 0 -18 5 -18 10 0 15 22 12 48 -6z m-7957 -28 c91 -19 235 -42 319 -51 85
-9 160 -18 165 -21 20 -8 -182 7 -285 22 -109 16 -381 71 -389 79 -9 10 30 4
190 -29z m7897 29 c-2 -3 -81 -20 -174 -39 -215 -44 -504 -82 -504 -67 0 4 71
15 158 25 86 9 229 32 317 50 153 33 214 42 203 31z m-8067 -44 l24 -19 -38
-7 c-42 -8 -63 4 -54 29 9 22 40 20 68 -3z m164 -10 l140 -30 -145 0 c-80 0
-139 3 -132 6 6 2 12 13 12 23 0 10 -6 21 -12 23 -26 11 0 6 137 -22z m5093
22 c-10 -2 -26 -2 -35 0 -10 3 -2 5 17 5 19 0 27 -2 18 -5z m2763 -2 c-8 -5
-12 -18 -8 -30 5 -21 3 -21 -131 -20 l-137 0 130 29 c146 31 168 35 146 21z
m96 -7 c9 -25 -12 -37 -51 -30 -41 8 -46 18 -13 34 32 16 57 14 64 -4z m-2877
-24 c21 0 41 6 43 13 3 6 6 -14 6 -46 l1 -58 -52 3 -53 3 -3 39 c-4 41 7 81
15 59 3 -8 21 -13 43 -13z m2720 -40 c0 -6 -53 -10 -138 -10 -77 0 -233 -7
-348 -14 -209 -15 -656 -28 -1539 -46 -554 -11 -645 -11 -595 0 19 4 244 10
500 14 777 10 1401 29 1815 56 176 11 305 11 305 0z m-2692 -97 c-16 -2 -40
-2 -55 0 -16 2 -3 4 27 4 30 0 43 -2 28 -4z m-46 -48 c-2 -19 -7 -35 -11 -35
-15 0 -31 25 -31 47 0 17 6 23 23 23 20 0 23 -4 19 -35z m66 3 c-4 -42 -28
-50 -28 -10 0 17 -6 33 -12 35 -7 3 0 6 15 6 26 1 28 -2 25 -31z m-5172 -74
c82 -9 239 -19 349 -23 l200 -8 -175 -1 c-112 -1 -241 5 -360 17 -163 17 -188
18 -207 5 -26 -16 -29 -42 -9 -69 13 -19 17 -19 181 -1 150 16 534 35 738 36
70 0 77 2 77 20 0 16 7 20 35 20 30 0 35 -3 35 -22 l0 -23 555 3 c546 2 555 3
555 22 0 16 7 20 35 20 30 0 35 -3 35 -22 l0 -23 620 3 c611 2 620 3 620 22 0
16 7 20 35 20 30 0 35 -3 35 -22 l0 -23 610 3 c601 2 610 3 610 22 0 16 7 20
35 20 30 0 35 -3 35 -22 l0 -23 210 3 c140 2 210 -1 210 -8 0 -6 -71 -10 -210
-10 l-210 0 0 -55 c0 -30 -4 -55 -8 -55 -4 0 -8 12 -7 28 0 20 -5 27 -20 27
-16 0 -20 -6 -18 -27 1 -16 -3 -28 -9 -28 -6 0 -9 22 -6 55 l3 55 -612 0 -613
0 0 -55 c0 -30 -4 -55 -8 -55 -4 0 -8 12 -7 28 0 20 -5 27 -20 27 -15 0 -20
-7 -20 -27 1 -16 -3 -28 -7 -28 -4 0 -8 25 -8 55 l0 55 -620 0 -620 0 0 -55
c0 -30 -4 -55 -9 -55 -6 0 -9 12 -8 28 2 21 -2 27 -18 27 -15 0 -20 -7 -20
-27 1 -16 -3 -28 -7 -28 -4 0 -8 25 -8 55 l0 55 -555 0 -555 0 0 -55 c0 -30
-4 -55 -8 -55 -4 0 -8 12 -7 28 0 20 -5 27 -20 27 -15 0 -20 -7 -20 -27 1 -16
-3 -28 -7 -28 -4 0 -8 25 -8 56 l0 57 -312 -6 c-181 -3 -374 -13 -458 -22
-205 -23 -220 -23 -236 0 -30 41 -5 105 41 105 12 0 89 -7 171 -16z m-113 -41
c11 -7 -30 -32 -54 -33 -21 0 -33 28 -18 46 10 12 40 7 72 -13z m197 6 c58 -6
106 -12 108 -13 1 -2 -46 -6 -105 -10 -60 -4 -125 -9 -145 -13 -34 -5 -36 -4
-31 17 4 13 0 26 -8 31 -9 7 1 8 31 4 25 -3 92 -10 150 -16z m7830 11 c-18
-11 -20 -31 -5 -43 5 -5 -8 -6 -30 -3 -22 3 -89 8 -150 12 -60 4 -104 9 -98
11 13 5 228 29 273 31 19 1 22 0 10 -8z m86 -38 c-12 -12 -20 -12 -51 -1 l-37
14 38 17 c36 16 40 16 52 1 10 -14 10 -20 -2 -31z m-2914 -29 c-5 -10 -13
-135 -17 -278 -4 -143 -9 -262 -11 -264 -18 -19 -21 44 -13 274 5 143 11 266
14 273 2 6 11 12 20 12 12 0 13 -4 7 -17z m101 2 c19 -47 205 -1168 253 -1522
52 -375 58 -451 39 -431 -3 3 -33 201 -66 439 -53 388 -226 1431 -249 1502 -7
20 -6 27 4 27 8 0 16 -7 19 -15z m-4356 -147 c-2 -18 -4 -4 -4 32 0 36 2 50 4
33 2 -18 2 -48 0 -65z m1180 0 c-2 -18 -4 -4 -4 32 0 36 2 50 4 33 2 -18 2
-48 0 -65z m1310 0 c-2 -18 -4 -4 -4 32 0 36 2 50 4 33 2 -18 2 -48 0 -65z
m1290 0 c-2 -18 -4 -4 -4 32 0 36 2 50 4 33 2 -18 2 -48 0 -65z m2420 -5 c-2
-16 -4 -3 -4 27 0 30 2 43 4 28 2 -16 2 -40 0 -55z m-1160 -5 c-2 -13 -4 -5
-4 17 -1 22 1 32 4 23 2 -10 2 -28 0 -40z m-5033 -77 c7 -11 -3 -41 -14 -41
-11 0 -21 30 -14 41 3 5 9 9 14 9 5 0 11 -4 14 -9z m1179 2 c3 -5 0 -19 -5
-33 l-10 -25 -9 23 c-9 24 -5 42 11 42 5 0 11 -3 13 -7z m1311 -2 c7 -11 -3
-41 -14 -41 -11 0 -21 30 -14 41 3 5 9 9 14 9 5 0 11 -4 14 -9z m1292 -5 c3
-8 1 -23 -4 -32 -9 -16 -11 -15 -21 5 -12 22 -7 41 10 41 5 0 12 -6 15 -14z
m1254 -10 c0 -14 -4 -27 -9 -31 -12 -7 -25 31 -16 45 11 18 25 10 25 -14z
m1163 17 c3 -5 0 -19 -5 -33 -9 -23 -10 -24 -19 -7 -16 28 8 67 24 40z m-6246
-70 c-3 -10 -5 -4 -5 12 0 17 2 24 5 18 2 -7 2 -21 0 -30z m2490 0 c-3 -10 -5
-4 -5 12 0 17 2 24 5 18 2 -7 2 -21 0 -30z m1360 -10 c-3 -10 -5 -4 -5 12 0
17 2 24 5 18 2 -7 2 -21 0 -30z m-3807 -38 c-9 -57 -20 -70 -20 -22 0 19 -3
42 -6 51 -4 11 0 16 13 16 18 0 19 -5 13 -45z m1179 -2 c-11 -58 -19 -67 -19
-20 0 19 -3 42 -6 51 -4 11 0 16 14 16 18 0 19 -4 11 -47z m1313 7 c-5 -47
-22 -64 -22 -21 0 16 -3 36 -6 45 -4 11 0 16 13 16 16 0 18 -6 15 -40z m1294
18 c-3 -13 -6 -33 -6 -46 0 -38 -18 -15 -22 28 -3 34 -1 40 15 40 15 0 18 -5
13 -22z m1253 0 c-1 -13 -5 -36 -9 -53 l-8 -30 -1 30 c-1 17 -4 40 -7 53 -5
16 -2 22 10 22 10 0 16 -8 15 -22z m18 -15 c-3 -10 -5 -4 -5 12 0 17 2 24 5
18 2 -7 2 -21 0 -30z m1142 10 c-1 -16 -5 -39 -9 -53 -7 -23 -8 -21 -9 12 -1
20 -4 43 -7 52 -4 11 -1 16 10 16 11 0 16 -8 15 -27z m-6182 -30 c-3 -10 -5
-4 -5 12 0 17 2 24 5 18 2 -7 2 -21 0 -30z m1130 -20 c-3 -10 -5 -4 -5 12 0
17 2 24 5 18 2 -7 2 -21 0 -30z m5020 -10 c-3 -10 -5 -4 -5 12 0 17 2 24 5 18
2 -7 2 -21 0 -30z m-1160 -10 c-3 -10 -5 -4 -5 12 0 17 2 24 5 18 2 -7 2 -21
0 -30z m1200 -10 c-3 -10 -5 -4 -5 12 0 17 2 24 5 18 2 -7 2 -21 0 -30z
m-2450 -30 c-3 -10 -5 -4 -5 12 0 17 2 24 5 18 2 -7 2 -21 0 -30z m30 -10 c-3
-10 -5 -2 -5 17 0 19 2 27 5 18 2 -10 2 -26 0 -35z m-3810 -10 c-3 -10 -5 -2
-5 17 0 19 2 27 5 18 2 -10 2 -26 0 -35z m2490 0 c-3 -10 -5 -2 -5 17 0 19 2
27 5 18 2 -10 2 -26 0 -35z m-1310 -10 c-3 -10 -5 -2 -5 17 0 19 2 27 5 18 2
-10 2 -26 0 -35z m5020 0 c-3 -10 -5 -4 -5 12 0 17 2 24 5 18 2 -7 2 -21 0
-30z m-1985 -195 l2 -113 3 113 c3 94 6 112 20 112 14 0 15 -14 9 -117 -5 -83
-4 -113 3 -103 6 8 11 59 11 113 0 55 4 97 10 97 22 0 80 -64 96 -107 15 -39
16 -52 5 -92 -46 -173 -280 -174 -332 -1 -28 92 55 208 149 210 21 0 22 -3 24
-112z m-5187 -1238 c-3 -5 -13 -10 -20 -10 -20 0 -37 -37 -30 -61 4 -11 19
-25 33 -31 16 -6 22 -12 14 -15 -7 -3 -24 2 -37 11 -33 22 -35 78 -3 100 25
18 53 21 43 6z m229 -15 c88 -8 230 -16 315 -17 151 -2 153 -2 51 -7 -162 -9
-580 20 -580 40 0 5 12 6 28 4 15 -3 99 -12 186 -20z m7956 5 c26 -26 26 -64
-1 -91 -16 -16 -29 -19 -62 -15 -275 37 -347 39 -1402 45 l-1050 7 994 2 c981
2 1135 -2 1376 -32 55 -7 110 -9 122 -5 44 16 37 84 -9 91 -13 2 -72 -3 -133
-10 -167 -19 -358 -28 -480 -21 -105 5 -102 5 65 8 96 2 249 11 340 21 219 23
217 23 240 0z m-7960 -32 l135 -13 -115 -12 c-169 -17 -170 -17 -170 11 0 13
-6 27 -12 30 -7 3 -4 4 7 2 11 -3 81 -10 155 -18z m7848 12 c-10 -6 -15 -19
-13 -30 5 -24 1 -24 -170 -6 -72 8 -102 14 -75 15 25 1 92 8 150 16 134 16
128 16 108 5z m-8041 -11 c27 -10 27 -11 9 -25 -38 -27 -85 -13 -72 21 6 18
25 19 63 4z m8136 -1 c12 -35 -23 -49 -65 -27 -21 11 -21 12 -3 25 24 17 62
18 68 2z m-5168 -28 c-2377 -5 -2645 -8 -2785 -23 -85 -9 -165 -19 -177 -22
-13 -3 -23 -1 -23 4 0 8 131 25 320 40 52 5 1265 8 2695 7 l2600 -1 -2630 -5z"/>
<path d="M9560 8410 c0 -15 5 -20 18 -18 9 2 17 10 17 18 0 8 -8 16 -17 18
-13 2 -18 -3 -18 -18z"/>
<path d="M5273 8168 c2 -7 7 -13 12 -13 5 0 10 6 13 13 2 6 -4 12 -13 12 -9 0
-15 -6 -12 -12z"/>
<path d="M6450 8164 c0 -9 5 -14 12 -12 18 6 21 28 4 28 -9 0 -16 -7 -16 -16z"/>
<path d="M7763 8168 c2 -7 7 -13 12 -13 5 0 10 6 13 13 2 6 -4 12 -13 12 -9 0
-15 -6 -12 -12z"/>
<path d="M9053 8168 c2 -7 7 -13 12 -13 5 0 10 6 13 13 2 6 -4 12 -13 12 -9 0
-15 -6 -12 -12z"/>
<path d="M5270 8120 c0 -5 7 -10 15 -10 8 0 15 5 15 10 0 6 -7 10 -15 10 -8 0
-15 -4 -15 -10z"/>
<path d="M6450 8120 c0 -5 7 -10 15 -10 8 0 15 5 15 10 0 6 -7 10 -15 10 -8 0
-15 -4 -15 -10z"/>
<path d="M7760 8120 c0 -5 7 -10 15 -10 8 0 15 5 15 10 0 6 -7 10 -15 10 -8 0
-15 -4 -15 -10z"/>
<path d="M9050 8120 c0 -5 7 -10 15 -10 8 0 15 5 15 10 0 6 -7 10 -15 10 -8 0
-15 -4 -15 -10z"/>
<path d="M10310 8165 c0 -8 5 -15 10 -15 6 0 10 7 10 15 0 8 -4 15 -10 15 -5
0 -10 -7 -10 -15z"/>
<path d="M11470 8165 c0 -9 5 -15 10 -13 12 4 11 16 -1 24 -5 3 -9 -2 -9 -11z"/>
<path d="M11470 8120 c0 -5 7 -10 15 -10 8 0 15 5 15 10 0 6 -7 10 -15 10 -8
0 -15 -4 -15 -10z"/>
<path d="M3933 1340 c0 -30 2 -43 4 -27 2 15 2 39 0 55 -2 15 -4 2 -4 -28z"/>
<path d="M12523 1345 c0 -27 2 -38 4 -22 2 15 2 37 0 50 -2 12 -4 0 -4 -28z"/>
<path d="M12783 1290 c0 -30 2 -43 4 -27 2 15 2 39 0 55 -2 15 -4 2 -4 -28z"/>
<path d="M4193 1285 c0 -27 2 -38 4 -22 2 15 2 37 0 50 -2 12 -4 0 -4 -28z"/>
<path d="M3932 1226 l-2 -49 -62 6 c-46 4 -56 3 -39 -4 40 -16 118 -13 146 5
14 9 29 15 33 12 4 -2 21 -32 36 -65 l29 -60 31 26 c29 24 35 25 121 20 83 -5
86 -4 33 5 l-58 10 -2 42 -1 41 -4 -37 c-4 -32 -8 -38 -36 -44 -18 -3 -44 -15
-58 -25 l-25 -18 -28 65 c-16 35 -30 64 -32 64 -2 0 -18 -9 -36 -20 l-33 -20
-6 48 -6 47 -1 -49z"/>
<path d="M12522 1226 l-2 -48 -72 5 c-57 5 -64 4 -33 -3 68 -15 129 -14 164 4
18 10 34 16 35 14 1 -2 15 -31 30 -65 l29 -62 31 26 c29 24 35 25 116 20 84
-5 84 -5 30 7 -54 11 -55 12 -61 51 l-6 40 -2 -38 c-1 -33 -4 -38 -31 -43 -16
-4 -35 -13 -41 -20 -21 -25 -35 -15 -64 46 -16 33 -31 60 -34 60 -3 0 -17 -9
-31 -20 -39 -30 -49 -25 -53 28 l-3 47 -2 -49z"/>
<path d="M12592 1034 c-35 -24 -74 -32 -125 -24 -26 4 -47 4 -47 0 0 -4 22
-10 49 -14 35 -5 51 -12 54 -24 3 -12 5 -13 6 -2 1 8 19 25 41 37 l40 22 31
-62 c17 -34 33 -64 35 -66 2 -2 18 9 36 24 30 25 37 27 95 21 35 -4 70 -9 78
-12 8 -4 15 -2 15 4 0 9 -77 22 -136 22 -17 0 -43 -10 -58 -21 -15 -12 -28
-20 -29 -18 -1 2 -16 32 -32 67 -30 61 -30 62 -53 46z"/>
<path d="M3960 1019 c-29 -15 -45 -17 -88 -10 -28 4 -52 5 -52 1 0 -4 24 -11
54 -14 39 -5 56 -12 59 -24 4 -14 5 -13 6 3 1 12 15 27 37 38 l35 17 30 -65
29 -64 37 25 c39 26 66 28 188 8 23 -4 26 -3 14 5 -8 5 -50 13 -93 17 -70 6
-80 5 -106 -15 -16 -11 -31 -21 -33 -21 -2 0 -16 27 -32 60 -16 33 -33 59 -39
59 -6 -1 -27 -10 -46 -20z"/>
<path d="M3933 885 c0 -27 2 -38 4 -22 2 15 2 37 0 50 -2 12 -4 0 -4 -28z"/>
<path d="M4193 885 c0 -27 2 -38 4 -22 2 15 2 37 0 50 -2 12 -4 0 -4 -28z"/>
<path d="M12523 885 c0 -27 2 -38 4 -22 2 15 2 37 0 50 -2 12 -4 0 -4 -28z"/>
<path d="M12783 885 c0 -27 2 -38 4 -22 2 15 2 37 0 50 -2 12 -4 0 -4 -28z"/>
<path d="M3933 765 c0 -27 2 -38 4 -22 2 15 2 37 0 50 -2 12 -4 0 -4 -28z"/>
<path d="M4193 765 c0 -27 2 -38 4 -22 2 15 2 37 0 50 -2 12 -4 0 -4 -28z"/>
<path d="M12523 765 c0 -27 2 -38 4 -22 2 15 2 37 0 50 -2 12 -4 0 -4 -28z"/>
<path d="M12783 765 c0 -27 2 -38 4 -22 2 15 2 37 0 50 -2 12 -4 0 -4 -28z"/>
<path d="M3932 643 l-2 -53 48 2 47 1 -42 4 -42 4 -4 47 -3 47 -2 -52z"/>
<path d="M4189 645 c-5 -50 -4 -63 7 -53 3 3 4 28 2 54 l-3 49 -6 -50z"/>
<path d="M12522 643 l-2 -53 48 2 47 1 -42 4 -42 4 -4 47 -3 47 -2 -52z"/>
<path d="M12778 640 c-1 -28 0 -50 5 -50 4 0 7 23 7 50 0 65 -7 65 -12 0z"/>
<path d="M4073 593 c15 -2 39 -2 55 0 15 2 2 4 -28 4 -30 0 -43 -2 -27 -4z"/>
<path d="M12663 593 c15 -2 39 -2 55 0 15 2 2 4 -28 4 -30 0 -43 -2 -27 -4z"/>
</g>
</svg>
