<?xml version="1.0" standalone="no"?>
<!DOCTYPE svg PUBLIC "-//W3C//DTD SVG 20010904//EN"
 "http://www.w3.org/TR/2001/REC-SVG-20010904/DTD/svg10.dtd">
<svg version="1.0" xmlns="http://www.w3.org/2000/svg"
 width="1698.000000pt" height="704.000000pt" viewBox="0 0 1698.000000 704.000000"
 preserveAspectRatio="xMidYMid meet">
<metadata>
Created by potrace 1.16, written by Peter Selinger 2001-2019
</metadata>
<g transform="translate(0.000000,704.000000) scale(0.100000,-0.100000)"
fill="#000000" stroke="none">
<path d="M3437 6325 l3 -284 -25 24 c-31 32 -75 32 -111 2 -23 -20 -28 -32
-28 -78 -1 -52 -44 -132 -1160 -2194 -637 -1177 -1162 -2146 -1168 -2152 -8
-9 -84 -13 -297 -16 l-286 -2 288 -3 288 -2 -24 -42 c-13 -24 -41 -74 -62
-113 -37 -67 -39 -68 -53 -47 l-14 22 -44 -26 c-43 -25 -47 -26 -120 -15 -88
13 -108 13 -76 0 13 -5 55 -12 92 -15 60 -6 74 -4 106 15 20 12 38 21 39 19 1
-2 17 -32 35 -68 18 -36 34 -66 35 -68 1 -2 20 8 40 23 44 29 65 30 195 10
105 -16 126 -18 117 -9 -3 3 -58 14 -123 24 -121 18 -150 16 -198 -15 -25 -16
-26 -16 -33 1 -7 18 1 34 109 232 l39 72 1339 0 1339 0 4 -43 4 -42 1 43 2 42
4600 0 4600 0 0 -40 c0 -22 5 -40 10 -40 6 0 10 18 10 40 l0 40 114 0 c82 0
116 -4 119 -12 4 -10 6 -10 6 0 1 9 233 12 1129 12 l1127 -1 77 -144 c47 -85
75 -150 72 -159 -8 -20 -11 -20 -41 4 -17 13 -41 20 -72 20 -51 0 -220 -26
-229 -34 -8 -9 13 -7 121 10 111 18 150 14 183 -17 13 -12 27 -18 32 -15 5 3
23 35 41 71 l31 66 29 -22 c28 -20 37 -21 118 -15 48 3 92 11 97 16 7 7 -7 8
-39 3 -92 -14 -147 -10 -182 15 -31 22 -32 22 -38 2 -3 -11 -10 -20 -13 -20
-7 0 -112 203 -112 215 0 3 224 6 498 7 l497 3 -504 5 -504 5 -688 1385
c-1113 2240 -1282 2577 -1381 2761 -85 157 -94 178 -90 216 3 35 0 46 -22 67
-31 32 -74 34 -110 5 l-26 -20 0 280 0 281 -130 0 -130 0 0 -187 c0 -157 -2
-184 -13 -163 -7 13 -24 31 -38 39 -24 13 -48 11 -260 -23 -133 -21 -310 -42
-412 -49 -131 -8 -176 -14 -173 -23 9 -24 -57 -33 -85 -11 -9 7 -16 17 -15 22
1 6 -14 11 -31 13 -19 2 -33 -1 -33 -7 0 -6 -9 -20 -20 -31 -18 -18 -47 -22
-283 -40 -144 -10 -316 -21 -382 -25 -66 -3 -129 -8 -140 -10 -14 -3 -27 5
-40 25 -26 39 -54 38 -89 -2 l-29 -33 -300 -14 -300 -15 -23 27 c-23 26 -74
38 -74 17 0 -5 -9 -19 -19 -29 -18 -18 -44 -21 -288 -30 -147 -6 -320 -11
-383 -11 l-115 1 -25 29 c-13 17 -33 30 -43 30 -20 0 -56 -37 -57 -57 0 -10
-60 -13 -267 -13 -148 0 -317 -3 -378 -6 l-110 -6 -18 31 c-24 40 -54 40 -90
0 l-27 -31 -334 7 -333 7 -17 29 c-22 38 -54 37 -88 -2 l-27 -30 -298 8 c-186
5 -298 12 -298 18 0 19 -40 55 -60 55 -21 0 -55 -31 -55 -50 0 -13 -27 -13
-448 5 -384 16 -483 23 -479 33 4 14 -38 52 -59 52 -12 0 -30 -12 -40 -26
l-19 -26 -142 6 c-128 6 -409 24 -645 42 -54 4 -88 11 -88 18 -1 23 -39 56
-64 56 -14 0 -26 -4 -26 -10 0 -5 -8 -18 -18 -28 -16 -16 -31 -18 -102 -14
-67 4 -83 8 -87 22 -4 15 -24 18 -136 24 -165 9 -232 17 -485 58 -186 30 -205
31 -230 17 -53 -29 -54 -102 -2 -140 24 -18 38 -18 250 -9 212 9 558 1 717
-16 54 -6 62 -10 67 -30 4 -13 11 -24 17 -24 6 0 6 -6 1 -17 -5 -10 -7 -33 -5
-50 3 -18 1 -33 -3 -33 -11 0 -12 -73 -1 -81 4 -3 3 -17 -4 -32 -11 -25 -3
-119 16 -183 5 -16 2 -23 -14 -27 -29 -7 -30 -67 -1 -74 11 -3 20 -11 20 -18
0 -8 -9 -17 -20 -20 -28 -9 -28 -65 0 -72 18 -5 19 -15 20 -214 l0 -209 -25 0
c-29 0 -50 -31 -33 -48 7 -7 20 -12 30 -12 13 0 18 -8 18 -31 0 -26 -3 -30
-20 -26 -23 6 -45 -16 -36 -38 3 -8 12 -15 21 -15 19 0 19 -19 -1 -95 -21 -81
-18 -115 12 -146 23 -24 24 -30 18 -97 -4 -40 -11 -72 -15 -72 -15 0 -39 -58
-39 -92 0 -18 11 -73 25 -121 23 -84 24 -107 31 -477 6 -330 5 -390 -7 -394
-108 -32 -167 -75 -204 -151 -29 -57 -27 -175 2 -231 29 -54 101 -117 151
-132 94 -28 190 -9 258 51 56 50 85 105 91 178 12 128 -78 253 -200 278 l-32
7 -3 394 -3 395 28 93 c22 76 25 97 15 113 -7 11 -8 19 -2 19 18 0 11 28 -15
58 -21 26 -25 40 -25 99 0 65 2 71 26 84 l27 14 -6 102 c-5 95 -4 102 14 108
27 9 27 65 -1 72 -11 3 -20 11 -20 18 0 7 9 15 20 18 25 7 28 62 4 75 -12 7
-15 19 -12 46 4 32 2 36 -19 36 -23 0 -23 1 -23 130 0 123 1 130 20 130 17 0
20 7 20 44 0 40 2 44 30 50 44 8 34 56 -12 56 -13 0 -18 8 -18 25 0 18 5 25
19 25 10 0 24 6 30 14 15 18 3 46 -20 46 -10 0 -19 1 -19 3 0 1 7 40 15 87 19
109 19 107 -9 135 -21 21 -24 35 -27 114 -2 50 -1 91 4 91 4 0 7 10 7 21 0 20
4 21 53 15 28 -3 198 -15 377 -26 473 -30 450 -27 450 -56 0 -13 4 -24 8 -24
5 0 5 -26 1 -57 -9 -66 -5 -270 6 -324 6 -31 4 -37 -14 -42 -27 -7 -26 -58 1
-65 24 -6 23 -39 0 -46 -14 -5 -17 -14 -14 -37 2 -17 11 -33 18 -36 11 -4 14
-46 14 -213 l0 -209 -27 -3 c-39 -4 -45 -45 -9 -54 34 -8 37 -51 4 -56 -31 -4
-38 -47 -9 -55 25 -6 25 -1 1 -93 -25 -96 -25 -103 6 -139 24 -29 25 -35 19
-105 -5 -48 -12 -77 -20 -80 -21 -8 -33 -67 -25 -117 4 -24 17 -78 28 -120 19
-70 21 -110 23 -474 l2 -397 -53 -18 c-64 -22 -95 -44 -137 -98 -112 -146 -22
-374 162 -412 63 -13 113 -6 175 25 92 47 139 127 140 236 0 118 -68 211 -182
250 l-53 18 1 423 c1 405 2 425 23 482 24 67 27 116 9 135 -10 11 -10 13 0 7
19 -11 15 28 -7 55 -12 15 -21 49 -26 94 -6 69 -6 71 19 84 33 18 40 57 27
141 -14 82 -14 77 8 83 26 7 34 65 9 73 -24 7 -23 40 2 47 26 7 27 52 2 66
-14 7 -17 18 -14 45 4 33 2 36 -22 36 l-26 0 0 135 c0 127 1 135 19 135 16 0
20 8 23 43 2 28 8 42 18 43 8 1 21 2 28 3 6 0 12 12 12 26 0 24 -9 30 -37 26
-8 -1 -13 10 -13 28 0 23 5 30 23 33 30 4 36 44 8 53 -24 7 -25 19 -10 101 16
81 13 105 -15 130 -22 20 -24 27 -21 110 1 49 3 98 4 108 1 18 9 19 184 11
100 -4 308 -12 462 -19 279 -11 280 -11 283 -33 2 -13 7 -23 11 -23 4 0 4 -26
0 -57 -9 -66 -5 -270 6 -324 6 -31 4 -37 -14 -42 -29 -7 -29 -57 -1 -64 25 -7
26 -40 2 -47 -14 -5 -17 -14 -14 -37 2 -17 11 -33 18 -36 11 -4 14 -47 14
-220 0 -209 -1 -215 -20 -210 -23 6 -45 -16 -36 -38 3 -8 15 -15 26 -15 16 0
20 -7 20 -30 0 -22 -5 -30 -18 -30 -10 0 -23 -5 -30 -12 -14 -14 2 -48 24 -48
10 0 14 -6 10 -17 -11 -37 -36 -155 -36 -169 0 -8 12 -27 26 -41 25 -24 25
-29 19 -96 -5 -48 -14 -80 -28 -99 -27 -37 -25 -106 5 -197 22 -63 23 -83 26
-482 l3 -417 -34 -6 c-78 -15 -164 -102 -188 -190 -15 -53 -6 -133 20 -184 26
-51 99 -115 149 -130 59 -18 151 -14 198 7 49 22 106 79 130 129 26 54 30 140
9 203 -28 84 -110 152 -208 174 l-28 6 2 402 c2 390 3 405 25 485 27 93 29
122 12 141 -10 11 -10 13 0 7 20 -12 15 39 -7 58 -13 12 -21 37 -25 87 -7 69
-7 70 25 100 31 29 31 31 25 92 -4 34 -9 76 -12 93 -5 26 -2 32 15 37 26 6 30
64 6 73 -21 9 -19 32 5 39 27 9 28 65 1 72 -16 4 -18 11 -14 44 5 37 4 39 -21
39 l-26 0 0 135 c0 128 1 135 20 135 17 0 20 7 20 46 0 37 3 45 18 43 34 -3
42 1 42 26 0 24 -9 30 -37 26 -8 -1 -13 10 -13 28 0 23 5 30 23 33 30 4 36 44
8 53 -24 7 -25 19 -10 101 16 81 13 105 -15 131 -24 20 -25 26 -22 122 1 56 5
104 8 107 3 3 141 2 307 -2 l301 -7 6 -24 c4 -12 10 -23 16 -23 5 0 6 -5 2
-11 -6 -10 -11 -87 -17 -249 -1 -33 4 -69 19 -131 5 -21 2 -27 -15 -32 -29 -7
-30 -63 -1 -72 26 -8 26 -32 0 -40 -14 -4 -20 -15 -20 -35 0 -20 6 -31 20 -35
19 -6 20 -15 20 -215 l0 -209 -27 -3 c-22 -2 -28 -8 -28 -28 0 -18 6 -26 23
-28 29 -4 32 -52 3 -52 -23 0 -45 -25 -36 -40 4 -6 15 -14 25 -18 16 -7 16
-11 -1 -82 -26 -107 -25 -136 7 -156 25 -17 25 -19 18 -93 -5 -57 -11 -79 -26
-91 -32 -26 -33 -92 -4 -193 26 -86 26 -96 33 -501 l6 -413 -44 -12 c-161 -45
-239 -223 -165 -374 81 -167 303 -197 429 -58 48 53 67 101 67 169 0 77 -17
126 -63 178 -41 47 -90 77 -144 89 l-33 7 0 416 c0 416 0 417 25 497 28 89 31
125 13 125 -10 0 -9 3 1 9 19 12 7 57 -19 71 -17 9 -20 21 -20 82 0 65 2 74
26 93 29 23 33 53 20 158 -4 37 -4 67 1 66 24 -4 33 4 33 32 0 23 -5 32 -21
36 -12 4 -18 11 -15 20 3 8 6 17 6 19 0 2 6 4 14 4 18 0 27 57 11 70 -7 5 -15
6 -20 2 -4 -4 -6 12 -3 36 3 38 1 42 -19 42 -23 0 -23 1 -23 130 0 123 1 130
20 130 17 0 20 7 20 44 0 41 2 44 31 50 25 5 30 10 27 28 -2 17 -11 24 -31 26
-24 3 -28 7 -25 30 2 18 8 26 19 24 21 -3 43 23 35 43 -3 8 -15 15 -26 15 -16
0 -19 5 -15 23 6 29 13 71 21 130 6 43 4 51 -19 75 -23 24 -26 37 -29 115 -2
48 0 87 5 87 4 0 7 12 7 26 0 24 3 26 31 20 17 -3 170 -6 340 -6 l309 0 6 -25
c3 -14 10 -25 16 -25 5 0 6 -5 2 -12 -4 -6 -8 -52 -9 -102 -1 -50 -6 -103 -10
-119 -4 -16 -1 -56 9 -98 20 -89 20 -86 -4 -92 -14 -4 -20 -14 -20 -35 0 -22
6 -32 20 -37 26 -8 26 -32 0 -40 -14 -4 -20 -15 -20 -35 0 -20 6 -31 20 -35
19 -6 20 -15 20 -209 l0 -203 -31 -7 c-25 -5 -30 -10 -27 -28 2 -15 11 -24 26
-26 17 -3 22 -10 22 -33 0 -25 -3 -29 -19 -24 -22 7 -46 -18 -37 -40 3 -8 12
-15 21 -15 19 0 19 -29 0 -100 -22 -83 -20 -116 11 -136 25 -17 25 -19 19 -93
-4 -42 -13 -80 -19 -86 -43 -34 -45 -82 -10 -201 25 -88 26 -95 31 -506 l6
-418 -25 0 c-13 0 -47 -12 -76 -26 -191 -95 -189 -376 4 -470 64 -31 156 -36
215 -11 50 20 116 82 142 131 30 58 30 174 0 231 -40 76 -133 145 -193 145
-20 0 -20 4 -20 414 0 412 0 414 25 500 28 97 30 117 13 134 -9 9 -9 12 0 12
20 0 14 26 -13 58 -21 26 -25 40 -25 99 0 63 2 71 24 82 30 17 37 52 26 132
-13 86 -13 87 10 94 29 9 28 63 -1 74 l-22 8 20 19 c11 10 23 31 27 46 5 21 2
28 -15 33 -18 6 -21 13 -16 46 5 36 3 39 -19 39 l-24 0 0 125 c0 118 1 125 20
125 17 0 20 7 20 44 0 41 2 44 31 50 25 5 30 10 27 28 -2 17 -11 24 -31 26
-24 3 -28 7 -25 30 2 16 9 27 18 27 43 1 54 40 15 55 -13 5 -23 15 -20 22 5
15 12 60 21 134 6 46 4 53 -19 75 -23 22 -26 33 -29 112 -2 48 0 87 5 87 4 0
7 11 7 25 l0 25 133 0 c72 0 243 3 380 7 l247 6 0 -21 c0 -12 5 -22 11 -22 6
0 8 -8 5 -18 -12 -37 -15 -259 -5 -326 10 -60 9 -70 -5 -78 -24 -13 -21 -69 4
-75 26 -7 26 -30 0 -38 -25 -8 -28 -60 -3 -73 15 -9 17 -34 17 -218 1 -208 1
-209 -21 -207 -11 1 -26 -4 -32 -11 -17 -20 -2 -46 25 -46 20 0 24 -5 24 -30
0 -25 -4 -30 -25 -30 -14 0 -28 -7 -31 -15 -7 -18 14 -47 27 -39 14 8 11 -26
-11 -105 -22 -79 -21 -98 10 -126 16 -15 20 -31 20 -91 0 -65 -3 -76 -26 -99
-24 -24 -26 -31 -21 -88 3 -34 14 -95 26 -135 18 -66 21 -113 27 -481 l7 -409
-37 -10 c-59 -17 -120 -58 -150 -100 -63 -92 -69 -196 -16 -289 106 -186 375
-173 470 22 23 47 27 136 8 197 -22 76 -112 154 -195 173 l-33 7 0 429 c0 337
3 437 13 462 28 65 40 136 27 152 -9 11 -10 15 -1 15 17 0 4 41 -18 60 -12 11
-20 38 -25 87 l-7 71 32 19 31 18 -6 102 c-5 95 -4 102 14 108 28 9 28 61 0
70 -26 8 -26 31 0 38 25 6 29 64 5 73 -10 4 -15 20 -15 45 0 32 -3 39 -20 39
-19 0 -20 7 -20 130 0 123 1 130 20 130 18 0 19 5 13 45 -5 43 -5 45 19 45 34
0 55 25 38 45 -7 8 -21 15 -31 15 -14 0 -19 7 -19 25 0 18 5 25 19 25 28 0 47
26 31 45 -7 8 -19 15 -26 15 -17 0 -17 0 1 98 16 84 11 122 -19 139 -18 10
-26 207 -9 224 7 7 115 14 290 20 153 4 326 10 384 14 l107 5 6 -25 c4 -14 11
-25 17 -25 6 0 6 -6 1 -17 -5 -10 -7 -33 -5 -50 3 -18 1 -33 -3 -33 -10 0 -10
-62 0 -78 3 -6 1 -22 -5 -36 -11 -23 -5 -94 15 -183 3 -15 -1 -23 -15 -26 -27
-7 -27 -67 1 -74 26 -7 26 -30 0 -38 -28 -9 -28 -65 0 -72 19 -5 19 -15 20
-208 l0 -204 -28 -3 c-21 -2 -27 -8 -27 -28 0 -19 6 -26 23 -28 19 -3 23 -9
20 -30 -2 -18 -8 -26 -19 -24 -21 3 -43 -23 -35 -43 3 -8 12 -15 21 -15 19 0
19 -17 -1 -94 -22 -82 -20 -116 12 -144 24 -21 25 -25 18 -94 -5 -53 -12 -76
-26 -88 -32 -25 -33 -86 -4 -196 25 -97 26 -114 32 -510 l7 -409 -45 -12 c-65
-17 -127 -69 -160 -132 -55 -104 -30 -243 57 -320 110 -96 258 -91 362 12 103
104 108 252 12 362 -35 40 -118 85 -156 85 l-23 0 0 420 0 419 26 92 c21 73
24 96 15 111 -7 11 -7 18 -1 18 18 0 11 28 -15 58 -21 26 -25 40 -25 100 0 64
2 71 26 87 27 17 27 18 21 116 -5 90 -4 99 14 104 27 9 26 65 -1 72 -25 7 -26
30 -1 38 27 8 34 63 8 71 -15 5 -18 13 -15 45 3 35 1 39 -19 39 -23 0 -23 2
-23 125 0 118 1 125 20 125 17 0 20 7 20 45 0 37 3 45 18 45 46 0 56 48 11 57
-25 5 -30 10 -27 32 2 17 8 25 19 23 22 -3 41 21 33 42 -3 9 -15 16 -25 16
-23 0 -23 -1 -4 97 19 100 19 100 -9 128 -21 21 -24 35 -27 114 -2 50 -1 91 4
91 4 0 7 11 7 25 0 14 1 25 3 26 9 2 532 28 570 29 41 0 50 -3 54 -20 3 -11 9
-20 15 -20 5 0 4 -8 -2 -19 -5 -11 -7 -26 -4 -34 3 -8 1 -38 -4 -65 -5 -30 -5
-55 0 -60 5 -5 4 -19 -3 -35 -11 -25 -3 -119 16 -183 5 -16 2 -23 -14 -27 -29
-7 -30 -67 -1 -74 11 -3 20 -11 20 -18 0 -8 -9 -17 -20 -20 -14 -5 -20 -15
-20 -37 0 -21 6 -31 20 -35 19 -5 20 -14 20 -215 0 -206 0 -210 -20 -205 -28
7 -55 -20 -39 -39 6 -8 20 -14 30 -14 14 0 19 -7 19 -30 0 -25 -4 -30 -25 -30
-14 0 -28 -7 -31 -15 -7 -18 14 -47 27 -39 13 8 11 -34 -6 -96 -22 -81 -19
-113 10 -140 24 -23 25 -28 19 -95 -3 -38 -12 -74 -18 -80 -42 -34 -45 -86
-11 -209 24 -86 25 -104 31 -510 l7 -421 -45 -12 c-154 -41 -235 -225 -162
-371 46 -92 132 -144 239 -144 115 1 218 77 250 185 19 64 19 90 -1 158 -20
70 -101 152 -166 169 -23 7 -49 14 -56 16 -10 3 -12 94 -10 441 3 434 3 439
28 516 20 64 22 81 12 97 -7 12 -8 20 -2 20 18 0 11 28 -15 58 -21 26 -25 40
-25 99 0 65 2 71 26 84 l27 14 -6 102 c-5 95 -4 102 14 108 27 9 26 61 -1 70
-11 3 -20 12 -20 20 0 7 9 15 20 18 25 6 29 64 4 74 -11 4 -14 16 -12 42 3 31
0 36 -20 39 -21 3 -22 6 -22 128 0 117 1 124 20 124 17 0 20 7 20 45 0 41 2
45 25 45 14 0 28 7 31 15 8 20 -13 45 -37 45 -14 0 -19 7 -19 25 0 18 5 25 19
25 10 0 24 6 30 14 15 18 3 46 -20 46 -10 0 -19 1 -19 3 0 1 7 40 15 87 19
109 19 107 -9 135 -21 21 -24 35 -27 114 -2 50 -1 91 4 91 4 0 7 11 7 24 0 28
-30 25 445 56 165 11 316 22 336 25 29 4 38 1 44 -13 10 -27 16 -112 9 -124
-11 -17 -12 -71 -2 -85 6 -7 4 -19 -3 -31 -12 -18 -5 -102 15 -189 3 -15 -1
-23 -15 -26 -27 -7 -27 -63 1 -70 11 -3 20 -12 20 -20 0 -8 -9 -17 -20 -20
-28 -7 -28 -63 0 -72 20 -6 20 -13 18 -213 l-3 -207 -24 -1 c-45 -2 -45 -54 0
-54 14 0 19 -7 19 -30 0 -25 -4 -30 -25 -30 -14 0 -28 -7 -31 -15 -7 -18 14
-47 27 -39 13 8 11 -22 -6 -91 -21 -88 -19 -118 10 -145 24 -23 25 -28 19 -95
-3 -38 -12 -74 -18 -80 -42 -34 -45 -81 -11 -210 24 -92 25 -113 31 -513 l7
-418 -43 -13 c-83 -25 -150 -86 -179 -164 -6 -16 -11 -56 -11 -90 0 -237 283
-353 450 -185 78 78 98 206 47 304 -38 75 -102 125 -180 139 l-37 7 2 442 c3
437 3 442 28 519 20 64 22 81 12 97 -7 12 -8 20 -2 20 18 0 11 28 -15 58 -21
26 -25 40 -25 99 0 65 2 71 26 84 l27 14 -6 102 c-5 95 -4 102 14 108 27 9 26
61 -1 70 -11 3 -20 12 -20 20 0 7 9 15 20 18 25 6 29 64 5 73 -10 4 -15 20
-15 45 0 32 -3 39 -20 39 -19 0 -20 7 -20 130 0 123 1 130 20 130 17 0 20 7
20 46 0 41 2 46 20 41 23 -6 45 16 36 38 -3 8 -17 15 -31 15 -21 0 -25 5 -25
30 0 25 4 30 24 30 13 0 27 7 30 16 7 19 -10 44 -30 44 -17 0 -17 -9 1 89 17
87 14 115 -16 140 -15 13 -19 32 -20 104 -1 48 1 90 5 94 3 3 6 17 6 30 0 17
6 23 23 24 12 0 114 4 227 9 115 4 304 4 430 -1 243 -9 260 -6 280 44 5 13 9
-696 9 -1705 l1 -1728 -255 0 -254 0 -3 -72 -3 -73 255 -137 255 -136 3 -356
2 -356 -4597 2 -4598 3 -3 347 -2 348 37 23 c21 13 138 77 261 142 l222 118 0
73 0 74 -257 2 -258 3 0 1923 0 1922 -130 0 -130 0 2 -285z m243 100 l0 -175
-52 -2 -53 -2 53 -3 c37 -3 52 -8 52 -19 0 -10 -14 -15 -52 -16 l-53 -2 53 -3
52 -4 0 -85 0 -84 -52 -2 -53 -2 53 -3 c64 -5 70 -23 7 -23 -25 0 -45 -4 -45
-10 0 -5 20 -10 45 -10 l45 0 0 -1625 0 -1626 -115 2 -115 1 0 1624 0 1624 50
0 c28 0 50 5 50 10 0 6 -22 10 -50 10 -67 0 -64 19 3 22 l52 2 -52 3 -53 4 0
85 0 84 53 2 52 2 -52 3 c-38 3 -53 8 -53 19 0 10 14 15 53 16 l52 2 -52 3
-53 4 0 175 0 174 115 0 115 0 0 -175z m9460 0 l0 -175 -52 -2 -53 -2 53 -3
c67 -5 65 -26 -4 -34 l-49 -6 53 -1 53 -2 -3 -82 -3 -83 -50 -6 -50 -6 53 -1
c66 -2 69 -22 2 -22 -27 0 -50 -4 -50 -10 0 -5 23 -10 50 -10 l50 0 0 -1624 0
-1624 -115 -1 -115 -2 0 1626 0 1625 45 0 c25 0 45 5 45 10 0 6 -20 10 -45 10
-60 0 -58 20 3 22 l47 2 -47 3 -48 4 0 85 0 84 48 2 47 2 -47 3 c-34 3 -48 8
-48 19 0 10 14 15 48 16 l47 2 -47 3 -48 4 0 175 0 174 115 0 115 0 0 -175z
m-9140 -160 c118 -19 280 -40 360 -46 80 -6 165 -13 190 -17 l45 -7 -45 -3
c-25 -2 -103 1 -175 8 -128 11 -186 19 -436 59 -70 12 -136 21 -147 21 -27 0
-52 -26 -52 -54 0 -51 6 -51 389 -48 310 3 634 -9 650 -24 11 -10 -11 -11 -94
-3 -149 14 -590 21 -748 12 -81 -4 -158 -4 -171 0 -49 16 -55 99 -9 126 23 13
-3 16 243 -24z m8844 14 c32 -25 36 -77 7 -104 -17 -15 -36 -17 -138 -14 -65
2 -251 4 -413 3 -174 0 -277 3 -250 8 25 4 211 7 413 5 355 -2 369 -1 383 17
8 11 14 25 14 31 0 23 -32 55 -55 55 -14 0 -120 -16 -237 -35 -193 -31 -542
-64 -555 -52 -6 7 46 13 232 27 83 6 240 26 350 45 110 18 205 34 211 34 6 1
23 -8 38 -20z m-9019 -33 c19 -8 35 -18 35 -21 0 -3 -15 -12 -32 -20 -50 -20
-89 10 -56 43 15 15 12 15 53 -2z m230 -21 c105 -17 127 -23 90 -24 -27 -1
-102 -3 -165 -6 -63 -3 -109 -3 -102 1 18 8 15 41 -5 53 -14 9 -12 10 12 5 17
-3 93 -16 170 -29z m8773 6 c5 -32 -13 -41 -54 -28 -41 13 -43 22 -6 41 36 20
56 16 60 -13z m-118 -5 c0 -13 6 -27 13 -29 18 -8 -65 -8 -204 0 l-124 7 135
21 c183 30 180 30 180 1z m-7847 -53 c-13 -2 -33 -2 -45 0 -13 2 -3 4 22 4 25
0 35 -2 23 -4z m7127 -13 c-20 -13 -70 -13 -70 0 0 6 19 10 43 10 31 0 38 -3
27 -10z m-190 -9 c0 -5 -35 -12 -79 -16 -149 -13 -736 -51 -740 -48 -13 9 31
14 314 33 272 19 474 34 498 39 4 0 7 -3 7 -8z m70 -51 c0 -33 -4 -60 -10 -60
-6 0 -10 27 -10 60 0 33 4 60 10 60 6 0 10 -27 10 -60z m-7020 -5 c0 -30 -4
-55 -10 -55 -5 0 -10 25 -10 55 0 30 5 55 10 55 6 0 10 -25 10 -55z m470 25
c382 -24 556 -42 320 -34 -127 4 -285 14 -647 40 -51 4 -93 11 -93 17 0 5 18
7 43 3 23 -3 193 -15 377 -26z m5623 -7 c-13 -2 -33 -2 -45 0 -13 2 -3 4 22 4
25 0 35 -2 23 -4z m-5094 -72 c-2 -49 -17 -93 -20 -61 -8 62 -4 110 8 110 10
0 13 -14 12 -49z m5008 43 c-8 -8 -453 -34 -552 -32 l-70 1 60 8 c108 16 573
34 562 23z m73 -49 c0 -30 -4 -55 -10 -55 -5 0 -10 25 -10 55 0 30 5 55 10 55
6 0 10 -25 10 -55z m-7546 35 c68 -25 50 -130 -22 -130 -26 0 -26 1 8 18 43
21 51 59 20 87 -30 27 -69 11 -86 -35 l-12 -35 -1 32 c-1 23 6 37 25 52 30 24
34 24 68 11z m3026 -10 c107 -5 241 -10 297 -10 64 0 104 -4 109 -11 5 -8 -42
-9 -172 -4 -385 15 -747 34 -753 41 -6 7 128 2 519 -16z m3793 13 c-13 -2 -33
-2 -45 0 -13 2 -3 4 22 4 25 0 35 -2 23 -4z m3072 -18 c14 -13 25 -36 25 -50
0 -34 -16 -24 -23 14 -10 50 -81 54 -93 5 -9 -35 1 -53 38 -69 l33 -14 -32 -1
c-36 0 -63 29 -63 68 0 29 42 72 70 72 11 0 32 -11 45 -25z m-3972 -2 c-13 -2
-33 -2 -45 0 -13 2 -3 4 22 4 25 0 35 -2 23 -4z m817 -2 c0 -10 -195 -20 -530
-25 -201 -4 -233 -3 -150 5 58 5 224 13 370 17 146 5 275 9 288 10 12 1 22 -2
22 -7z m-6723 -37 c2 -6 -3 -18 -10 -28 -13 -18 -15 -17 -42 9 -26 27 -27 29
-9 42 15 11 21 11 38 0 11 -8 21 -18 23 -23z m3492 -13 c-2 -54 -12 -82 -21
-59 -4 10 -3 95 1 106 1 1 6 2 11 2 6 0 10 -21 9 -49z m734 42 c-13 -2 -33 -2
-45 0 -13 2 -3 4 22 4 25 0 35 -2 23 -4z m2567 -48 c0 -30 -4 -55 -10 -55 -5
0 -10 25 -10 55 0 30 5 55 10 55 6 0 10 -25 10 -55z m3064 40 c13 -14 12 -18
-11 -41 -25 -25 -27 -26 -40 -8 -17 23 -16 29 3 48 19 20 29 20 48 1z m-5852
-5 c86 0 138 -4 138 -10 0 -13 -579 -1 -600 12 -9 6 48 7 154 4 93 -3 231 -6
308 -6z m1031 3 c-13 -2 -35 -2 -50 0 -16 2 -5 4 22 4 28 0 40 -2 28 -4z
m3404 -30 c-3 -10 -5 -4 -5 12 0 17 2 24 5 18 2 -7 2 -21 0 -30z m-7020 -10
c-3 -10 -5 -4 -5 12 0 17 2 24 5 18 2 -7 2 -21 0 -30z m4403 27 c0 -7 -133 -9
-382 -8 -377 2 -379 3 -133 8 468 10 515 10 515 0z m70 -45 c0 -30 -4 -55 -10
-55 -5 0 -10 25 -10 55 0 30 5 55 10 55 6 0 10 -25 10 -55z m2580 -12 c0 -81
-5 -79 -14 5 -5 41 -3 62 4 62 6 0 10 -27 10 -67z m-7020 -5 c0 -74 -5 -73
-14 5 -4 36 -2 57 4 57 6 0 10 -27 10 -62z m2760 7 c0 -30 -4 -55 -10 -55 -5
0 -10 25 -10 55 0 30 5 55 10 55 6 0 10 -25 10 -55z m730 46 c0 -9 -669 -3
-679 5 -2 2 149 4 337 4 208 0 342 -4 342 -9z m70 -51 c0 -33 -4 -60 -10 -60
-6 0 -10 27 -10 60 0 33 4 60 10 60 6 0 10 -27 10 -60z m-5074 13 c-23 -62
-2341 -4336 -2354 -4341 -7 -2 -12 1 -12 6 0 9 2253 4183 2326 4310 24 41 52
59 40 25z m10047 -195 c94 -173 2067 -4129 2067 -4144 0 -2 -8 -4 -18 -4 -39
0 -380 666 -1290 2521 -491 999 -892 1821 -892 1827 0 36 30 -9 133 -200z
m-9943 -1978 l0 -2170 -1215 0 c-668 0 -1215 2 -1215 3 0 2 334 620 741 1373
408 753 767 1417 798 1475 31 58 218 405 416 772 316 584 363 666 383 667 28
0 64 18 75 36 4 8 10 14 12 14 3 0 5 -976 5 -2170z m2367 2133 c-3 -10 -5 -4
-5 12 0 17 2 24 5 18 2 -7 2 -21 0 -30z m60 -10 c-3 -10 -5 -2 -5 17 0 19 2
27 5 18 2 -10 2 -26 0 -35z m5030 10 c-3 -10 -5 -4 -5 12 0 17 2 24 5 18 2 -7
2 -21 0 -30z m943 12 c0 -14 -4 -25 -10 -25 -5 0 -10 11 -10 25 0 14 5 25 10
25 6 0 10 -11 10 -25z m1383 -22 l37 -8 894 -1820 c533 -1084 964 -1947 1065
-2135 94 -173 171 -318 171 -322 0 -5 -504 -8 -1120 -8 l-1120 0 0 2171 c0
2069 1 2170 18 2150 9 -11 34 -24 55 -28z m-8403 17 c0 -11 -4 -20 -10 -20 -5
0 -10 9 -10 20 0 11 5 20 10 20 6 0 10 -9 10 -20z m1030 -40 c0 -33 -4 -60
-10 -60 -5 0 -10 13 -10 29 0 16 -3 43 -6 60 -5 24 -3 31 10 31 13 0 16 -11
16 -60z m5080 -2 c0 -74 -5 -73 -14 5 -4 36 -2 57 4 57 6 0 10 -27 10 -62z
m-4083 -5 c-3 -10 -5 -4 -5 12 0 17 2 24 5 18 2 -7 2 -21 0 -30z m60 -10 c-3
-10 -5 -2 -5 17 0 19 2 27 5 18 2 -10 2 -26 0 -35z m3250 10 c-3 -10 -5 -4 -5
12 0 17 2 24 5 18 2 -7 2 -21 0 -30z m-3267 -33 c0 -33 -4 -60 -10 -60 -5 0
-10 13 -10 29 0 16 -3 43 -6 60 -5 24 -3 31 10 31 13 0 16 -11 16 -60z m3300
-2 c0 -74 -5 -73 -14 5 -4 36 -2 57 4 57 6 0 10 -27 10 -62z m-2613 5 c-3 -10
-5 -2 -5 17 0 19 2 27 5 18 2 -10 2 -26 0 -35z m-1757 12 c0 -14 -4 -25 -10
-25 -5 0 -10 11 -10 25 0 14 5 25 10 25 6 0 10 -11 10 -25z m47 -22 c-3 -10
-5 -2 -5 17 0 19 2 27 5 18 2 -10 2 -26 0 -35z m2510 0 c-3 -10 -5 -2 -5 17 0
19 2 27 5 18 2 -10 2 -26 0 -35z m913 -15 c0 -74 -5 -73 -14 5 -4 36 -2 57 4
57 6 0 10 -27 10 -62z m1610 42 c0 -11 -4 -20 -10 -20 -5 0 -10 9 -10 20 0 11
5 20 10 20 6 0 10 -9 10 -20z m-5984 -29 c10 -20 5 -71 -15 -138 -1 -2 -1 -16
-1 -33 0 -20 -5 -30 -15 -30 -19 0 -19 33 -1 118 11 55 11 66 -2 78 -8 8 -22
12 -33 9 -13 -4 -19 -2 -19 8 0 34 68 24 86 -12z m2702 -16 c0 -30 -4 -57 -9
-61 -5 -3 -9 8 -9 24 0 16 -3 44 -6 61 -5 24 -3 31 8 31 12 0 15 -13 16 -55z
m800 -10 c0 -30 -4 -57 -9 -61 -5 -3 -9 7 -9 23 0 15 -3 45 -6 66 -6 31 -4 36
8 32 11 -4 16 -22 16 -60z m3510 40 c17 -21 18 -31 10 -72 -5 -27 -12 -68 -16
-92 -8 -51 -32 -69 -32 -24 0 15 6 56 14 91 15 72 5 99 -33 89 -16 -4 -21 -1
-21 14 0 29 53 26 78 -6z m-5068 -30 c0 -14 -4 -25 -10 -25 -5 0 -10 11 -10
25 0 14 5 25 10 25 6 0 10 -11 10 -25z m47 -22 c-3 -10 -5 -2 -5 17 0 19 2 27
5 18 2 -10 2 -26 0 -35z m3253 27 c0 -11 -4 -20 -10 -20 -5 0 -10 9 -10 20 0
11 5 20 10 20 6 0 10 -9 10 -20z m-2570 -31 c0 -10 -7 -19 -15 -19 -15 0 -21
31 -9 43 11 10 24 -3 24 -24z m1670 11 c0 -11 -4 -20 -10 -20 -5 0 -10 9 -10
20 0 11 5 20 10 20 6 0 10 -9 10 -20z m-870 -21 c0 -10 -7 -19 -15 -19 -15 0
-21 31 -9 43 11 10 24 -3 24 -24z m2605 -3 c11 -18 11 -35 -3 -113 -11 -61
-21 -93 -29 -93 -17 0 -16 37 1 118 12 55 12 65 -1 78 -9 8 -23 12 -34 9 -13
-4 -19 -2 -19 8 0 32 63 27 85 -7z m863 -60 c15 -80 15 -86 -2 -86 -8 0 -16
17 -20 43 -4 23 -10 63 -15 90 -7 44 -7 46 9 32 9 -8 22 -44 28 -79z m-7024
20 c4 -23 9 -56 12 -73 5 -26 3 -33 -10 -33 -9 0 -16 6 -16 13 0 6 -6 44 -14
84 -13 68 -12 71 4 60 10 -6 21 -29 24 -51z m1071 44 c17 -19 17 -25 2 -116
-17 -100 -22 -114 -36 -98 -5 5 -3 45 5 94 8 47 12 91 9 98 -2 6 -18 12 -35
12 -29 0 -38 9 -23 23 14 14 61 6 78 -13z m5976 -23 c-8 -8 -11 -7 -11 4 0 20
13 34 18 19 3 -7 -1 -17 -7 -23z m-7011 14 c0 -6 -4 -13 -10 -16 -5 -3 -10 1
-10 9 0 9 5 16 10 16 6 0 10 -4 10 -9z m5379 -24 c13 -11 11 -79 -3 -142 -2
-11 -5 -32 -5 -47 -1 -18 -6 -28 -16 -28 -19 0 -19 33 -1 118 11 55 11 66 -2
78 -8 8 -22 12 -33 9 -13 -4 -19 -2 -19 8 0 28 46 30 79 4z m-3304 -7 c17 -19
17 -25 2 -116 -17 -100 -22 -114 -36 -98 -5 5 -3 45 5 94 8 47 12 91 9 98 -2
6 -18 12 -35 12 -29 0 -38 9 -23 23 14 14 61 6 78 -13z m-1110 -107 c9 -91 -8
-98 -24 -10 -6 34 -14 75 -17 91 -6 29 -6 29 14 10 15 -14 22 -38 27 -91z
m1831 82 c15 -15 23 -32 20 -43 -2 -9 -10 -52 -17 -94 -8 -53 -16 -78 -25 -78
-17 0 -17 26 1 115 12 63 12 71 -3 83 -9 6 -24 10 -34 6 -21 -6 -26 21 -5 29
25 11 38 6 63 -18z m1685 4 c7 -14 9 -40 5 -68 -4 -25 -9 -67 -13 -93 -3 -31
-10 -48 -19 -48 -17 0 -17 14 -2 113 10 67 10 80 -3 88 -8 4 -22 6 -31 3 -12
-3 -18 0 -18 10 0 26 66 21 81 -5z m-887 -11 l26 -23 -17 -97 c-11 -67 -20
-98 -30 -98 -16 0 -16 14 1 110 15 84 8 105 -31 95 -15 -3 -23 -1 -23 8 0 34
38 36 74 5z m2454 -52 c15 -79 15 -86 -1 -86 -7 0 -17 25 -25 65 -15 82 -15
96 1 89 8 -3 19 -33 25 -68z m-5061 27 c-3 -10 -5 -4 -5 12 0 17 2 24 5 18 2
-7 2 -21 0 -30z m4302 25 c-1 -7 1 -20 4 -28 7 -19 27 -117 27 -135 0 -8 -6
-15 -13 -15 -16 0 -42 137 -32 169 7 23 17 29 14 9z m791 -3 c0 -8 -4 -15 -10
-15 -5 0 -10 7 -10 15 0 8 5 15 10 15 6 0 10 -7 10 -15z m-4075 -112 c5 -46 4
-73 -2 -73 -9 0 -23 50 -39 144 l-7 39 21 -19 c15 -14 22 -37 27 -91z m22 50
c-3 -10 -5 -4 -5 12 0 17 2 24 5 18 2 -7 2 -21 0 -30z m2378 -37 c3 -28 9 -61
12 -73 3 -16 1 -23 -9 -23 -10 0 -18 22 -27 68 -7 37 -15 75 -18 85 -4 16 -2
17 15 6 14 -9 22 -28 27 -63z m935 65 c0 -6 -4 -13 -10 -16 -5 -3 -10 1 -10 9
0 9 5 16 10 16 6 0 10 -4 10 -9z m-2615 -52 c16 -83 17 -119 3 -119 -10 0 -18
22 -26 70 -7 39 -12 78 -12 87 0 16 2 16 15 2 9 -8 18 -26 20 -40z m800 -10
c16 -81 18 -122 5 -117 -7 2 -14 11 -16 20 -1 9 -7 39 -13 68 -6 28 -11 58
-11 68 0 15 2 15 15 1 9 -8 18 -26 20 -40z m915 44 c0 -5 -5 -15 -10 -23 -8
-12 -10 -11 -10 8 0 12 5 22 10 22 6 0 10 -3 10 -7z m-1680 -19 c0 -8 -4 -12
-10 -9 -5 3 -10 10 -10 16 0 5 5 9 10 9 6 0 10 -7 10 -16z m800 -10 c0 -8 -4
-12 -10 -9 -5 3 -10 10 -10 16 0 5 5 9 10 9 6 0 10 -7 10 -16z m-3497 -13 c4
-1 7 -5 7 -11 0 -6 -27 -10 -60 -10 -33 0 -60 4 -60 9 0 11 43 19 80 15 14 -1
28 -3 33 -3z m7025 -3 c-3 -8 -27 -14 -61 -16 -46 -2 -57 0 -57 13 0 12 13 15
61 15 44 0 60 -3 57 -12z m-88 -58 c0 -20 -5 -30 -15 -30 -10 0 -15 10 -15 30
0 20 5 30 15 30 10 0 15 -10 15 -30z m40 0 c0 -16 -4 -30 -10 -30 -5 0 -10 14
-10 30 0 17 5 30 10 30 6 0 10 -13 10 -30z m-7060 -5 c0 -16 -6 -25 -15 -25
-9 0 -15 9 -15 25 0 16 6 25 15 25 9 0 15 -9 15 -25z m40 0 c0 -14 -4 -25 -10
-25 -5 0 -10 11 -10 25 0 14 5 25 10 25 6 0 10 -11 10 -25z m6123 6 c4 -1 7
-5 7 -11 0 -6 -27 -10 -60 -10 -33 0 -60 4 -60 9 0 11 43 19 80 15 14 -1 28
-3 33 -3z m-5073 -10 c0 -14 -27 -21 -76 -21 -32 0 -44 4 -44 15 0 12 13 15
60 15 33 0 60 -4 60 -9z m4340 -37 c0 -10 -15 -14 -60 -14 -53 0 -70 7 -55 21
2 3 29 5 60 6 41 1 55 -3 55 -13z m-4437 -16 c7 -23 1 -38 -14 -38 -5 0 -9 14
-9 30 0 35 15 40 23 8z m37 -8 c0 -16 -4 -30 -10 -30 -5 0 -10 14 -10 30 0 17
5 30 10 30 6 0 10 -13 10 -30z m1100 21 c0 -14 -27 -21 -76 -21 -32 0 -44 4
-44 15 0 12 13 15 60 15 33 0 60 -4 60 -9z m3950 -16 c0 -16 -6 -25 -15 -25
-9 0 -15 9 -15 25 0 16 6 25 15 25 9 0 15 -9 15 -25z m40 0 c0 -14 -4 -25 -10
-25 -5 0 -10 11 -10 25 0 14 5 25 10 25 6 0 10 -11 10 -25z m990 10 c3 -6 -20
-11 -57 -13 -56 -3 -74 4 -58 20 9 9 110 3 115 -7z m-7016 -4 c8 -12 -19 -18
-73 -16 -25 0 -46 6 -49 13 -4 14 113 17 122 3z m4436 -12 c0 -5 -27 -9 -60
-9 -71 0 -81 18 -12 22 53 3 72 0 72 -13z m-1675 -4 c0 -5 -28 -11 -62 -13
-56 -3 -74 4 -58 20 9 9 120 3 120 -7z m800 -10 c0 -5 -26 -11 -57 -13 -46 -2
-58 0 -58 12 0 11 13 14 58 13 31 -1 57 -6 57 -12z m-1617 -28 c2 -19 -1 -27
-12 -27 -11 0 -16 10 -16 31 0 38 24 35 28 -4z m32 3 c0 -16 -4 -30 -10 -30
-5 0 -10 14 -10 30 0 17 5 30 10 30 6 0 10 -13 10 -30z m3270 5 c0 -16 -6 -25
-15 -25 -9 0 -15 9 -15 25 0 16 6 25 15 25 9 0 15 -9 15 -25z m40 0 c0 -14 -4
-25 -10 -25 -5 0 -10 11 -10 25 0 14 5 25 10 25 6 0 10 -11 10 -25z m1670 -15
c0 -22 -4 -40 -10 -40 -5 0 -10 18 -10 40 0 22 5 40 10 40 6 0 10 -18 10 -40z
m-7060 -190 c0 -140 -4 -220 -10 -220 -6 0 -10 78 -10 213 0 188 3 227 17 227
2 0 3 -99 3 -220z m40 185 c0 -19 -4 -35 -10 -35 -5 0 -10 16 -10 35 0 19 5
35 10 35 6 0 10 -16 10 -35z m6980 -180 c0 -137 -4 -215 -10 -215 -6 0 -10 78
-10 215 0 137 4 215 10 215 6 0 10 -78 10 -215z m-4210 169 c0 -13 -4 -24 -10
-24 -5 0 -10 14 -10 31 0 17 4 28 10 24 6 -3 10 -17 10 -31z m1640 6 c0 -20
-5 -30 -15 -30 -10 0 -15 10 -15 30 0 20 5 30 15 30 10 0 15 -10 15 -30z m40
5 c0 -14 -4 -25 -10 -25 -5 0 -10 11 -10 25 0 14 5 25 10 25 6 0 10 -11 10
-25z m-3390 0 c0 -12 -13 -15 -60 -15 -44 0 -60 4 -60 14 0 10 17 14 60 15 47
1 60 -2 60 -14z m1670 -11 c0 -31 -23 -28 -28 4 -2 15 2 22 12 22 11 0 16 -9
16 -26z m800 -4 c0 -16 -5 -30 -10 -30 -14 0 -24 26 -16 45 10 26 26 16 26
-15z m40 0 c0 -16 -4 -30 -10 -30 -5 0 -10 14 -10 30 0 17 5 30 10 30 6 0 10
-13 10 -30z m2574 21 c7 -11 -18 -17 -73 -17 -26 1 -46 6 -48 14 -5 14 112 18
121 3z m-5184 -251 c0 -128 -4 -211 -10 -215 -7 -4 -10 70 -10 215 0 145 3
219 10 215 6 -4 10 -87 10 -215z m40 174 c0 -24 -5 -34 -15 -34 -10 0 -15 10
-15 33 0 19 3 37 6 40 13 13 24 -5 24 -39z m1100 31 c0 -12 -13 -15 -60 -15
-44 0 -60 4 -60 14 0 10 17 14 60 15 47 1 60 -2 60 -14z m3305 6 c-15 -15
-118 -17 -123 -3 -3 9 16 12 64 12 42 0 64 -4 59 -9z m635 -206 c0 -137 -4
-215 -10 -215 -6 0 -10 76 -10 208 0 184 3 222 17 222 2 0 3 -97 3 -215z m40
180 c0 -19 -4 -35 -10 -35 -5 0 -10 16 -10 35 0 19 5 35 10 35 6 0 10 -16 10
-35z m-1580 6 c0 -12 -24 -18 -77 -20 -33 -1 -43 2 -43 14 0 12 13 15 60 15
33 0 60 -4 60 -9z m-1670 -11 c0 -6 -27 -10 -60 -10 -33 0 -60 4 -60 10 0 6
27 10 60 10 33 0 60 -4 60 -10z m793 1 c4 -1 7 -5 7 -11 0 -6 -27 -10 -60 -10
-33 0 -60 4 -60 9 0 14 57 20 113 12z m-1623 -219 c0 -116 -5 -214 -10 -222
-6 -10 -10 62 -10 213 0 150 3 226 10 222 6 -4 10 -86 10 -213z m40 172 c0
-24 -5 -34 -15 -34 -10 0 -15 10 -15 33 0 19 3 37 6 40 13 13 24 -5 24 -39z
m3260 -164 c0 -133 -4 -210 -10 -210 -6 0 -10 74 -10 203 0 179 3 217 17 217
2 0 3 -94 3 -210z m40 175 c0 -19 -4 -35 -10 -35 -5 0 -10 16 -10 35 0 19 5
35 10 35 6 0 10 -16 10 -35z m-940 -205 c0 -140 -4 -220 -10 -220 -6 0 -10 80
-10 220 0 140 4 220 10 220 6 0 10 -80 10 -220z m40 186 c0 -19 -4 -38 -10
-41 -6 -4 -10 10 -10 34 0 23 5 41 10 41 6 0 10 -15 10 -34z m-1711 -108 c1
-161 -8 -298 -20 -298 -10 0 -12 414 -2 424 17 17 21 -4 22 -126z m31 97 c0
-19 -4 -35 -10 -35 -5 0 -10 16 -10 35 0 19 5 35 10 35 6 0 10 -16 10 -35z
m768 -147 c-1 -196 -6 -260 -19 -252 -10 6 -12 262 -2 362 11 117 21 62 21
-110z m36 150 c9 -36 7 -48 -9 -48 -10 0 -15 11 -15 35 0 39 14 47 24 13z
m-3556 -232 c4 -33 -12 -56 -28 -40 -13 13 -1 76 14 71 6 -2 12 -16 14 -31z
m7022 4 c0 -18 -6 -33 -15 -37 -23 -8 -28 1 -20 36 9 41 35 41 35 1z m-940
-60 c0 -18 -6 -33 -15 -37 -23 -8 -28 1 -20 36 9 41 35 41 35 1z m-5092 -17
c-4 -52 -28 -56 -28 -4 0 30 4 41 16 41 11 0 14 -9 12 -37z m6022 12 c0 -13
-11 -15 -57 -13 -81 4 -85 28 -4 28 48 0 61 -3 61 -15z m-7020 -10 c0 -13 -10
-15 -47 -14 -55 3 -73 8 -73 20 0 5 27 9 60 9 47 0 60 -3 60 -15z m5350 -12
c0 -16 -5 -35 -10 -43 -15 -24 -31 2 -24 38 8 40 34 43 34 5z m-3310 -38 c0
-24 -5 -35 -15 -35 -10 0 -15 11 -15 35 0 24 5 35 15 35 10 0 15 -11 15 -35z
m2410 11 c0 -28 -14 -56 -26 -56 -14 0 -21 60 -8 73 9 9 34 -3 34 -17z m2520
-6 c0 -16 -4 -30 -10 -30 -11 0 -14 43 -3 53 11 12 13 8 13 -23z m48 -3 c2
-19 -1 -27 -12 -27 -11 0 -16 10 -16 31 0 38 24 35 28 -4z m-7068 -7 c0 -16
-4 -30 -10 -30 -5 0 -10 14 -10 30 0 17 5 30 10 30 6 0 10 -13 10 -30z m50 0
c0 -20 -5 -30 -15 -30 -10 0 -15 10 -15 30 0 20 5 30 15 30 10 0 15 -10 15
-30z m2770 6 c0 -35 -10 -55 -24 -50 -17 6 -8 74 10 74 8 0 14 -10 14 -24z
m798 -13 c-4 -52 -28 -56 -28 -4 0 30 4 41 16 41 11 0 14 -9 12 -37z m2512 12
c0 -13 -11 -15 -57 -13 -81 4 -85 28 -4 28 48 0 61 -3 61 -15z m-5086 -19 c-3
-8 -17 -13 -37 -11 -18 2 -44 3 -59 4 -16 1 -28 6 -28 11 0 6 28 10 65 10 51
0 63 -3 59 -14z m4346 -20 c0 -11 -12 -14 -52 -12 -68 4 -68 4 -68 16 0 6 27
10 60 10 45 0 60 -3 60 -14z m690 -16 c0 -16 -4 -30 -10 -30 -11 0 -14 43 -3
53 11 12 13 8 13 -23z m50 -6 c0 -15 -6 -24 -15 -24 -10 0 -15 10 -15 30 0 22
4 28 15 24 8 -4 15 -17 15 -30z m918 17 c6 -1 12 -5 12 -11 0 -12 -107 -13
-114 -1 -10 15 8 22 48 17 23 -3 47 -5 54 -5z m-7008 -17 c0 -10 -15 -14 -54
-14 -51 0 -74 9 -59 24 3 3 30 5 60 5 38 -1 53 -6 53 -15z m960 -8 c0 -14 -4
-28 -10 -31 -6 -4 -10 7 -10 24 0 17 5 31 10 31 6 0 10 -11 10 -24z m42 -7
c-5 -29 -8 -33 -20 -25 -13 8 -2 58 12 53 6 -2 9 -15 8 -28z m1043 16 c0 -11
-89 -19 -112 -11 -8 3 -11 11 -8 16 9 14 120 9 120 -5z m725 -21 c0 -11 -12
-12 -57 -8 -63 7 -74 11 -56 22 20 13 113 1 113 -14z m1680 11 c0 -13 -11 -15
-57 -13 -81 4 -85 28 -4 28 48 0 61 -3 61 -15z m-880 -10 c0 -13 -10 -15 -47
-14 -55 3 -73 8 -73 20 0 5 27 9 60 9 47 0 60 -3 60 -15z m1730 -15 c0 -16 -4
-30 -10 -30 -5 0 -10 14 -10 30 0 17 5 30 10 30 6 0 10 -13 10 -30z m50 0 c0
-20 -5 -30 -15 -30 -10 0 -15 10 -15 30 0 20 5 30 15 30 10 0 15 -10 15 -30z
m-5398 -26 c-2 -16 -10 -55 -18 -86 -8 -32 -12 -69 -8 -83 8 -33 -13 -33 -28
0 -9 19 -8 39 5 87 9 35 18 76 22 91 8 37 31 29 27 -9z m2048 6 c0 -16 -4 -30
-10 -30 -5 0 -10 14 -10 30 0 17 5 30 10 30 6 0 10 -13 10 -30z m4969 -16 c-5
-25 -13 -63 -19 -85 -6 -21 -8 -50 -4 -65 5 -20 3 -25 -6 -22 -31 10 -35 36
-16 115 25 106 24 103 39 103 12 0 13 -9 6 -46z m55 14 c3 -17 9 -61 12 -97 5
-57 4 -68 -13 -83 -18 -16 -18 -14 -21 98 -2 109 9 149 22 82z m-7020 -10 c3
-17 9 -61 12 -97 5 -57 4 -68 -12 -83 -18 -16 -19 -13 -21 98 -3 109 8 149 21
82z m2035 17 c5 -19 -1 -35 -13 -35 -9 0 -12 8 -8 25 4 22 16 28 21 10z m2361
-15 c0 -16 -4 -30 -10 -30 -5 0 -10 14 -10 30 0 17 5 30 10 30 6 0 10 -13 10
-30z m45 0 c0 -13 -6 -25 -12 -27 -9 -3 -13 6 -13 27 0 21 4 30 13 28 6 -3 12
-15 12 -28z m1623 21 c6 -1 12 -5 12 -11 0 -12 -107 -13 -114 -1 -10 15 8 22
48 17 23 -3 47 -5 54 -5z m-3348 -32 c0 -17 -4 -28 -10 -24 -5 3 -10 17 -10
31 0 13 5 24 10 24 6 0 10 -14 10 -31z m50 1 c0 -20 -5 -30 -15 -30 -10 0 -15
10 -15 30 0 20 5 30 15 30 10 0 15 -10 15 -30z m747 -17 c-4 -17 -4 -17 -12 0
-4 9 -4 25 0 35 8 16 8 16 12 0 3 -10 3 -26 0 -35z m53 17 c0 -20 -5 -30 -15
-30 -15 0 -21 40 -8 53 14 15 23 6 23 -23z m-2570 4 c0 -12 -10 -15 -47 -13
-56 3 -73 8 -73 20 0 5 27 9 60 9 48 0 60 -3 60 -16z m4340 -19 c0 -11 -12
-15 -44 -15 -24 0 -51 3 -60 6 -30 12 -5 24 50 24 41 0 54 -4 54 -15z m694
-22 c-3 -16 -12 -54 -20 -85 -8 -32 -11 -70 -8 -84 5 -20 3 -25 -6 -22 -31 10
-35 36 -16 110 26 109 26 108 42 108 11 0 13 -7 8 -27z m50 -5 c3 -17 9 -61
12 -97 5 -57 4 -68 -12 -83 -18 -16 -19 -13 -21 98 -3 109 8 149 21 82z
m-5134 5 c0 -10 -9 -51 -19 -91 -10 -40 -16 -85 -14 -100 l4 -27 -21 24 c-11
13 -19 30 -16 36 2 6 12 48 22 93 12 50 24 82 31 82 7 0 13 -8 13 -17z m56
-74 c6 -61 6 -99 -1 -112 -23 -46 -30 -25 -31 88 -1 84 1 115 10 115 8 0 16
-31 22 -91z m997 82 c27 -1 37 -5 37 -17 0 -11 -5 -14 -16 -10 -9 3 -36 6 -60
6 -30 0 -44 4 -44 14 0 8 9 12 23 11 12 -1 39 -3 60 -4z m2406 -7 c17 -4 31
-10 31 -15 0 -12 -107 -12 -114 0 -13 20 23 27 83 15z m-1639 -20 c0 -12 -10
-15 -47 -13 -56 3 -73 8 -73 20 0 5 27 9 60 9 48 0 60 -3 60 -16z m798 -1 c3
-10 -13 -13 -57 -13 -48 0 -61 3 -61 15 0 13 11 15 57 13 34 -2 58 -8 61 -15z
m1724 -19 c-2 -16 -10 -55 -18 -86 -8 -32 -12 -69 -8 -83 8 -33 -13 -33 -28 0
-9 19 -8 39 5 87 9 35 18 76 22 91 8 37 31 29 27 -9z m60 -72 c10 -73 9 -93
-1 -106 -8 -9 -16 -16 -20 -16 -3 0 -7 53 -9 117 -3 141 13 144 30 5z m1631
68 c3 -11 1 -20 -4 -20 -5 0 -9 9 -9 20 0 11 2 20 4 20 2 0 6 -9 9 -20z
m-7020 -10 c3 -11 1 -20 -4 -20 -5 0 -9 9 -9 20 0 11 2 20 4 20 2 0 6 -9 9
-20z m2027 3 c0 -10 -9 -49 -20 -88 -10 -38 -16 -83 -13 -100 l5 -30 -21 25
c-11 14 -19 32 -16 40 2 8 11 50 21 93 11 48 23 77 31 77 7 0 13 -8 13 -17z
m54 -44 c12 -118 5 -169 -23 -169 -4 0 -6 52 -7 115 -1 84 2 115 11 115 8 0
15 -24 19 -61z m2333 -43 c-9 -46 -17 -94 -17 -106 0 -19 -2 -20 -15 -10 -19
16 -19 28 1 120 23 107 23 105 37 91 9 -9 8 -30 -6 -95z m-1657 87 c0 -5 -9
-45 -20 -91 -11 -46 -17 -94 -14 -108 7 -29 -11 -32 -26 -4 -11 21 -10 35 16
140 10 44 22 70 30 70 8 0 14 -3 14 -7z m46 -19 c15 -125 16 -175 4 -189 -7
-8 -15 -15 -19 -15 -3 0 -7 52 -8 116 -1 80 2 114 9 112 6 -2 12 -13 14 -24z
m754 16 c0 -5 -9 -47 -20 -93 -10 -46 -16 -93 -13 -105 7 -27 -13 -29 -27 -2
-8 14 -5 43 10 109 11 50 20 93 20 96 0 3 7 5 15 5 8 0 15 -4 15 -10z m924
-37 c18 -143 18 -138 -3 -164 -21 -26 -38 -21 -26 8 9 19 8 130 -1 176 -4 20
-2 27 9 27 10 0 17 -15 21 -47z m-880 15 c3 -13 9 -57 12 -98 6 -65 4 -77 -12
-92 -18 -16 -19 -13 -20 98 -1 108 6 142 20 92z m3416 -78 c0 -47 -4 -80 -10
-80 -11 0 -14 142 -3 153 12 13 13 7 13 -73z m-7020 -10 c0 -47 -4 -80 -10
-80 -11 0 -14 142 -3 153 12 13 13 7 13 -73z m6083 60 c3 -11 1 -20 -4 -20 -5
0 -9 9 -9 20 0 11 2 20 4 20 2 0 6 -9 9 -20z m-5083 -16 c0 -14 -4 -23 -9 -20
-5 3 -7 15 -4 26 7 28 13 25 13 -6z m5080 -94 c0 -47 -4 -80 -10 -80 -11 0
-14 142 -3 153 12 13 13 7 13 -73z m-4044 33 c-11 -11 -17 4 -9 23 7 18 8 18
11 1 2 -10 1 -21 -2 -24z m-1036 -48 c0 -61 -3 -75 -15 -75 -12 0 -16 11 -15
48 4 119 30 143 30 27z m1766 38 c-10 -10 -19 5 -10 18 6 11 8 11 12 0 2 -7 1
-15 -2 -18z m800 -10 c-11 -11 -19 6 -11 24 8 17 8 17 12 0 3 -10 2 -21 -1
-24z m1774 -48 c0 -43 -4 -75 -10 -75 -6 0 -10 32 -10 75 0 43 4 75 10 75 6 0
10 -32 10 -75z m-3300 -31 c0 -60 -3 -74 -16 -74 -15 0 -15 1 -5 153 1 5 6 5
11 2 6 -3 10 -40 10 -81z m2400 -4 c0 -47 -4 -80 -10 -80 -6 0 -10 33 -10 80
0 47 4 80 10 80 6 0 10 -33 10 -80z m-1680 -5 c0 -43 -4 -75 -10 -75 -11 0
-14 133 -3 143 12 13 13 7 13 -68z m800 -6 c0 -51 -4 -78 -10 -74 -17 10 -11
155 6 155 2 0 4 -36 4 -81z m3470 26 c0 -18 -5 -25 -20 -25 -15 0 -20 7 -20
25 0 18 5 25 20 25 15 0 20 -7 20 -25z m-7020 -10 c0 -18 -5 -25 -20 -25 -15
0 -20 7 -20 25 0 18 5 25 20 25 15 0 20 -7 20 -25z m6080 -50 c0 -18 -5 -25
-20 -25 -15 0 -20 7 -20 25 0 18 5 25 20 25 15 0 20 -7 20 -25z m930 -25 c0
-22 -4 -40 -10 -40 -5 0 -10 18 -10 40 0 22 5 40 10 40 6 0 10 -18 10 -40z
m-7020 -10 c0 -22 -4 -40 -10 -40 -5 0 -10 18 -10 40 0 22 5 40 10 40 6 0 10
-18 10 -40z m1000 15 c0 -16 -6 -25 -15 -25 -9 0 -15 9 -15 25 0 16 6 25 15
25 9 0 15 -9 15 -25z m4350 -20 c0 -18 -5 -25 -20 -25 -15 0 -20 7 -20 25 0
18 5 25 20 25 15 0 20 -7 20 -25z m-3310 -20 c0 -16 -6 -25 -15 -25 -9 0 -15
9 -15 25 0 16 6 25 15 25 9 0 15 -9 15 -25z m2410 -10 c0 -18 -5 -25 -20 -25
-15 0 -20 7 -20 25 0 18 5 25 20 25 15 0 20 -7 20 -25z m1630 -15 c0 -22 -4
-40 -10 -40 -5 0 -10 18 -10 40 0 22 5 40 10 40 6 0 10 -18 10 -40z m880 25
c-7 -9 -15 -13 -17 -11 -7 7 7 26 19 26 6 0 6 -6 -2 -15z m-7020 -10 c-7 -9
-15 -13 -17 -11 -7 7 7 26 19 26 6 0 6 -6 -2 -15z m1056 -30 c1 -19 -1 -37 -6
-40 -10 -6 -23 62 -14 76 10 16 18 1 20 -36z m1774 19 c0 -33 -33 -30 -38 4
-3 17 2 22 17 22 16 0 21 -6 21 -26z m800 1 c0 -18 -5 -25 -20 -25 -15 0 -20
7 -20 25 0 18 5 25 20 25 15 0 20 -7 20 -25z m3498 -14 c4 -28 -13 -20 -21 9
-3 14 -1 20 6 17 7 -2 14 -14 15 -26z m-7022 4 c11 -27 -2 -37 -14 -11 -7 16
-8 26 -1 26 5 0 12 -7 15 -15z m5294 -30 c0 -25 -4 -45 -10 -45 -5 0 -10 20
-10 45 0 25 5 45 10 45 6 0 10 -20 10 -45z m1624 21 c-3 -9 -10 -13 -16 -10
-5 3 -4 12 3 20 15 18 22 13 13 -10z m-7020 -10 c-3 -9 -10 -13 -16 -10 -5 3
-4 12 3 20 15 18 22 13 13 -10z m7076 10 c0 -8 -4 -18 -10 -21 -5 -3 -10 3
-10 14 0 12 5 21 10 21 6 0 10 -6 10 -14z m-7020 -10 c0 -8 -4 -18 -10 -21 -5
-3 -10 3 -10 14 0 12 5 21 10 21 6 0 10 -6 10 -14z m2036 -30 c0 -19 -4 -37
-7 -41 -8 -8 -21 54 -13 66 12 19 22 7 20 -25z m3984 19 c-7 -9 -15 -13 -17
-11 -7 7 7 26 19 26 6 0 6 -6 -2 -15z m950 -15 c-6 -12 -14 -20 -17 -17 -2 3
1 14 8 26 17 26 24 19 9 -9z m-7020 -10 c-6 -12 -14 -20 -17 -17 -2 3 1 14 8
26 17 26 24 19 9 -9z m90 -15 c-4 -5 -10 -19 -12 -30 -3 -11 -5 1 -4 26 1 38
3 43 13 30 6 -9 8 -20 3 -26z m2720 0 c0 -25 -4 -45 -10 -45 -5 0 -10 20 -10
45 0 25 5 45 10 45 6 0 10 -20 10 -45z m800 0 c0 -25 -4 -45 -10 -45 -11 0
-14 73 -3 83 11 12 13 8 13 -38z m880 5 c0 -22 -4 -40 -10 -40 -5 0 -10 18
-10 40 0 22 5 40 10 40 6 0 10 -18 10 -40z m2624 8 c-4 -6 -10 -5 -15 3 -14
22 -10 33 6 19 8 -7 12 -17 9 -22z m-934 -9 c0 -11 -4 -17 -10 -14 -5 3 -10
15 -10 26 0 11 5 17 10 14 6 -3 10 -15 10 -26z m-5080 -23 c-1 -21 -1 -21 -15
-2 -21 27 -20 53 0 36 8 -7 15 -22 15 -34z m4979 -18 c-6 -11 -13 -17 -17 -14
-3 4 0 12 6 18 15 15 16 32 2 23 -11 -7 -14 18 -3 29 13 13 23 -35 12 -56z
m-5089 22 c-6 -12 -14 -19 -17 -17 -2 3 1 15 7 27 6 12 14 19 17 17 2 -3 -1
-15 -7 -27z m4340 15 c-7 -9 -15 -13 -17 -11 -7 7 7 26 19 26 6 0 6 -6 -2 -15z
m800 -5 c0 -11 -4 -20 -10 -20 -5 0 -10 9 -10 20 0 11 5 20 10 20 6 0 10 -9
10 -20z m-5090 -20 c0 -11 -2 -20 -4 -20 -2 0 -6 9 -9 20 -3 11 -1 20 4 20 5
0 9 -9 9 -20z m4300 1 c-13 -25 -13 -34 0 -26 15 9 12 -9 -6 -31 -15 -19 -15
-18 -9 3 3 12 1 24 -5 28 -8 5 -6 13 6 26 22 24 27 24 14 0z m96 4 c11 -27 -2
-37 -14 -11 -7 16 -8 26 -1 26 5 0 12 -7 15 -15z m-2681 -14 c-3 -6 -11 -11
-17 -11 -6 0 -6 6 2 15 14 17 26 13 15 -4z m1675 4 c-7 -9 -15 -13 -17 -11 -7
7 7 26 19 26 6 0 6 -6 -2 -15z m1750 -16 c0 -18 -18 -9 -23 12 -4 16 -3 18 9
8 8 -6 14 -15 14 -20z m-4040 -16 c0 -13 -3 -13 -15 -3 -8 7 -15 19 -15 27 0
13 3 13 15 3 8 -7 15 -19 15 -27z m3250 23 c0 -8 -4 -18 -10 -21 -5 -3 -10 3
-10 14 0 12 5 21 10 21 6 0 10 -6 10 -14z m1700 -19 c0 -5 -4 -5 -10 -2 -5 3
-10 14 -10 23 0 15 2 15 10 2 5 -8 10 -19 10 -23z m-7020 -17 c0 -13 -1 -13
-10 0 -5 8 -10 22 -10 30 0 13 1 13 10 0 5 -8 10 -22 10 -30z m1020 12 c0 -15
-2 -15 -10 -2 -13 20 -13 33 0 25 6 -3 10 -14 10 -23z m940 3 c-7 -9 -15 -13
-18 -10 -3 2 1 11 8 20 7 9 15 13 18 10 3 -2 -1 -11 -8 -20z m837 -22 c-11
-10 -27 8 -27 30 l0 21 16 -22 c9 -13 14 -26 11 -29z m1671 18 c4 -28 -13 -20
-21 9 -3 14 -1 20 6 17 7 -2 14 -14 15 -26z m-2456 -6 c-2 -14 -6 -25 -7 -25
-1 0 -5 11 -7 25 -3 16 -1 25 7 25 8 0 10 -9 7 -25z m678 4 c-7 -11 -14 -18
-17 -15 -3 3 0 12 7 21 18 21 23 19 10 -6z m910 -21 c0 -4 -5 -8 -11 -8 -6 0
-8 -9 -4 -21 5 -13 3 -19 -3 -15 -5 3 -12 15 -15 26 -3 11 -1 17 4 14 6 -3 7
6 4 23 -6 27 -6 27 9 9 9 -11 16 -23 16 -28z m764 18 c-6 -16 -24 -23 -24 -8
0 10 22 33 27 28 2 -2 1 -11 -3 -20z m1000 -16 c-6 -5 -24 21 -24 34 0 6 6 1
14 -10 8 -10 12 -21 10 -24z m-1883 -3 c-8 -8 -11 -7 -11 4 0 20 13 34 18 19
3 -7 -1 -17 -7 -23z m938 26 c0 -5 -4 -17 -9 -28 -8 -18 -9 -17 -9 8 -1 15 4
27 9 27 6 0 10 -3 9 -7z m-3483 -29 c-4 -9 -9 -15 -11 -12 -3 3 -3 13 1 22 4
9 9 15 11 12 3 -3 3 -13 -1 -22z m74 -7 c0 -5 -4 -5 -10 -2 -5 3 -10 14 -10
23 0 15 2 15 10 2 5 -8 10 -19 10 -23z m963 13 c-6 -24 -23 -37 -23 -18 0 12
18 38 26 38 1 0 0 -9 -3 -20z m87 -23 c0 -16 -18 3 -23 25 -6 22 -5 22 8 4 8
-11 15 -24 15 -29z m680 22 c0 -11 -4 -17 -10 -14 -5 3 -10 13 -10 21 0 8 5
14 10 14 6 0 10 -9 10 -21z m800 0 c0 -11 -4 -17 -10 -14 -5 3 -10 13 -10 21
0 8 5 14 10 14 6 0 10 -9 10 -21z m-846 -23 c-3 -9 -10 -16 -15 -16 -6 0 -5 9
1 21 13 24 24 20 14 -5z m86 4 c6 -11 7 -20 2 -20 -6 0 -12 9 -15 20 -3 11 -3
20 -1 20 2 0 8 -9 14 -20z m1680 -8 c0 -15 -2 -15 -10 -2 -13 20 -13 33 0 25
6 -3 10 -14 10 -23z m-963 -4 c0 -13 2 -39 6 -58 l6 -35 -12 37 c-7 20 -15 40
-19 44 -4 4 -3 13 3 21 15 18 17 17 16 -9z m-2551 -14 c-4 -9 -9 -15 -11 -12
-3 3 -3 13 1 22 4 9 9 15 11 12 3 -3 3 -13 -1 -22z m1025 -11 c-8 -15 -10 -15
-11 -2 0 17 10 32 18 25 2 -3 -1 -13 -7 -23z m79 -6 c0 -5 -4 -5 -10 -2 -5 3
-10 14 -10 23 0 15 2 15 10 2 5 -8 10 -19 10 -23z m2400 -7 c0 -13 -1 -13 -10
0 -5 8 -10 22 -10 30 0 13 1 13 10 0 5 -8 10 -22 10 -30z m-74 4 c-4 -9 -9
-15 -11 -12 -3 3 -3 13 1 22 4 9 9 15 11 12 3 -3 3 -13 -1 -22z m-2395 -37
c-8 -8 -11 -7 -11 4 0 20 13 34 18 19 3 -7 -1 -17 -7 -23z m59 0 c0 -5 -4 -5
-10 -2 -5 3 -10 14 -10 23 0 15 2 15 10 2 5 -8 10 -19 10 -23z m-2065 -26 c-3
-6 -11 -11 -17 -11 -6 0 -6 6 2 15 14 17 26 13 15 -4z m0 -40 c-3 -6 -11 -11
-17 -11 -6 0 -6 6 2 15 14 17 26 13 15 -4z m995 -22 c-7 -11 -14 -18 -17 -15
-3 3 0 12 7 21 18 21 23 19 10 -6z m-990 -44 c-7 -9 -15 -13 -18 -10 -3 2 1
11 8 20 7 9 15 13 18 10 3 -2 -1 -11 -8 -20z m990 4 c-7 -11 -14 -18 -17 -15
-3 3 0 12 7 21 18 21 23 19 10 -6z m-990 -44 c-7 -9 -15 -13 -18 -10 -3 2 1
11 8 20 7 9 15 13 18 10 3 -2 -1 -11 -8 -20z m0 -40 c-7 -9 -15 -13 -18 -10
-3 2 1 11 8 20 7 9 15 13 18 10 3 -2 -1 -11 -8 -20z m2040 -14 c0 -4 -7 -16
-16 -27 -15 -18 -15 -18 -5 3 14 28 14 36 -1 27 -7 -4 -8 -3 -4 5 7 11 26 6
26 -8z m-2038 -253 c-2 -151 -6 -248 -12 -248 -14 0 -13 455 1 482 6 11 11 18
12 16 1 -1 1 -114 -1 -250z m7018 -28 c0 -180 -4 -280 -10 -280 -6 0 -10 95
-10 264 0 237 3 296 16 296 2 0 4 -126 4 -280z m-4264 242 c-18 -16 -18 -16
-6 6 6 13 14 21 18 18 3 -4 -2 -14 -12 -24z m0 -40 c-18 -16 -18 -16 -6 6 6
13 14 21 18 18 3 -4 -2 -14 -12 -24z m3324 -257 c0 -177 -4 -275 -10 -275 -6
0 -10 93 -10 259 0 232 3 291 16 291 2 0 4 -124 4 -275z m-5080 -5 c0 -173 -4
-270 -10 -270 -6 0 -10 94 -10 263 0 232 3 277 17 277 2 0 3 -121 3 -270z
m1026 232 c-18 -16 -18 -16 -6 6 6 13 14 21 18 18 3 -4 -2 -14 -12 -24z m730
-10 c-18 -16 -18 -16 -6 6 6 13 14 21 18 18 3 -4 -2 -14 -12 -24z m2584 -252
c0 -173 -4 -270 -10 -270 -6 0 -10 91 -10 254 0 228 3 286 16 286 2 0 4 -121
4 -270z m-3300 -10 c0 -167 -4 -260 -10 -260 -6 0 -10 91 -10 253 0 224 3 267
17 267 2 0 3 -117 3 -260z m722 -22 c-2 -164 -6 -268 -12 -268 -14 0 -13 495
1 522 6 11 11 18 12 16 1 -1 1 -123 -1 -270z m1678 2 c0 -173 -4 -270 -10
-270 -6 0 -10 94 -10 263 0 232 3 277 17 277 2 0 3 -121 3 -270z m-871 -22 c1
-214 -1 -248 -14 -248 -13 0 -15 34 -15 243 0 133 3 253 7 266 15 57 22 -22
22 -261z m-3461 -124 c65 -32 108 -83 128 -152 56 -189 -122 -365 -313 -311
-71 19 -146 97 -168 172 -60 209 157 389 353 291z m6993 -39 c103 -35 169
-129 169 -240 -1 -102 -56 -187 -148 -227 -52 -23 -145 -25 -194 -5 -87 37
-158 138 -158 228 0 176 167 300 331 244z m-5986 -69 c176 -104 162 -361 -25
-445 -53 -24 -145 -28 -194 -7 -49 20 -116 85 -137 131 -21 46 -24 130 -7 186
16 55 73 117 132 146 69 33 163 28 231 -11z m5047 12 c51 -15 126 -82 149
-133 22 -49 25 -151 5 -199 -22 -53 -82 -112 -138 -136 -172 -74 -364 68 -345
255 16 161 170 261 329 213z m-705 -36 c51 -27 106 -90 121 -141 18 -57 14
-140 -7 -186 -23 -50 -84 -109 -133 -130 -44 -18 -125 -20 -179 -3 -51 15
-114 69 -142 122 -16 31 -22 58 -22 116 0 64 4 82 28 122 51 87 132 130 232
124 35 -2 78 -12 102 -24z m-3309 -8 c198 -98 179 -386 -29 -459 -88 -31 -187
-9 -257 58 -90 86 -102 216 -29 324 67 99 204 132 315 77z m723 -25 c52 -26
114 -101 129 -154 60 -213 -166 -395 -359 -290 -93 51 -136 131 -129 240 11
175 203 284 359 204z m1658 9 c81 -25 161 -138 161 -229 0 -223 -269 -341
-424 -185 -116 115 -97 307 37 390 71 44 137 51 226 24z m-864 -11 c83 -43
139 -135 138 -227 -1 -76 -27 -132 -84 -184 -58 -52 -117 -71 -195 -63 -245
25 -304 354 -84 470 49 26 63 28 125 25 39 -3 84 -12 100 -21z m-4725 -437 c0
-5 -15 -10 -34 -10 -19 0 -38 5 -41 10 -4 6 10 10 34 10 23 0 41 -4 41 -10z
m85 0 c-3 -5 -19 -10 -35 -10 -16 0 -32 5 -35 10 -4 6 10 10 35 10 25 0 39 -4
35 -10z m85 0 c0 -5 -16 -10 -35 -10 -19 0 -35 5 -35 10 0 6 16 10 35 10 19 0
35 -4 35 -10z m90 0 c0 -5 -16 -10 -35 -10 -19 0 -35 5 -35 10 0 6 16 10 35
10 19 0 35 -4 35 -10z m85 0 c-3 -5 -19 -10 -36 -10 -16 0 -29 5 -29 10 0 6
16 10 36 10 21 0 33 -4 29 -10z m75 0 c0 -5 -13 -10 -30 -10 -16 0 -30 5 -30
10 0 6 14 10 30 10 17 0 30 -4 30 -10z m8265 0 c-3 -5 -19 -10 -36 -10 -16 0
-29 5 -29 10 0 6 16 10 36 10 21 0 33 -4 29 -10z m85 0 c0 -5 -16 -10 -35 -10
-19 0 -35 5 -35 10 0 6 16 10 35 10 19 0 35 -4 35 -10z m90 0 c0 -5 -18 -10
-40 -10 -22 0 -40 5 -40 10 0 6 18 10 40 10 22 0 40 -4 40 -10z m85 0 c-3 -5
-19 -10 -36 -10 -16 0 -29 5 -29 10 0 6 16 10 36 10 21 0 33 -4 29 -10z m85 0
c0 -5 -16 -10 -35 -10 -19 0 -35 5 -35 10 0 6 16 10 35 10 19 0 35 -4 35 -10z
m90 0 c0 -5 -16 -10 -35 -10 -19 0 -35 5 -35 10 0 6 16 10 35 10 19 0 35 -4
35 -10z m-9433 -87 c-2 -16 -4 -5 -4 22 0 28 2 40 4 28 2 -13 2 -35 0 -50z
m741 20 l-3 -48 -362 -2 -363 -3 0 50 0 50 366 0 365 0 -3 -47z m8920 0 l-3
-48 -360 0 -360 0 -3 48 -3 47 366 0 366 0 -3 -47z m18 -330 c-3 -3 -54 21
-115 54 l-111 58 0 78 0 77 110 0 110 0 2 58 c2 31 4 -28 5 -132 2 -104 1
-191 -1 -193z m-9458 190 l-3 -78 -105 -57 c-58 -31 -108 -57 -112 -58 -5 0
-8 61 -8 135 l0 135 115 0 116 0 -3 -77z m157 7 c-71 -38 -133 -69 -137 -70
-5 0 -8 32 -8 70 l0 70 138 0 137 0 -130 -70z m13 -105 c-180 -96 -331 -175
-337 -175 -13 0 -45 60 -36 68 3 4 120 68 258 144 l252 136 95 1 95 1 -327
-175z m8875 105 c73 -39 143 -77 157 -84 14 -8 73 -40 132 -71 l107 -56 -16
-35 c-9 -18 -21 -34 -27 -34 -8 0 -642 335 -655 346 -2 2 35 4 83 4 l88 0 131
-70z m167 0 c0 -38 -1 -70 -3 -70 -2 0 -61 31 -133 70 l-129 70 133 0 132 0 0
-70z m-9210 -560 l0 -350 -115 0 -115 0 0 348 1 347 24 -47 25 -47 87 49 c49
27 89 49 91 50 1 0 2 -157 2 -350z m9431 299 l24 46 3 -335 c1 -184 0 -341 -3
-347 -3 -9 -35 -13 -115 -13 l-110 0 0 349 0 349 89 -47 89 -48 23 46z
m-12131 -664 c0 -8 -131 -248 -141 -260 -5 -5 -9 0 -9 13 0 30 121 252 137
252 7 0 13 -2 13 -5z m14541 -116 c35 -71 58 -128 54 -137 -7 -18 -11 -11
-103 161 -47 87 -51 97 -32 97 15 0 33 -26 81 -121z"/>
<path d="M4785 3259 c-64 -18 -110 -88 -102 -151 22 -167 257 -170 284 -4 15
97 -86 184 -182 155z m106 -25 c19 -10 38 -32 50 -60 31 -69 5 -135 -68 -173
-72 -37 -174 28 -176 112 -3 105 101 170 194 121z"/>
<path d="M11785 3191 c-52 -31 -68 -58 -72 -114 -7 -89 48 -150 137 -151 111
-2 180 118 124 214 -37 64 -128 89 -189 51z m122 -8 c46 -21 73 -67 73 -122 0
-37 -6 -49 -39 -82 -35 -35 -44 -39 -88 -39 -146 0 -182 186 -48 246 40 18 60
17 102 -3z"/>
<path d="M5743 3140 c-41 -25 -66 -73 -66 -128 0 -103 115 -167 211 -118 94
48 97 187 6 247 -38 25 -109 25 -151 -1z m136 -8 c125 -67 69 -251 -72 -239
-65 6 -107 46 -114 109 -12 109 91 181 186 130z"/>
<path d="M10834 3132 c-83 -53 -83 -190 1 -242 36 -22 104 -27 138 -9 93 48
111 163 37 234 -40 38 -128 47 -176 17z m173 -36 c55 -60 43 -146 -26 -193
-62 -42 -147 -19 -183 48 -22 42 -23 71 -1 116 24 52 67 75 127 70 42 -4 55
-10 83 -41z"/>
<path d="M10101 3112 c-94 -51 -93 -199 1 -248 128 -67 261 66 194 194 -35 67
-125 92 -195 54z m124 -6 c79 -33 99 -146 37 -208 -80 -81 -222 -20 -222 94 0
37 34 90 71 110 41 22 68 23 114 4z"/>
<path d="M6826 3120 c-66 -20 -114 -99 -102 -165 25 -134 208 -156 272 -33 54
104 -56 232 -170 198z m103 -24 c108 -56 75 -227 -46 -243 -79 -11 -143 47
-143 130 0 44 4 53 39 88 32 33 45 39 80 39 23 0 55 -7 70 -14z"/>
<path d="M7519 3079 c-46 -27 -72 -72 -72 -124 0 -145 188 -196 263 -72 42 68
14 162 -60 199 -46 23 -87 22 -131 -3z m139 -16 c51 -32 76 -107 51 -156 -36
-70 -102 -98 -168 -71 -75 30 -104 120 -60 190 11 19 21 34 22 34 1 0 20 7 42
14 43 16 76 12 113 -11z"/>
<path d="M9220 3089 c-66 -27 -109 -104 -91 -166 35 -121 164 -151 250 -59 34
36 40 118 12 163 -11 18 -31 39 -45 48 -32 21 -93 28 -126 14z m124 -30 c84
-66 68 -183 -33 -226 -56 -24 -128 3 -157 58 -30 60 -10 138 45 172 38 24 112
22 145 -4z"/>
<path d="M8303 3069 c-115 -73 -60 -259 77 -259 139 0 199 158 94 250 -29 25
-43 30 -87 30 -35 0 -62 -7 -84 -21z m174 -33 c28 -30 33 -43 33 -85 0 -140
-186 -181 -242 -54 -43 96 23 189 126 180 42 -4 55 -10 83 -41z"/>
<path d="M3500 2676 c0 -8 4 -17 9 -20 11 -7 33 18 24 27 -12 12 -33 7 -33 -7z"/>
<path d="M3577 2684 c-13 -13 -7 -24 14 -24 11 0 19 5 17 12 -5 14 -22 21 -31
12z"/>
<path d="M4102 2673 c2 -10 8 -18 13 -18 5 0 11 8 13 18 2 10 -3 17 -13 17
-10 0 -15 -7 -13 -17z"/>
<path d="M4147 2684 c-13 -13 -7 -24 14 -24 11 0 19 5 17 12 -5 14 -22 21 -31
12z"/>
<path d="M12410 2676 c0 -20 12 -27 27 -15 9 9 17 8 27 0 10 -9 16 -9 21 -1
10 16 -2 24 -41 27 -22 1 -34 -3 -34 -11z"/>
<path d="M12982 2673 c2 -10 8 -18 13 -18 5 0 11 8 13 18 2 10 -3 17 -13 17
-10 0 -15 -7 -13 -17z"/>
<path d="M13057 2684 c-13 -13 -7 -24 14 -24 11 0 19 5 17 12 -5 14 -22 21
-31 12z"/>
<path d="M3612 2364 c2 -11 8 -18 13 -16 15 3 12 25 -3 30 -9 3 -13 -2 -10
-14z"/>
<path d="M3545 2340 c-10 -17 12 -37 25 -24 8 8 6 15 -4 23 -10 9 -16 9 -21 1z"/>
<path d="M12952 2363 c2 -10 8 -18 13 -18 5 0 11 8 13 18 2 10 -3 17 -13 17
-10 0 -15 -7 -13 -17z"/>
<path d="M13014 2339 c-8 -14 11 -33 25 -25 6 4 11 11 11 16 0 13 -29 20 -36
9z"/>
<path d="M3443 1515 c0 -33 2 -45 4 -27 2 18 2 45 0 60 -2 15 -4 0 -4 -33z"/>
<path d="M13143 1515 c0 -33 2 -45 4 -27 2 18 2 45 0 60 -2 15 -4 0 -4 -33z"/>
<path d="M3683 1455 c0 -33 2 -45 4 -27 2 18 2 45 0 60 -2 15 -4 0 -4 -33z"/>
<path d="M12897 1503 c-11 -10 -8 -103 3 -103 6 0 10 25 10 55 0 56 -1 60 -13
48z"/>
<path d="M3442 1373 l-2 -53 -47 1 c-27 0 -69 4 -95 8 -27 4 -48 5 -48 1 0 -4
36 -13 80 -19 73 -11 83 -10 126 9 26 11 48 19 49 18 2 -2 17 -32 35 -68 18
-36 34 -67 36 -69 2 -3 14 5 27 17 38 35 65 40 172 26 55 -7 110 -16 123 -19
12 -3 22 -1 22 4 0 4 -24 11 -52 15 -29 4 -81 12 -115 17 l-62 11 -4 46 -3 47
-2 -47 c-1 -33 -6 -48 -16 -48 -7 0 -30 -11 -50 -25 l-36 -24 -35 69 c-19 39
-39 70 -43 70 -4 0 -16 -7 -27 -16 -19 -14 -20 -13 -26 33 l-6 48 -1 -52z"/>
<path d="M13142 1376 l-2 -48 -25 16 c-13 9 -28 16 -33 16 -5 0 -24 -32 -42
-71 -30 -65 -33 -69 -49 -55 -10 9 -32 21 -49 27 -29 10 -32 14 -32 55 0 24
-4 44 -10 44 -5 0 -10 -20 -10 -44 0 -50 7 -47 -132 -67 -49 -7 -88 -16 -88
-21 0 -5 8 -7 18 -4 9 3 55 10 102 17 131 19 149 17 190 -17 17 -15 32 -25 34
-23 1 2 17 34 34 72 17 37 33 67 36 67 3 0 24 -9 46 -21 38 -20 45 -20 125 -9
47 7 85 14 85 17 0 2 -42 1 -94 -3 l-95 -7 -4 54 -3 54 -2 -49z"/>
<path d="M3465 1144 c-41 -26 -72 -27 -190 -8 -24 4 -27 3 -14 -5 10 -6 54
-14 100 -18 78 -8 85 -7 108 15 13 12 27 22 31 22 4 0 22 -34 40 -75 l33 -76
21 19 c24 22 60 42 75 42 5 0 12 -26 14 -57 l3 -58 2 59 2 59 30 -6 c16 -4 60
-9 97 -11 54 -5 61 -4 33 4 -19 5 -72 12 -117 16 -73 6 -85 5 -118 -16 -20
-12 -37 -21 -39 -19 -1 2 -17 34 -34 72 -17 37 -32 67 -34 67 -2 0 -21 -12
-43 -26z"/>
<path d="M13045 1100 c-19 -38 -38 -70 -41 -70 -3 0 -17 9 -31 20 -17 13 -41
20 -69 20 -59 0 -194 -21 -194 -30 0 -4 37 -1 83 6 45 8 85 14 90 14 4 0 7
-25 7 -55 0 -30 5 -55 10 -55 6 0 10 25 10 55 0 66 12 70 64 24 l35 -31 38 76
37 75 28 -17 c15 -9 28 -19 28 -22 0 -9 173 10 190 21 9 6 -6 6 -40 2 -97 -14
-142 -10 -177 15 l-32 23 -36 -71z"/>
<path d="M3443 1005 c0 -33 2 -45 4 -27 2 18 2 45 0 60 -2 15 -4 0 -4 -33z"/>
<path d="M13143 1005 c0 -33 2 -45 4 -27 2 18 2 45 0 60 -2 15 -4 0 -4 -33z"/>
<path d="M3443 860 c0 -36 2 -50 4 -32 2 17 2 47 0 65 -2 17 -4 3 -4 -33z"/>
<path d="M3683 860 c0 -36 2 -50 4 -32 2 17 2 47 0 65 -2 17 -4 3 -4 -33z"/>
<path d="M13143 860 c0 -36 2 -50 4 -32 2 17 2 47 0 65 -2 17 -4 3 -4 -33z"/>
<path d="M12890 860 c0 -27 5 -50 10 -50 6 0 10 23 10 50 0 28 -4 50 -10 50
-5 0 -10 -22 -10 -50z"/>
<path d="M3440 717 l-5 -57 60 2 60 2 -52 3 -52 4 -3 52 -3 52 -5 -58z"/>
<path d="M3681 723 l-1 -52 -52 -4 -53 -3 60 -2 61 -2 -4 43 c-5 68 -10 76
-11 20z"/>
<path d="M12890 715 l0 -55 58 2 c56 2 56 2 10 5 l-48 4 0 50 c0 27 -4 49 -10
49 -5 0 -10 -25 -10 -55z"/>
<path d="M13140 721 l0 -50 -52 -4 -53 -3 58 -2 57 -2 0 55 c0 30 -2 55 -5 55
-3 0 -5 -22 -5 -49z"/>
</g>
</svg>
