<?xml version="1.0" standalone="no"?>
<!DOCTYPE svg PUBLIC "-//W3C//DTD SVG 20010904//EN"
 "http://www.w3.org/TR/2001/REC-SVG-20010904/DTD/svg10.dtd">
<svg version="1.0" xmlns="http://www.w3.org/2000/svg"
 width="1622.000000pt" height="632.000000pt" viewBox="0 0 1622.000000 632.000000"
 preserveAspectRatio="xMidYMid meet">
<metadata>
Created by potrace 1.16, written by Peter Selinger 2001-2019
</metadata>
<g transform="translate(0.000000,632.000000) scale(0.100000,-0.100000)"
fill="#000000" stroke="none">
<path d="M15202 6000 c-177 -37 -318 -192 -330 -362 -5 -67 -5 -68 -24 -51
-10 9 -35 17 -54 17 -28 0 -43 -8 -75 -42 -45 -45 -75 -60 -92 -43 -6 6 -20
11 -32 11 -12 0 -25 4 -30 9 -6 5 -195 -21 -460 -65 -247 -40 -462 -73 -476
-74 -14 0 -34 -9 -44 -20 -10 -11 -23 -20 -28 -20 -5 0 -15 -7 -21 -15 -12
-16 -37 -18 -104 -9 -29 4 -58 1 -85 -10 -37 -13 -150 -36 -184 -36 -7 0 -13
7 -13 15 0 16 -9 19 -34 9 -8 -3 -12 -12 -10 -19 4 -10 -6 -16 -32 -21 -29 -5
-40 -3 -50 11 -15 20 -44 14 -44 -9 0 -7 -10 -16 -22 -19 -13 -3 -2655 -427
-5872 -943 -4542 -727 -5853 -934 -5865 -925 -32 23 -43 23 -66 1 l-23 -22
-42 46 c-109 118 -271 164 -421 120 -195 -58 -325 -261 -290 -455 61 -347 479
-470 714 -209 l38 41 26 -20 c24 -20 27 -20 53 -4 27 16 248 -19 5881 -921
3220 -516 5862 -940 5872 -942 9 -3 17 -12 17 -20 0 -23 29 -29 44 -9 10 14
21 16 50 11 27 -5 36 -11 32 -22 -3 -8 -1 -14 3 -14 5 0 16 -3 25 -6 11 -4 16
-1 16 10 0 9 8 16 17 16 38 0 151 -22 185 -37 24 -10 50 -13 80 -9 70 10 91 9
104 -8 6 -9 18 -16 25 -16 8 0 19 -8 25 -18 6 -10 24 -19 40 -20 16 -1 232
-36 479 -76 262 -43 454 -70 459 -65 6 5 19 9 31 9 12 0 26 5 32 11 16 16 48
2 85 -37 47 -51 73 -59 119 -36 l39 19 0 -41 c0 -97 50 -205 129 -279 61 -57
115 -85 202 -103 86 -18 178 -6 259 33 75 36 160 123 190 196 24 56 26 58 58
53 22 -3 32 -1 32 8 0 8 3 28 6 45 6 29 5 31 -23 31 -30 0 -30 0 -36 71 -16
185 -155 336 -344 371 -79 15 -171 -1 -252 -42 -73 -36 -161 -130 -191 -203
l-23 -55 -21 25 c-17 20 -35 27 -75 31 -43 4 -53 2 -49 -9 3 -8 -1 -21 -9 -30
-12 -14 -19 -15 -46 -5 -18 6 -34 13 -37 16 -44 44 -70 50 -537 126 -257 41
-469 77 -472 79 -2 2 -13 -1 -25 -7 -11 -7 -25 -13 -31 -13 -5 -1 -23 -5 -38
-9 -24 -7 -33 -4 -57 19 -32 30 -113 46 -145 28 -10 -6 -39 -6 -73 -1 -93 13
-102 17 -102 38 0 13 -7 20 -20 20 -11 0 -20 -7 -20 -15 0 -9 -9 -15 -24 -15
-34 0 -56 10 -56 25 0 21 -31 27 -45 9 -11 -16 -473 57 -5875 922 -5660 907
-5863 940 -5871 962 -6 16 -17 22 -39 22 -30 0 -30 0 -23 43 10 54 10 120 0
175 -7 42 -7 42 23 42 23 0 33 6 39 23 9 22 190 51 5871 962 5452 873 5863
938 5875 922 15 -21 41 -13 48 14 7 24 77 28 77 4 0 -22 31 -18 37 5 6 21 12
23 103 39 36 6 61 6 74 -1 10 -6 42 -8 69 -5 39 3 56 11 74 32 19 22 29 26 51
21 15 -4 34 -8 42 -10 8 -2 23 -7 33 -11 27 -11 969 142 983 160 6 8 16 15 22
15 6 0 18 7 26 16 9 8 25 17 37 19 12 3 24 7 27 10 10 9 41 -27 35 -41 -13
-34 115 -4 134 31 8 14 14 6 33 -40 67 -166 267 -277 443 -246 187 33 328 185
344 370 6 72 11 79 56 72 9 -1 9 16 1 58 -6 28 -9 30 -38 26 -29 -5 -32 -2
-49 40 -41 98 -132 187 -230 223 -63 24 -167 34 -225 22z m240 -42 c75 -35
148 -104 188 -179 35 -67 34 -89 -7 -89 -15 0 -35 -5 -43 -10 -10 -7 1 -8 39
-4 48 6 53 5 49 -12 -2 -13 -15 -21 -41 -25 -58 -9 -58 -21 1 -13 50 6 52 6
52 -18 0 -155 -98 -311 -238 -376 -50 -24 -69 -27 -162 -27 -93 0 -111 3 -163
27 -101 47 -192 152 -222 255 -5 20 -1 22 50 28 30 4 58 11 61 16 6 11 8 11
-56 -1 -41 -8 -56 -7 -62 2 -14 23 -9 26 47 33 30 4 58 12 61 17 4 6 -5 8 -25
4 -17 -3 -45 -9 -63 -12 l-31 -6 6 60 c17 162 126 298 280 348 70 23 210 14
279 -18z m-597 -388 c26 -29 24 -79 -5 -102 -32 -26 -36 -16 -9 21 21 29 21
31 5 55 -11 18 -25 26 -45 26 -49 0 -60 -29 -36 -95 6 -17 3 -16 -15 4 -23 27
-21 62 7 94 22 23 75 22 98 -3z m-22 -31 c6 -9 7 -25 2 -35 -6 -15 -8 -16 -12
-4 -3 8 -15 26 -27 38 l-21 24 24 -4 c13 -1 29 -10 34 -19z m-252 -31 c0 -13
3 -17 6 -10 5 13 42 17 44 5 0 -5 2 -16 4 -25 2 -13 -3 -18 -21 -18 -14 0 -24
-6 -24 -14 0 -8 -8 -17 -17 -20 -23 -7 -881 -146 -901 -146 -46 0 35 15 438
80 245 39 450 77 457 83 14 15 6 64 -12 71 -7 2 -206 -27 -442 -65 -235 -38
-437 -68 -448 -67 -22 3 831 145 883 147 27 1 32 -3 33 -21z m125 -3 c-11 -8
-29 -14 -40 -14 -20 1 -21 1 -1 6 11 3 24 9 30 14 5 5 14 9 20 9 5 0 1 -7 -9
-15z m-156 -8 c0 -2 -81 -17 -180 -32 -99 -16 -180 -31 -180 -34 1 -30 19 -31
173 -6 145 23 196 29 172 19 -11 -4 -872 -144 -888 -144 -6 0 -8 2 -6 4 3 3
428 76 443 76 2 0 2 9 -1 20 -4 13 -11 19 -22 16 -37 -11 -413 -67 -418 -63
-5 5 -3 6 491 87 323 53 416 66 416 57z m8 -22 c-7 -7 -303 -55 -331 -54 -12
1 50 14 138 29 167 29 202 33 193 25z m-489 -80 c-3 -2 -90 -18 -195 -35 -104
-17 -202 -33 -219 -36 -16 -4 -27 -3 -23 1 4 5 94 23 200 40 193 33 246 39
237 30z m-443 -37 c-15 -24 -6 -68 14 -68 5 0 10 -4 10 -10 0 -19 -27 -10 -38
13 -6 12 -11 16 -11 10 -1 -7 -10 -13 -22 -13 -16 0 -20 5 -17 28 2 19 9 27
23 27 11 0 21 6 21 13 2 21 4 22 19 22 14 0 14 -3 1 -22z m-118 -41 c35 -2 45
-17 11 -17 -12 0 -30 -11 -40 -25 -33 -41 -129 -47 -143 -9 -8 20 18 51 48 57
11 3 37 3 56 0 19 -2 50 -5 68 -6z m-356 -64 c4 -46 2 -61 -6 -52 -9 11 -16
99 -8 99 6 0 12 -21 14 -47z m168 28 c0 -20 -11 -24 -101 -37 -37 -5 -47 -3
-52 10 -4 11 1 17 16 21 19 4 109 21 130 24 4 0 7 -8 7 -18z m-291 -71 c0 -28
-2 -31 -9 -15 -5 11 -9 36 -9 55 0 28 2 31 9 15 5 -11 9 -36 9 -55z m79 19
c-7 -5 -26 -9 -41 -9 -43 0 -32 34 13 40 37 5 55 -14 28 -31z m-108 -3 c0 -8
-12 -17 -27 -20 -26 -6 -11569 -1856 -11676 -1871 -44 -7 -49 -6 -45 11 3 17
548 106 5843 956 3212 515 5855 937 5873 937 21 1 32 -4 32 -13z m-12106
-1701 c77 -20 134 -55 191 -116 34 -36 46 -56 42 -70 -4 -15 -2 -19 8 -15 33
12 66 -156 51 -256 -10 -69 -17 -73 -65 -49 -22 12 -41 17 -41 13 0 -5 18 -17
40 -27 22 -10 40 -22 40 -27 0 -18 -29 -19 -60 -3 -18 9 -34 14 -37 11 -3 -3
11 -13 31 -22 20 -10 36 -24 36 -31 0 -30 -94 -114 -168 -151 -70 -34 -81 -37
-167 -37 -86 0 -97 3 -167 37 -68 34 -168 121 -168 146 0 5 22 19 50 32 27 13
48 26 45 28 -3 3 -28 -5 -56 -18 -43 -20 -52 -22 -59 -10 -7 12 3 21 46 43 31
16 54 31 51 33 -3 3 -28 -6 -56 -20 -28 -14 -52 -26 -54 -26 -10 0 -27 94 -27
150 0 56 17 150 27 150 2 0 26 -12 54 -26 28 -14 53 -23 56 -20 3 2 -20 17
-51 33 -43 22 -53 31 -46 43 7 12 16 10 59 -10 28 -13 53 -21 56 -18 3 2 -18
15 -45 28 -28 13 -50 27 -50 32 0 17 93 108 135 133 90 52 197 66 299 40z
m321 -145 c3 -5 -3 -10 -13 -10 -11 0 -25 -7 -32 -15 -7 -9 -15 -13 -18 -10
-8 7 29 45 44 45 7 0 16 -4 19 -10z m5 -46 c0 -20 -30 -30 -40 -13 -11 17 7
40 26 32 8 -3 14 -12 14 -19z m18 -46 c-18 -11 -58 -10 -58 2 0 6 9 10 21 10
13 0 23 8 27 22 l5 22 9 -24 c6 -16 5 -26 -4 -32z m-1 -296 c7 -5 10 -17 6
-32 -6 -24 -6 -24 -14 -2 -5 13 -17 22 -29 22 -11 0 -20 5 -20 10 0 12 40 13
57 2z m-20 -38 c7 -20 -17 -37 -34 -23 -15 13 -6 39 13 39 8 0 17 -7 21 -16z
m5928 -944 c3196 -511 5820 -932 5833 -935 27 -6 30 -35 3 -35 -19 0 -11675
1865 -11718 1875 -16 4 -20 10 -16 21 5 13 15 15 47 11 23 -3 2656 -425 5851
-937z m-5940 903 c8 4 15 2 15 -4 0 -5 -7 -12 -15 -16 -16 -6 -55 22 -55 40 0
6 9 2 20 -8 10 -9 26 -15 35 -12z m11816 -1893 c-10 -25 -10 -25 -10 5 -1 17
3 41 7 55 7 25 7 24 10 -5 2 -17 -1 -42 -7 -55z m131 13 c-5 -51 -8 -60 -18
-51 -8 8 7 98 16 98 4 0 5 -21 2 -47z m2300 15 c117 -54 205 -169 229 -299 17
-92 11 -103 -49 -94 -26 4 -44 3 -40 -1 4 -4 25 -10 45 -13 26 -4 39 -12 41
-25 4 -17 -1 -18 -49 -12 -38 4 -49 3 -39 -4 8 -5 27 -10 42 -10 39 0 42 -14
15 -74 -110 -240 -432 -302 -626 -121 -28 26 -62 66 -76 90 -28 49 -55 142
-55 193 0 32 0 33 38 27 20 -3 47 -8 60 -11 12 -2 22 -1 22 4 0 5 -26 13 -57
18 -41 6 -58 13 -58 24 0 15 47 17 103 4 14 -3 21 -1 18 5 -4 5 -31 13 -61 16
-51 7 -55 9 -49 29 26 92 110 198 188 238 82 42 109 48 206 45 78 -2 105 -8
152 -29z m-2348 6 c25 -10 19 -34 -8 -34 -35 0 -56 10 -56 26 0 14 36 19 64 8z
m194 -31 c12 -3 22 -13 22 -23 0 -15 -6 -16 -57 -8 -95 14 -103 17 -96 34 5
13 15 15 57 10 28 -4 61 -10 74 -13z m179 -17 c12 -14 31 -26 43 -26 33 0 23
-15 -12 -17 -18 -1 -46 -3 -63 -6 -16 -2 -21 -2 -10 0 52 12 53 45 3 62 -42
15 -73 14 -87 -2 -11 -15 7 -38 39 -50 13 -5 13 -6 0 -6 -18 -1 -60 26 -60 39
0 5 8 16 17 25 25 26 101 15 130 -19z m-39 -1 c12 -3 22 -11 22 -16 0 -12 -71
-11 -90 1 -13 9 -13 11 0 20 8 5 22 8 30 6 8 -3 25 -7 38 -11z m657 -70 c255
-42 471 -78 480 -81 8 -4 15 -13 15 -21 0 -8 4 -12 9 -9 16 10 39 -5 36 -22
-2 -9 -4 -20 -4 -24 -2 -13 -39 -9 -44 5 -3 7 -6 6 -6 -5 -1 -9 -6 -20 -11
-23 -12 -8 -920 137 -920 146 0 3 10 4 23 2 170 -31 873 -140 882 -136 18 6
26 56 12 70 -9 9 -827 149 -902 155 -42 3 -62 -33 -38 -70 13 -22 13 -23 -4
-20 -10 2 -18 10 -18 18 0 8 -9 15 -20 15 -14 0 -21 8 -23 28 -3 22 1 27 17
27 12 0 21 -6 22 -12 0 -7 5 -3 11 10 6 12 13 22 14 22 2 0 213 -34 469 -75z
m2 -26 c387 -62 479 -79 434 -79 -7 0 -83 12 -168 26 -129 22 -157 24 -164 13
-5 -8 -9 -17 -9 -20 0 -3 82 -18 183 -34 100 -16 175 -30 166 -32 -17 -4 -890
135 -898 143 -9 9 103 -7 417 -59 12 -3 22 -1 22 3 0 4 -93 22 -207 40 -115
18 -217 37 -228 41 -23 10 -41 13 234 -31 106 -17 195 -29 198 -26 7 7 -17 12
-237 47 -172 27 -230 39 -192 39 6 0 208 -32 449 -71z m307 -73 c81 -14 151
-27 154 -30 8 -9 1 -8 -183 23 -93 16 -159 30 -145 30 14 1 92 -10 174 -23z
m451 -26 c42 -46 8 -120 -55 -120 -54 0 -86 70 -50 111 18 20 21 21 15 4 -24
-66 -13 -95 36 -95 20 0 34 8 45 26 16 24 16 26 -5 54 -11 16 -21 32 -21 35 0
11 18 4 35 -15z m-165 -26 c0 -2 -9 -4 -20 -4 -11 0 -20 4 -20 9 0 5 9 7 20 4
11 -3 20 -7 20 -9z m150 -23 c0 -22 -19 -41 -42 -41 -24 0 -23 12 2 28 11 7
20 19 20 28 0 8 5 12 10 9 6 -3 10 -14 10 -24z m900 -157 c0 -8 -4 -12 -10 -9
-5 3 -10 10 -10 16 0 5 5 9 10 9 6 0 10 -7 10 -16z"/>
<path d="M15433 5663 c-18 -2 -33 -8 -33 -13 0 -9 52 -4 105 10 l30 8 -35 -1
c-19 0 -50 -2 -67 -4z"/>
<path d="M15283 5637 c-35 -5 -63 -14 -63 -19 0 -5 8 -7 18 -4 9 3 38 8 65 12
26 3 47 10 47 15 0 5 -1 8 -2 8 -2 -1 -31 -6 -65 -12z"/>
<path d="M15102 5608 c-34 -5 -60 -13 -57 -17 6 -10 125 9 125 20 0 5 -1 8 -2
8 -2 -1 -31 -6 -66 -11z"/>
<path d="M15443 5613 c-18 -2 -33 -8 -33 -13 0 -9 52 -4 105 10 l30 8 -35 -1
c-19 0 -50 -2 -67 -4z"/>
<path d="M15293 5587 c-35 -5 -63 -14 -63 -19 0 -5 8 -7 18 -4 9 3 38 8 65 12
26 3 47 10 47 15 0 5 -1 8 -2 8 -2 -1 -31 -6 -65 -12z"/>
<path d="M15112 5558 c-34 -5 -60 -13 -57 -17 6 -10 125 9 125 20 0 5 -1 8 -2
8 -2 -1 -31 -6 -66 -11z"/>
<path d="M13370 5309 c-31 -13 -42 -30 -28 -46 19 -23 102 -9 120 20 19 31
-39 47 -92 26z m70 -9 c13 -9 13 -11 0 -20 -19 -13 -90 -13 -90 0 0 5 15 14
33 19 42 12 40 12 57 1z"/>
<path d="M1006 3279 c-32 -17 -56 -32 -53 -35 6 -7 117 48 117 58 0 10 4 12
-64 -23z"/>
<path d="M1063 3252 c-29 -14 -53 -30 -53 -34 0 -5 27 5 60 22 55 28 73 41 53
39 -5 0 -32 -12 -60 -27z"/>
<path d="M590 3264 c0 -8 112 -56 118 -50 3 3 -20 17 -52 31 -60 26 -66 28
-66 19z"/>
<path d="M570 3222 c0 -10 111 -65 117 -58 3 3 -22 19 -56 35 -34 17 -61 28
-61 23z"/>
<path d="M850 3205 c-30 -16 -55 -23 -75 -19 -23 3 -18 -2 26 -25 l57 -30 57
30 c70 38 66 50 -5 14 -30 -15 -59 -23 -71 -20 -30 10 -23 21 26 42 25 10 45
21 45 26 0 11 -12 8 -60 -18z"/>
<path d="M730 3142 c0 -6 9 -14 20 -17 23 -7 26 -20 8 -29 -7 -3 -1 -4 15 -1
15 3 36 1 47 -5 11 -6 20 -7 20 -1 0 7 -37 29 -102 59 -5 2 -8 -1 -8 -6z"/>
<path d="M623 3092 c-29 -14 -53 -30 -53 -34 0 -5 27 5 60 22 55 28 73 41 53
39 -5 0 -32 -12 -60 -27z"/>
<path d="M910 3112 c0 -10 111 -65 117 -58 3 3 -22 19 -56 35 -34 17 -61 28
-61 23z"/>
<path d="M637 3044 c-27 -14 -47 -28 -44 -30 3 -3 31 8 63 25 33 16 52 30 44
30 -8 0 -37 -11 -63 -25z"/>
<path d="M890 3065 c0 -7 98 -55 112 -55 7 1 -12 14 -42 30 -55 29 -70 34 -70
25z"/>
<path d="M15050 742 c0 -5 29 -13 65 -18 36 -6 65 -7 65 -3 0 4 -21 10 -47 13
-27 4 -56 9 -65 12 -10 3 -18 1 -18 -4z"/>
<path d="M15230 711 c0 -8 74 -22 114 -20 18 1 18 2 -4 8 -46 14 -110 21 -110
12z"/>
<path d="M15050 690 c0 -4 27 -12 60 -17 33 -5 60 -6 60 -3 0 4 -27 12 -60 17
-33 5 -60 6 -60 3z"/>
<path d="M15415 681 c6 -5 37 -12 70 -15 65 -6 42 6 -35 18 -29 4 -41 4 -35
-3z"/>
<path d="M15220 661 c0 -8 74 -22 114 -20 18 1 18 2 -4 8 -46 14 -110 21 -110
12z"/>
<path d="M15405 631 c6 -5 37 -12 70 -15 65 -6 42 6 -35 18 -29 4 -41 4 -35
-3z"/>
</g>
</svg>
